<svg viewBox="0 0 600 371" fill="none" stroke-linecap="square" stroke-miterlimit="10" width="600" height="371" xmlns="http://www.w3.org/2000/svg"><path fill="#fff" d="M0 0h600v371H0V0z"/><path stroke="#ccc" stroke-linecap="butt" d="M127.5 258.5h454M127.5 229.5h454M127.5 208.5h454M127.5 192.5h454M127.5 143.5h454M127.5 93.5h454M127.5 64.5h454"/><path stroke="#000" stroke-linecap="butt" d="M581.5 294.5h-454M127.5 294.5v-243"/><clipPath id="a"><path d="M127.55 51.917h453.9V294.45h-453.9V51.917z"/></clipPath><path stroke="#4285f4" stroke-linecap="butt" clip-path="url(#a)" d="M150.245 294.45l45.39-49.427 45.39-28.913 45.39-20.514 45.39-15.912 45.39-13.001 45.39-10.992 45.39-9.522 45.39-8.4 45.39-7.512"/><path stroke="#ea4335" stroke-linecap="butt" stroke-dasharray="6.0,5.0" clip-path="url(#a)" d="M150.245 216.11l45.39-49.427 45.39-28.913 45.39-20.514 45.39-15.912 45.39-13.001 45.39-10.992 45.39-9.522 45.39-8.4 45.39-7.512"/><path stroke="#fbbc04" stroke-linecap="butt" clip-path="url(#a)" d="M286.415 216.11l45.39-49.427 45.39-28.913 45.39-20.514 45.39-15.912 45.39-13.001 45.39-10.992"/><path fill="#4285f4" clip-path="url(#a)" d="M150.245 289.95l4.5 4.5-4.5 4.5-4.5-4.5zM195.635 240.523l4.5 4.5-4.5 4.5-4.5-4.5zM241.025 211.61l4.5 4.5-4.5 4.5-4.5-4.5zM286.415 191.096l4.5 4.5-4.5 4.5-4.5-4.5zM331.805 175.184l4.5 4.5-4.5 4.5-4.5-4.5zM377.195 162.183l4.5 4.5-4.5 4.5-4.5-4.5zM422.585 151.19l4.5 4.5-4.5 4.5-4.5-4.5zM467.975 141.669l4.5 4.5-4.5 4.5-4.5-4.5zM513.365 133.27l4.5 4.5-4.5 4.5-4.5-4.5zM558.755 125.757l4.5 4.5-4.5 4.5-4.5-4.5z"/><path fill="none" clip-path="url(#a)" d="M153.245 216.11a3 3 0 11-6 0 3 3 0 016 0zM198.635 166.683a3 3 0 11-6 0 3 3 0 016 0zM244.025 137.77a3 3 0 11-6 0 3 3 0 016 0zM289.415 117.256a3 3 0 11-6 0 3 3 0 016 0zM334.805 101.344a3 3 0 11-6 0 3 3 0 016 0zM380.195 88.343a3 3 0 11-6 0 3 3 0 016 0zM425.585 77.35a3 3 0 11-6 0 3 3 0 016 0zM470.975 67.829a3 3 0 11-6 0 3 3 0 016 0zM516.365 59.43a3 3 0 11-6 0 3 3 0 016 0zM561.755 51.917a3 3 0 11-6 0 3 3 0 016 0z"/><path fill="#fbbc04" clip-path="url(#a)" d="M290.915 216.11a4.5 4.5 0 11-9 0 4.5 4.5 0 019 0zM336.305 166.683a4.5 4.5 0 11-9 0 4.5 4.5 0 019 0zM381.695 137.77a4.5 4.5 0 11-9 0 4.5 4.5 0 019 0zM427.085 117.256a4.5 4.5 0 11-9 0 4.5 4.5 0 019 0zM472.475 101.344a4.5 4.5 0 11-9 0 4.5 4.5 0 019 0zM517.865 88.343a4.5 4.5 0 11-9 0 4.5 4.5 0 019 0zM563.255 77.35a4.5 4.5 0 11-9 0 4.5 4.5 0 019 0z"/><path stroke="#000" stroke-linecap="butt" d="M150.5 300.5v-12M195.5 300.5v-12M241.5 300.5v-12M286.5 300.5v-12M331.5 300.5v-12M377.5 300.5v-12M422.5 300.5v-12M467.5 300.5v-12M513.5 300.5v-12M558.5 300.5v-12"/><path fill="#000" d="M340.484 349.45l3.297-8.594H345l3.516 8.594h-1.282l-1.015-2.61h-3.578l-.954 2.61h-1.203zm2.485-3.531h2.906l-.89-2.375q-.423-1.078-.61-1.781-.172.828-.469 1.64l-.937 2.516zm5.328 3.531v-6.219h.937v.875q.688-1.015 1.985-1.015.562 0 1.031.203.484.203.719.531.234.328.328.766.047.296.047 1.03v3.829h-1.047v-3.781q0-.656-.125-.969-.125-.313-.438-.5-.312-.203-.734-.203-.672 0-1.172.437-.484.422-.484 1.61v3.406h-1.047zm6.61-3.11q0-1.734.952-2.562.797-.687 1.954-.687 1.28 0 2.093.843.828.828.828 2.313 0 1.203-.359 1.89-.36.688-1.063 1.079-.687.375-1.5.375-1.296 0-2.109-.829-.797-.843-.797-2.421zm1.077 0q0 1.188.516 1.782.531.594 1.313.594.796 0 1.312-.594t.516-1.813q0-1.156-.532-1.75-.515-.593-1.296-.593-.782 0-1.313.593-.516.578-.516 1.782zm5.891 1.25l1.031-.156q.094.625.485.953.406.329 1.14.329.719 0 1.063-.282.36-.297.36-.703 0-.36-.313-.562-.22-.14-1.079-.36-1.156-.297-1.609-.5-.437-.218-.672-.593-.234-.375-.234-.844 0-.406.187-.766.188-.36.516-.594.25-.171.672-.296.422-.125.922-.125.719 0 1.265.218.563.203.829.563.265.36.359.953l-1.031.14q-.063-.468-.407-.734-.328-.281-.953-.281-.719 0-1.031.25-.313.234-.313.563 0 .203.125.359.141.172.407.281.156.063.937.266 1.125.312 1.563.5.437.187.687.547.25.359.25.906 0 .531-.312 1-.297.453-.875.719-.578.25-1.313.25-1.219 0-1.86-.5-.624-.516-.796-1.5zM29.55 225.808l-8.594 3.328v-1.234l6.25-2.234q.75-.266 1.407-.453-.704-.204-1.407-.47l-6.25-2.312v-1.156l8.594 3.36v1.171zm-.766-8.484q.5.594.704 1.14.203.532.203 1.157 0 1.031-.5 1.578-.5.547-1.282.547-.453 0-.828-.203-.39-.203-.61-.547-.233-.344-.343-.766-.094-.297-.172-.937-.14-1.266-.36-1.875h-.265q-.656 0-.922.297-.343.406-.343 1.203 0 .734.265 1.093.25.36.907.532l-.141 1.031q-.656-.14-1.063-.469-.406-.328-.625-.937-.218-.61-.218-1.407 0-.796.187-1.296.188-.5.469-.735.281-.234.719-.328.265-.047.968-.047h1.407q1.468 0 1.859-.062.39-.078.75-.282v1.11q-.328.156-.766.203zm-2.359.094q.234.578.406 1.718.094.657.219.922.11.266.328.422.219.14.5.14.422 0 .703-.312.282-.328.282-.937 0-.61-.266-1.078-.266-.485-.734-.703-.36-.172-1.047-.172h-.391zm3.125-3h-8.594v-1.063h8.594v1.063zm-3.11-2.64q-1.734 0-2.562-.954-.687-.797-.687-1.953 0-1.281.843-2.094.829-.828 2.313-.828 1.203 0 1.89.36.688.359 1.079 1.062.375.687.375 1.5 0 1.297-.828 2.11-.844.796-2.422.796zm0-1.079q1.188 0 1.782-.516.594-.53.594-1.312 0-.797-.594-1.313-.594-.515-1.813-.515-1.156 0-1.75.531-.593.516-.593 1.297 0 .781.593 1.312.579.516 1.782.516zm3.11-6.297h-6.219v-.953h.938q-.656-.36-.86-.656-.218-.313-.218-.688 0-.531.328-1.078l.984.36q-.234.39-.234.765 0 .36.219.64.203.266.578.376.562.187 1.218.187h3.266v1.047zm0-6.203l-8.594-3.297v-1.219l8.594-3.515v1.281l-2.61 1.016v3.578l2.61.953v1.203zm-3.531-2.484v-2.907l-2.375.891q-1.078.422-1.781.61.828.171 1.64.468l2.516.938zm1.25-9.391l.14-1.031q1.063.172 1.672.875.61.703.61 1.718 0 1.282-.828 2.063-.844.766-2.407.766-1 0-1.75-.329-.765-.343-1.14-1.015-.375-.688-.375-1.5 0-1 .515-1.64.5-.657 1.453-.845l.157 1.032q-.625.14-.938.515-.328.375-.328.907 0 .796.578 1.296.563.5 1.797.5 1.266 0 1.828-.484.563-.484.563-1.25 0-.625-.375-1.031-.375-.422-1.172-.547zm2.281-6.016h-.922q1.063.735 1.063 1.985 0 .547-.203 1.031-.22.469-.532.703-.328.234-.797.328-.296.063-.984.063h-3.844v-1.063h3.453q.813 0 1.11-.062.406-.094.656-.407.234-.328.234-.812 0-.469-.234-.875-.25-.422-.672-.594-.422-.187-1.219-.187h-3.328v-1.047h6.219v.937zm0-2.922h-6.219v-.937h.875q-.468-.297-.734-.781-.281-.485-.281-1.11 0-.687.28-1.125.282-.453.798-.625-1.078-.75-1.078-1.922 0-.937.515-1.421.5-.5 1.578-.5h4.266v1.046h-3.922q-.625 0-.906.11-.281.094-.453.36-.172.265-.172.64 0 .656.437 1.094.438.421 1.407.421h3.609v1.063h-4.047q-.703 0-1.047.266-.36.25-.36.828 0 .453.235.828.235.375.688.547.453.172 1.297.172h3.234v1.046zm0-15.078h-.922q1.063.735 1.063 1.985 0 .547-.203 1.031-.22.469-.532.703-.328.234-.797.328-.296.063-.984.063h-3.844v-1.063h3.453q.813 0 1.11-.062.406-.094.656-.407.234-.328.234-.812 0-.469-.234-.875-.25-.422-.672-.594-.422-.187-1.219-.187h-3.328v-1.047h6.219v.937zm0-2.89h-8.594v-1.063h8.594v1.063zm-.766-7.094q.5.594.704 1.14.203.532.203 1.157 0 1.031-.5 1.578-.5.547-1.282.547-.453 0-.828-.203-.39-.203-.61-.547-.233-.344-.343-.766-.094-.297-.172-.937-.14-1.266-.36-1.875h-.265q-.656 0-.922.297-.343.406-.343 1.203 0 .734.265 1.093.25.36.907.532l-.141 1.031q-.656-.14-1.063-.469-.406-.328-.625-.937-.218-.61-.218-1.407 0-.796.187-1.296.188-.5.469-.735.281-.234.719-.328.265-.047.968-.047h1.407q1.468 0 1.859-.062.39-.078.75-.282v1.11q-.328.156-.766.203zm-2.359.094q.234.578.406 1.718.094.657.219.922.11.266.328.422.219.14.5.14.422 0 .703-.312.282-.328.282-.937 0-.61-.266-1.078-.266-.485-.734-.703-.36-.172-1.047-.172h-.391zm3.125-7.063h-.781q.922.594.922 1.735 0 .75-.407 1.375-.421.625-1.156.968-.734.344-1.687.344-.922 0-1.688-.312-.765-.313-1.156-.938-.406-.625-.406-1.39 0-.563.234-1 .234-.438.61-.72h-3.079v-1.046h8.594v.984zm-3.11 3.328q1.204 0 1.798-.5.578-.5.578-1.187 0-.688-.563-1.172-.562-.484-1.719-.484-1.28 0-1.875.5-.593.484-.593 1.203 0 .703.578 1.172.562.468 1.797.468zm0-5.906q-1.734 0-2.562-.953-.687-.797-.687-1.953 0-1.281.843-2.094.829-.828 2.313-.828 1.203 0 1.89.36.688.359 1.079 1.062.375.687.375 1.5 0 1.297-.828 2.11-.844.796-2.422.796zm0-1.078q1.188 0 1.782-.516.594-.53.594-1.312 0-.797-.594-1.313-.594-.515-1.813-.515-1.156 0-1.75.531-.593.516-.593 1.297 0 .781.593 1.312.579.516 1.782.516zM61.425 262.024v-2.063h-3.719v-.968l3.922-5.563h.86v5.563h1.156v.968h-1.157v2.063h-1.062zm0-3.031v-3.86l-2.688 3.86h2.688zm6.625-1.203q0-1.532.313-2.454.312-.937.921-1.437.625-.5 1.563-.5.687 0 1.203.281.531.281.875.813.344.515.531 1.265.188.75.188 2.032 0 1.515-.313 2.437-.297.922-.922 1.438-.609.5-1.562.5-1.234 0-1.953-.891-.844-1.063-.844-3.484zm1.078 0q0 2.109.5 2.812.5.703 1.219.703.734 0 1.219-.703.5-.703.5-2.812 0-2.125-.5-2.813-.485-.703-1.235-.703-.719 0-1.156.61-.547.78-.547 2.906zm5.922 0q0-1.532.313-2.454.312-.937.921-1.437.625-.5 1.563-.5.687 0 1.203.281.531.281.875.813.344.515.531 1.265.188.75.188 2.032 0 1.515-.313 2.437-.297.922-.922 1.438-.609.5-1.562.5-1.234 0-1.953-.891-.844-1.063-.844-3.484zm1.078 0q0 2.109.5 2.812.5.703 1.219.703.734 0 1.219-.703.5-.703.5-2.812 0-2.125-.5-2.813-.485-.703-1.235-.703-.719 0-1.156.61-.547.78-.547 2.906zm5.922 0q0-1.532.313-2.454.312-.937.921-1.437.625-.5 1.563-.5.687 0 1.203.281.531.281.875.813.344.515.531 1.265.188.75.188 2.032 0 1.515-.313 2.437-.297.922-.922 1.438-.609.5-1.562.5-1.234 0-1.953-.891-.844-1.063-.844-3.484zm1.078 0q0 2.109.5 2.812.5.703 1.219.703.734 0 1.219-.703.5-.703.5-2.812 0-2.125-.5-2.813-.485-.703-1.235-.703-.719 0-1.156.61-.547.78-.547 2.906zm6.484 4.234v-1.203h1.204v1.203q0 .656-.235 1.062-.234.422-.734.641l-.297-.453q.328-.14.484-.438.157-.28.188-.812h-.61zm2.438-4.234q0-1.532.313-2.454.312-.937.921-1.437.625-.5 1.563-.5.687 0 1.203.281.531.281.875.813.344.515.531 1.265.188.75.188 2.032 0 1.515-.313 2.437-.297.922-.922 1.438-.609.5-1.562.5-1.234 0-1.953-.891-.844-1.063-.844-3.484zm1.078 0q0 2.109.5 2.812.5.703 1.219.703.734 0 1.219-.703.5-.703.5-2.812 0-2.125-.5-2.813-.485-.703-1.235-.703-.719 0-1.156.61-.547.78-.547 2.906zm5.922 0q0-1.532.313-2.454.312-.937.921-1.437.625-.5 1.563-.5.687 0 1.203.281.531.281.875.813.344.515.531 1.265.188.75.188 2.032 0 1.515-.313 2.437-.297.922-.922 1.438-.609.5-1.562.5-1.234 0-1.953-.891-.844-1.063-.844-3.484zm1.078 0q0 2.109.5 2.812.5.703 1.219.703.734 0 1.219-.703.5-.703.5-2.812 0-2.125-.5-2.813-.485-.703-1.235-.703-.719 0-1.156.61-.547.78-.547 2.906zm13.047-3.532q-.984 0-1.64.469-.407.281-.735.797-.328.547-.375 1.016h3.984l-.156.796h-3.922q-.015.11-.015.235 0 .437.015.531h3.766l-.156.781h-3.485q.235 1.344 1.172 1.907.672.406 1.469.406 1.094 0 1.703-.578v1.218q-.734.329-1.61.329-2.656 0-3.578-2.204-.187-.437-.328-1.078h-.906l.172-.78h.61q-.016-.25-.016-.532 0-.125.015-.235h-.78l.171-.796h.688q.359-1.907 1.89-2.735.938-.515 2.078-.515 1.094 0 1.828.468l-.234 1.094q-.719-.594-1.625-.594zM63.519 226.627l-1.047.078q-.14-.625-.39-.907-.438-.453-1.063-.453-.5 0-.89.282-.485.375-.782 1.078-.281.687-.297 1.968.375-.578.922-.859.562-.281 1.172-.281 1.047 0 1.781.781.75.781.75 2 0 .813-.36 1.516-.343.687-.953 1.062-.609.36-1.375.36-1.328 0-2.156-.97-.828-.968-.828-3.187 0-2.5.922-3.625.797-.984 2.156-.984 1.016 0 1.656.578.657.563.782 1.563zm-4.297 3.703q0 .547.219 1.047.234.484.64.75.422.265.89.265.657 0 1.142-.531.484-.547.484-1.469 0-.89-.485-1.406-.468-.516-1.187-.516-.719 0-1.219.516-.484.516-.484 1.344zm8.828-1.453q0-1.532.313-2.454.312-.937.921-1.437.625-.5 1.563-.5.687 0 1.203.281.531.281.875.813.344.515.531 1.265.188.75.188 2.032 0 1.515-.313 2.437-.297.922-.922 1.438-.609.5-1.562.5-1.234 0-1.953-.891-.844-1.063-.844-3.484zm1.078 0q0 2.109.5 2.812.5.703 1.219.703.734 0 1.219-.703.5-.703.5-2.812 0-2.125-.5-2.813-.485-.703-1.235-.703-.719 0-1.156.61-.547.78-.547 2.906zm5.922 0q0-1.532.313-2.454.312-.937.921-1.437.625-.5 1.563-.5.687 0 1.203.281.531.281.875.813.344.515.531 1.265.188.75.188 2.032 0 1.515-.313 2.437-.297.922-.922 1.438-.609.5-1.562.5-1.234 0-1.953-.891-.844-1.063-.844-3.484zm1.078 0q0 2.109.5 2.812.5.703 1.219.703.734 0 1.219-.703.5-.703.5-2.812 0-2.125-.5-2.813-.485-.703-1.235-.703-.719 0-1.156.61-.547.78-.547 2.906zm5.922 0q0-1.532.313-2.454.312-.937.921-1.437.625-.5 1.563-.5.687 0 1.203.281.531.281.875.813.344.515.531 1.265.188.75.188 2.032 0 1.515-.313 2.437-.297.922-.922 1.438-.609.5-1.562.5-1.234 0-1.953-.891-.844-1.063-.844-3.484zm1.078 0q0 2.109.5 2.812.5.703 1.219.703.734 0 1.219-.703.5-.703.5-2.812 0-2.125-.5-2.813-.485-.703-1.235-.703-.719 0-1.156.61-.547.78-.547 2.906zm6.484 4.234v-1.203h1.204v1.203q0 .656-.235 1.062-.234.422-.734.641l-.297-.453q.328-.14.484-.438.157-.28.188-.812h-.61zm2.438-4.234q0-1.532.313-2.454.312-.937.921-1.437.625-.5 1.563-.5.687 0 1.203.281.531.281.875.813.344.515.531 1.265.188.75.188 2.032 0 1.515-.313 2.437-.297.922-.922 1.438-.609.5-1.562.5-1.234 0-1.953-.891-.844-1.063-.844-3.484zm1.078 0q0 2.109.5 2.812.5.703 1.219.703.734 0 1.219-.703.5-.703.5-2.812 0-2.125-.5-2.813-.485-.703-1.235-.703-.719 0-1.156.61-.547.78-.547 2.906zm5.922 0q0-1.532.313-2.454.312-.937.921-1.437.625-.5 1.563-.5.687 0 1.203.281.531.281.875.813.344.515.531 1.265.188.75.188 2.032 0 1.515-.313 2.437-.297.922-.922 1.438-.609.5-1.562.5-1.234 0-1.953-.891-.844-1.063-.844-3.484zm1.078 0q0 2.109.5 2.812.5.703 1.219.703.734 0 1.219-.703.5-.703.5-2.812 0-2.125-.5-2.813-.485-.703-1.235-.703-.719 0-1.156.61-.547.78-.547 2.906zm13.047-3.532q-.984 0-1.64.47-.407.28-.735.796-.328.547-.375 1.016h3.984l-.156.796h-3.922q-.015.11-.015.235 0 .437.015.531h3.766l-.156.781h-3.485q.235 1.344 1.172 1.907.672.406 1.469.406 1.094 0 1.703-.578v1.218q-.734.329-1.61.329-2.656 0-3.578-2.204-.187-.437-.328-1.078h-.906l.172-.78h.61q-.016-.25-.016-.532 0-.125.015-.235h-.78l.171-.796h.688q.359-1.907 1.89-2.735.938-.515 2.078-.515 1.094 0 1.828.468l-.234 1.094q-.719-.594-1.625-.594zM59.675 207.94q-.656-.25-.984-.687-.313-.453-.313-1.062 0-.938.672-1.579.688-.64 1.797-.64 1.125 0 1.812.656.688.656.688 1.594 0 .594-.313 1.031-.312.438-.953.688.797.25 1.203.828.407.578.407 1.375 0 1.093-.782 1.843-.765.75-2.047.75-1.265 0-2.046-.75-.782-.75-.782-1.875 0-.843.422-1.406.438-.562 1.219-.765zm-.219-1.796q0 .61.39 1 .407.39 1.032.39.61 0 1-.375.39-.39.39-.953 0-.578-.406-.969-.406-.406-1-.406-.609 0-1.015.39-.39.391-.39.923zm-.328 3.968q0 .454.203.875.219.422.64.657.423.234.907.234.75 0 1.234-.484.5-.485.5-1.235 0-.765-.5-1.265-.5-.5-1.265-.5-.75 0-1.235.5-.484.484-.484 1.218zm8.922-1.75q0-1.53.313-2.453.312-.937.921-1.437.625-.5 1.563-.5.687 0 1.203.281.531.281.875.813.344.515.531 1.265.188.75.188 2.031 0 1.516-.313 2.438-.297.922-.922 1.437-.609.5-1.562.5-1.234 0-1.953-.89-.844-1.063-.844-3.485zm1.078 0q0 2.11.5 2.813.5.703 1.219.703.734 0 1.219-.703.5-.703.5-2.813 0-2.125-.5-2.812-.485-.703-1.235-.703-.719 0-1.156.61-.547.78-.547 2.905zm5.922 0q0-1.53.313-2.453.312-.937.921-1.437.625-.5 1.563-.5.687 0 1.203.281.531.281.875.813.344.515.531 1.265.188.75.188 2.031 0 1.516-.313 2.438-.297.922-.922 1.437-.609.5-1.562.5-1.234 0-1.953-.89-.844-1.063-.844-3.485zm1.078 0q0 2.11.5 2.813.5.703 1.219.703.734 0 1.219-.703.5-.703.5-2.813 0-2.125-.5-2.812-.485-.703-1.235-.703-.719 0-1.156.61-.547.78-.547 2.905zm5.922 0q0-1.53.313-2.453.312-.937.921-1.437.625-.5 1.563-.5.687 0 1.203.281.531.281.875.813.344.515.531 1.265.188.75.188 2.031 0 1.516-.313 2.438-.297.922-.922 1.437-.609.5-1.562.5-1.234 0-1.953-.89-.844-1.063-.844-3.485zm1.078 0q0 2.11.5 2.813.5.703 1.219.703.734 0 1.219-.703.5-.703.5-2.813 0-2.125-.5-2.812-.485-.703-1.235-.703-.719 0-1.156.61-.547.78-.547 2.905zm6.484 4.235v-1.203h1.204v1.203q0 .656-.235 1.062-.234.422-.734.641l-.297-.453q.328-.14.484-.438.157-.28.188-.812h-.61zm2.438-4.235q0-1.53.313-2.453.312-.937.921-1.437.625-.5 1.563-.5.687 0 1.203.281.531.281.875.813.344.515.531 1.265.188.75.188 2.031 0 1.516-.313 2.438-.297.922-.922 1.437-.609.5-1.562.5-1.234 0-1.953-.89-.844-1.063-.844-3.485zm1.078 0q0 2.11.5 2.813.5.703 1.219.703.734 0 1.219-.703.5-.703.5-2.813 0-2.125-.5-2.812-.485-.703-1.235-.703-.719 0-1.156.61-.547.78-.547 2.905zm5.922 0q0-1.53.313-2.453.312-.937.921-1.437.625-.5 1.563-.5.687 0 1.203.281.531.281.875.813.344.515.531 1.265.188.75.188 2.031 0 1.516-.313 2.438-.297.922-.922 1.437-.609.5-1.562.5-1.234 0-1.953-.89-.844-1.063-.844-3.485zm1.078 0q0 2.11.5 2.813.5.703 1.219.703.734 0 1.219-.703.5-.703.5-2.813 0-2.125-.5-2.812-.485-.703-1.235-.703-.719 0-1.156.61-.547.78-.547 2.905zm13.047-3.53q-.984 0-1.64.468-.407.281-.735.797-.328.547-.375 1.015h3.984l-.156.797h-3.922q-.015.11-.015.235 0 .437.015.531h3.766l-.156.781h-3.485q.235 1.344 1.172 1.906.672.407 1.469.407 1.094 0 1.703-.578v1.218q-.734.328-1.61.328-2.656 0-3.578-2.203-.187-.437-.328-1.078h-.906l.172-.781h.61q-.016-.25-.016-.531 0-.125.015-.235h-.78l.171-.797h.688q.359-1.906 1.89-2.734.938-.516 2.078-.516 1.094 0 1.828.47l-.234 1.093q-.719-.594-1.625-.594zM55.019 196.685h-1.047v-6.719q-.39.36-1.016.734-.61.36-1.094.532v-1.016q.875-.422 1.532-1 .672-.594.953-1.156h.672v8.625zm3.031-4.234q0-1.532.313-2.454.312-.937.921-1.437.625-.5 1.563-.5.687 0 1.203.281.531.281.875.813.344.515.531 1.265.188.75.188 2.031 0 1.516-.313 2.438-.297.922-.922 1.438-.609.5-1.562.5-1.235 0-1.953-.891-.844-1.063-.844-3.484zm1.078 0q0 2.109.5 2.812.5.703 1.219.703.734 0 1.219-.703.5-.703.5-2.813 0-2.124-.5-2.812-.485-.703-1.235-.703-.719 0-1.156.61-.547.78-.547 2.906zm8.922 0q0-1.532.313-2.454.312-.937.921-1.437.625-.5 1.563-.5.687 0 1.203.281.531.281.875.813.344.515.531 1.265.188.75.188 2.031 0 1.516-.313 2.438-.297.922-.922 1.438-.609.5-1.562.5-1.234 0-1.953-.891-.844-1.063-.844-3.484zm1.078 0q0 2.109.5 2.812.5.703 1.219.703.734 0 1.219-.703.5-.703.5-2.813 0-2.124-.5-2.812-.485-.703-1.235-.703-.719 0-1.156.61-.547.78-.547 2.906zm5.922 0q0-1.532.313-2.454.312-.937.921-1.437.625-.5 1.563-.5.687 0 1.203.281.531.281.875.813.344.515.531 1.265.188.75.188 2.031 0 1.516-.313 2.438-.297.922-.922 1.438-.609.5-1.562.5-1.234 0-1.953-.891-.844-1.063-.844-3.484zm1.078 0q0 2.109.5 2.812.5.703 1.219.703.734 0 1.219-.703.5-.703.5-2.813 0-2.124-.5-2.812-.485-.703-1.235-.703-.719 0-1.156.61-.547.78-.547 2.906zm5.922 0q0-1.532.313-2.454.312-.937.921-1.437.625-.5 1.563-.5.687 0 1.203.281.531.281.875.813.344.515.531 1.265.188.75.188 2.031 0 1.516-.313 2.438-.297.922-.922 1.438-.609.5-1.562.5-1.234 0-1.953-.891-.844-1.063-.844-3.484zm1.078 0q0 2.109.5 2.812.5.703 1.219.703.734 0 1.219-.703.5-.703.5-2.813 0-2.124-.5-2.812-.485-.703-1.235-.703-.719 0-1.156.61-.547.78-.547 2.906zm6.484 4.234v-1.203h1.204v1.203q0 .656-.235 1.062-.234.422-.734.641l-.297-.453q.328-.14.484-.438.157-.28.188-.812h-.61zm2.438-4.234q0-1.532.313-2.454.312-.937.921-1.437.625-.5 1.563-.5.687 0 1.203.281.531.281.875.813.344.515.531 1.265.188.75.188 2.031 0 1.516-.313 2.438-.297.922-.922 1.438-.609.5-1.562.5-1.234 0-1.953-.891-.844-1.063-.844-3.484zm1.078 0q0 2.109.5 2.812.5.703 1.219.703.734 0 1.219-.703.5-.703.5-2.813 0-2.124-.5-2.812-.485-.703-1.235-.703-.719 0-1.156.61-.547.78-.547 2.906zm5.922 0q0-1.532.313-2.454.312-.937.921-1.437.625-.5 1.563-.5.687 0 1.203.281.531.281.875.813.344.515.531 1.265.188.75.188 2.031 0 1.516-.313 2.438-.297.922-.922 1.438-.609.5-1.562.5-1.234 0-1.953-.891-.844-1.063-.844-3.484zm1.078 0q0 2.109.5 2.812.5.703 1.219.703.734 0 1.219-.703.5-.703.5-2.813 0-2.124-.5-2.812-.485-.703-1.235-.703-.719 0-1.156.61-.547.78-.547 2.906zm13.047-3.532q-.984 0-1.64.469-.407.281-.735.797-.328.547-.375 1.016h3.984l-.156.796h-3.922q-.015.11-.015.235 0 .437.015.531h3.766l-.156.781h-3.485q.235 1.344 1.172 1.906.672.407 1.469.407 1.094 0 1.703-.578v1.218q-.734.328-1.61.328-2.656 0-3.578-2.203-.187-.437-.328-1.078h-.906l.172-.781h.61q-.016-.25-.016-.531 0-.125.015-.235h-.78l.171-.797h.688q.359-1.906 1.89-2.734.938-.516 2.078-.516 1.094 0 1.828.47l-.234 1.093q-.719-.594-1.625-.594zM56.597 146.242v1.016h-5.688q0-.375.125-.735.22-.578.688-1.14.484-.563 1.39-1.297 1.407-1.156 1.891-1.828.5-.672.5-1.266 0-.625-.453-1.047-.453-.437-1.172-.437-.766 0-1.219.453-.453.453-.468 1.266l-1.079-.11q.11-1.219.829-1.844.734-.64 1.968-.64 1.235 0 1.953.687.72.688.72 1.703 0 .516-.22 1.016-.203.484-.703 1.047-.484.547-1.609 1.5-.953.797-1.234 1.094-.266.28-.438.562h4.219zm1.453-3.219q0-1.53.313-2.453.312-.937.921-1.437.625-.5 1.563-.5.687 0 1.203.281.531.281.875.813.344.515.531 1.265.188.75.188 2.031 0 1.516-.313 2.438-.297.922-.922 1.437-.609.5-1.562.5-1.235 0-1.953-.89-.844-1.063-.844-3.485zm1.078 0q0 2.11.5 2.813.5.703 1.219.703.734 0 1.219-.703.5-.703.5-2.813 0-2.125-.5-2.812-.485-.703-1.235-.703-.719 0-1.156.61-.547.78-.547 2.905zm8.922 0q0-1.53.313-2.453.312-.937.921-1.437.625-.5 1.563-.5.687 0 1.203.281.531.281.875.813.344.515.531 1.265.188.75.188 2.031 0 1.516-.313 2.438-.297.922-.922 1.437-.609.5-1.562.5-1.234 0-1.953-.89-.844-1.063-.844-3.485zm1.078 0q0 2.11.5 2.813.5.703 1.219.703.734 0 1.219-.703.5-.703.5-2.813 0-2.125-.5-2.812-.485-.703-1.235-.703-.719 0-1.156.61-.547.78-.547 2.905zm5.922 0q0-1.53.313-2.453.312-.937.921-1.437.625-.5 1.563-.5.687 0 1.203.281.531.281.875.813.344.515.531 1.265.188.75.188 2.031 0 1.516-.313 2.438-.297.922-.922 1.437-.609.5-1.562.5-1.234 0-1.953-.89-.844-1.063-.844-3.485zm1.078 0q0 2.11.5 2.813.5.703 1.219.703.734 0 1.219-.703.5-.703.5-2.813 0-2.125-.5-2.812-.485-.703-1.235-.703-.719 0-1.156.61-.547.78-.547 2.905zm5.922 0q0-1.53.313-2.453.312-.937.921-1.437.625-.5 1.563-.5.687 0 1.203.281.531.281.875.813.344.515.531 1.265.188.75.188 2.031 0 1.516-.313 2.438-.297.922-.922 1.437-.609.5-1.562.5-1.234 0-1.953-.89-.844-1.063-.844-3.485zm1.078 0q0 2.11.5 2.813.5.703 1.219.703.734 0 1.219-.703.5-.703.5-2.813 0-2.125-.5-2.812-.485-.703-1.235-.703-.719 0-1.156.61-.547.78-.547 2.905zm6.484 4.235v-1.203h1.204v1.203q0 .656-.235 1.062-.234.422-.734.64l-.297-.452q.328-.14.484-.438.157-.281.188-.812h-.61zm2.438-4.235q0-1.53.313-2.453.312-.937.921-1.437.625-.5 1.563-.5.687 0 1.203.281.531.281.875.813.344.515.531 1.265.188.75.188 2.031 0 1.516-.313 2.438-.297.922-.922 1.437-.609.5-1.562.5-1.234 0-1.953-.89-.844-1.063-.844-3.485zm1.078 0q0 2.11.5 2.813.5.703 1.219.703.734 0 1.219-.703.5-.703.5-2.813 0-2.125-.5-2.812-.485-.703-1.235-.703-.719 0-1.156.61-.547.78-.547 2.905zm5.922 0q0-1.53.313-2.453.312-.937.921-1.437.625-.5 1.563-.5.687 0 1.203.281.531.281.875.813.344.515.531 1.265.188.75.188 2.031 0 1.516-.313 2.438-.297.922-.922 1.437-.609.5-1.562.5-1.234 0-1.953-.89-.844-1.063-.844-3.485zm1.078 0q0 2.11.5 2.813.5.703 1.219.703.734 0 1.219-.703.5-.703.5-2.813 0-2.125-.5-2.812-.485-.703-1.235-.703-.719 0-1.156.61-.547.78-.547 2.905zm13.047-3.53q-.984 0-1.64.468-.407.281-.735.797-.328.547-.375 1.015h3.984l-.156.797h-3.922q-.015.11-.015.235 0 .437.015.53h3.766l-.156.782h-3.485q.235 1.344 1.172 1.906.672.407 1.469.407 1.094 0 1.703-.578v1.218q-.734.328-1.61.328-2.656 0-3.578-2.203-.187-.437-.328-1.078h-.906l.172-.781h.61q-.016-.25-.016-.531 0-.125.015-.235h-.78l.171-.797h.688q.359-1.906 1.89-2.734.938-.516 2.078-.516 1.094 0 1.828.47l-.234 1.093q-.719-.594-1.625-.594zM54.425 97.83v-2.062h-3.719V94.8l3.922-5.562h.86v5.562h1.156v.97h-1.157v2.062h-1.062zm0-3.03v-3.86l-2.688 3.86h2.688zm3.625-1.204q0-1.53.313-2.453.312-.937.921-1.437.625-.5 1.563-.5.687 0 1.203.28.531.282.875.813.344.516.531 1.266.188.75.188 2.031 0 1.516-.313 2.438-.297.922-.922 1.437-.609.5-1.562.5-1.235 0-1.953-.89-.844-1.063-.844-3.485zm1.078 0q0 2.11.5 2.813.5.703 1.219.703.734 0 1.219-.703.5-.703.5-2.813 0-2.125-.5-2.812-.485-.703-1.235-.703-.719 0-1.156.61-.547.78-.547 2.905zm8.922 0q0-1.53.313-2.453.312-.937.921-1.437.625-.5 1.563-.5.687 0 1.203.28.531.282.875.813.344.516.531 1.266.188.75.188 2.031 0 1.516-.313 2.438-.297.922-.922 1.437-.609.5-1.562.5-1.234 0-1.953-.89-.844-1.063-.844-3.485zm1.078 0q0 2.11.5 2.813.5.703 1.219.703.734 0 1.219-.703.5-.703.5-2.813 0-2.125-.5-2.812-.485-.703-1.235-.703-.719 0-1.156.61-.547.78-.547 2.905zm5.922 0q0-1.53.313-2.453.312-.937.921-1.437.625-.5 1.563-.5.687 0 1.203.28.531.282.875.813.344.516.531 1.266.188.75.188 2.031 0 1.516-.313 2.438-.297.922-.922 1.437-.609.5-1.562.5-1.234 0-1.953-.89-.844-1.063-.844-3.485zm1.078 0q0 2.11.5 2.813.5.703 1.219.703.734 0 1.219-.703.5-.703.5-2.813 0-2.125-.5-2.812-.485-.703-1.235-.703-.719 0-1.156.61-.547.78-.547 2.905zm5.922 0q0-1.53.313-2.453.312-.937.921-1.437.625-.5 1.563-.5.687 0 1.203.28.531.282.875.813.344.516.531 1.266.188.75.188 2.031 0 1.516-.313 2.438-.297.922-.922 1.437-.609.5-1.562.5-1.234 0-1.953-.89-.844-1.063-.844-3.485zm1.078 0q0 2.11.5 2.813.5.703 1.219.703.734 0 1.219-.703.5-.703.5-2.813 0-2.125-.5-2.812-.485-.703-1.235-.703-.719 0-1.156.61-.547.78-.547 2.905zm6.484 4.235v-1.203h1.204v1.203q0 .656-.235 1.062-.234.422-.734.64l-.297-.452q.328-.14.484-.438.157-.281.188-.812h-.61zm2.438-4.235q0-1.53.313-2.453.312-.937.921-1.437.625-.5 1.563-.5.687 0 1.203.28.531.282.875.813.344.516.531 1.266.188.75.188 2.031 0 1.516-.313 2.438-.297.922-.922 1.437-.609.5-1.562.5-1.234 0-1.953-.89-.844-1.063-.844-3.485zm1.078 0q0 2.11.5 2.813.5.703 1.219.703.734 0 1.219-.703.5-.703.5-2.813 0-2.125-.5-2.812-.485-.703-1.235-.703-.719 0-1.156.61-.547.78-.547 2.905zm5.922 0q0-1.53.313-2.453.312-.937.921-1.437.625-.5 1.563-.5.687 0 1.203.28.531.282.875.813.344.516.531 1.266.188.75.188 2.031 0 1.516-.313 2.438-.297.922-.922 1.437-.609.5-1.562.5-1.234 0-1.953-.89-.844-1.063-.844-3.485zm1.078 0q0 2.11.5 2.813.5.703 1.219.703.734 0 1.219-.703.5-.703.5-2.813 0-2.125-.5-2.812-.485-.703-1.235-.703-.719 0-1.156.61-.547.78-.547 2.905zm13.047-3.53q-.984 0-1.64.468-.407.281-.735.797-.328.547-.375 1.015h3.984l-.156.797h-3.922q-.015.11-.015.235 0 .437.015.53h3.766l-.156.782h-3.485q.235 1.344 1.172 1.906.672.407 1.469.407 1.094 0 1.703-.579v1.22q-.734.327-1.61.327-2.656 0-3.578-2.203-.187-.437-.328-1.078h-.906l.172-.781h.61q-.016-.25-.016-.531 0-.125.015-.235h-.78l.171-.797h.688q.359-1.906 1.89-2.734.938-.516 2.078-.516 1.094 0 1.828.47l-.234 1.093q-.719-.594-1.625-.594zM56.519 62.433l-1.047.078q-.14-.625-.39-.906-.438-.453-1.063-.453-.5 0-.89.281-.485.375-.782 1.078-.281.688-.297 1.97.375-.579.922-.86.562-.281 1.172-.281 1.047 0 1.781.78.75.782.75 2 0 .813-.36 1.516-.343.688-.953 1.063-.609.36-1.375.36-1.328 0-2.156-.97-.828-.968-.828-3.187 0-2.5.922-3.625.797-.984 2.156-.984 1.016 0 1.656.578.657.562.782 1.562zm-4.297 3.703q0 .547.219 1.047.234.485.64.75.422.266.89.266.657 0 1.142-.531.484-.547.484-1.47 0-.89-.485-1.405-.468-.516-1.187-.516-.719 0-1.219.516-.484.515-.484 1.343zm5.828-1.453q0-1.53.313-2.453.312-.937.921-1.437.625-.5 1.563-.5.687 0 1.203.28.531.282.875.813.344.516.531 1.266.188.75.188 2.031 0 1.516-.313 2.438-.297.922-.922 1.437-.609.5-1.562.5-1.235 0-1.953-.89-.844-1.063-.844-3.485zm1.078 0q0 2.11.5 2.813.5.703 1.219.703.734 0 1.219-.703.5-.703.5-2.813 0-2.125-.5-2.812-.485-.703-1.235-.703-.719 0-1.156.61-.547.78-.547 2.905zm8.922 0q0-1.53.313-2.453.312-.937.921-1.437.625-.5 1.563-.5.687 0 1.203.28.531.282.875.813.344.516.531 1.266.188.75.188 2.031 0 1.516-.313 2.438-.297.922-.922 1.437-.609.5-1.562.5-1.234 0-1.953-.89-.844-1.063-.844-3.485zm1.078 0q0 2.11.5 2.813.5.703 1.219.703.734 0 1.219-.703.5-.703.5-2.813 0-2.125-.5-2.812-.485-.703-1.235-.703-.719 0-1.156.61-.547.78-.547 2.905zm5.922 0q0-1.53.313-2.453.312-.937.921-1.437.625-.5 1.563-.5.687 0 1.203.28.531.282.875.813.344.516.531 1.266.188.75.188 2.031 0 1.516-.313 2.438-.297.922-.922 1.437-.609.5-1.562.5-1.234 0-1.953-.89-.844-1.063-.844-3.485zm1.078 0q0 2.11.5 2.813.5.703 1.219.703.734 0 1.219-.703.5-.703.5-2.813 0-2.125-.5-2.812-.485-.703-1.235-.703-.719 0-1.156.61-.547.78-.547 2.905zm5.922 0q0-1.53.313-2.453.312-.937.921-1.437.625-.5 1.563-.5.687 0 1.203.28.531.282.875.813.344.516.531 1.266.188.75.188 2.031 0 1.516-.313 2.438-.297.922-.922 1.437-.609.5-1.562.5-1.234 0-1.953-.89-.844-1.063-.844-3.485zm1.078 0q0 2.11.5 2.813.5.703 1.219.703.734 0 1.219-.703.5-.703.5-2.813 0-2.125-.5-2.812-.485-.703-1.235-.703-.719 0-1.156.61-.547.78-.547 2.905zm6.484 4.235v-1.203h1.204v1.203q0 .656-.235 1.062-.234.422-.734.64l-.297-.452q.328-.14.484-.438.157-.281.188-.812h-.61zm2.438-4.235q0-1.53.313-2.453.312-.937.921-1.437.625-.5 1.563-.5.687 0 1.203.28.531.282.875.813.344.516.531 1.266.188.75.188 2.031 0 1.516-.313 2.438-.297.922-.922 1.437-.609.5-1.562.5-1.234 0-1.953-.89-.844-1.063-.844-3.485zm1.078 0q0 2.11.5 2.813.5.703 1.219.703.734 0 1.219-.703.5-.703.5-2.813 0-2.125-.5-2.812-.485-.703-1.235-.703-.719 0-1.156.61-.547.78-.547 2.905zm5.922 0q0-1.53.313-2.453.312-.937.921-1.437.625-.5 1.563-.5.687 0 1.203.28.531.282.875.813.344.516.531 1.266.188.75.188 2.031 0 1.516-.313 2.438-.297.922-.922 1.437-.609.5-1.562.5-1.234 0-1.953-.89-.844-1.063-.844-3.485zm1.078 0q0 2.11.5 2.813.5.703 1.219.703.734 0 1.219-.703.5-.703.5-2.813 0-2.125-.5-2.812-.485-.703-1.235-.703-.719 0-1.156.61-.547.78-.547 2.905zm13.047-3.53q-.984 0-1.64.468-.407.281-.735.797-.328.547-.375 1.015h3.984l-.156.797h-3.922q-.015.11-.015.235 0 .437.015.53h3.766l-.156.782h-3.485q.235 1.344 1.172 1.906.672.407 1.469.407 1.094 0 1.703-.579v1.22q-.734.327-1.61.327-2.656 0-3.578-2.203-.187-.437-.328-1.078h-.906l.172-.781h.61q-.016-.25-.016-.531 0-.125.015-.235h-.78l.171-.797h.688q.359-1.906 1.89-2.734.938-.516 2.078-.516 1.094 0 1.828.47l-.234 1.093q-.719-.594-1.625-.594zM151.214 317.45h-1.047v-6.719q-.39.36-1.016.735-.61.359-1.094.53v-1.015q.876-.422 1.532-1 .672-.594.953-1.156h.672v8.625zM198.182 316.434v1.016h-5.688q0-.375.125-.734.22-.579.688-1.141.484-.563 1.39-1.297 1.407-1.156 1.891-1.828.5-.672.5-1.266 0-.625-.453-1.047-.453-.437-1.172-.437-.766 0-1.219.453-.453.453-.468 1.266l-1.079-.11q.11-1.218.829-1.843.734-.641 1.968-.641 1.235 0 1.953.688.72.687.72 1.703 0 .515-.22 1.015-.203.485-.703 1.047-.484.547-1.609 1.5-.953.797-1.234 1.094-.266.281-.438.562h4.219zM238.025 315.184l1.063-.14q.171.89.609 1.297.437.39 1.062.39.75 0 1.266-.515.516-.516.516-1.282 0-.718-.485-1.187-.469-.485-1.203-.485-.297 0-.75.125l.125-.937q.11.016.172.016.672 0 1.203-.344.547-.36.547-1.094 0-.578-.39-.953-.391-.39-1.016-.39-.61 0-1.031.39-.407.39-.516 1.156l-1.063-.187q.188-1.047.875-1.625.688-.594 1.704-.594.703 0 1.296.313.594.296.907.812.312.516.312 1.11 0 .546-.297 1.015-.297.453-.875.719.75.172 1.172.734.422.547.422 1.39 0 1.126-.828 1.907-.813.781-2.063.781-1.125 0-1.875-.672-.75-.687-.859-1.75zM286.79 317.45v-2.063h-3.719v-.968l3.922-5.563h.86v5.563h1.156v.969h-1.156v2.062h-1.063zm0-3.031v-3.86l-2.688 3.86h2.688zM328.805 315.2l1.11-.094q.124.813.562 1.219.453.406 1.094.406.75 0 1.28-.578.532-.578.532-1.516 0-.906-.515-1.421-.5-.532-1.329-.532-.5 0-.921.235-.407.234-.641.594l-.984-.125.828-4.407h4.28v1h-3.437l-.453 2.313q.766-.547 1.61-.547 1.125 0 1.89.781.781.781.781 2.016 0 1.156-.671 2.015-.829 1.032-2.25 1.032-1.172 0-1.922-.657-.735-.656-.844-1.734zM379.664 310.966l-1.047.078q-.14-.625-.39-.906-.438-.454-1.063-.454-.5 0-.89.282-.485.375-.782 1.078-.281.687-.297 1.969.375-.579.922-.86.562-.281 1.172-.281 1.047 0 1.781.781.75.781.75 2 0 .813-.36 1.516-.343.687-.952 1.062-.61.36-1.375.36-1.329 0-2.157-.97-.828-.968-.828-3.187 0-2.5.922-3.625.797-.984 2.156-.984 1.016 0 1.656.578.657.563.782 1.563zm-4.297 3.703q0 .547.219 1.047.234.484.64.75.422.265.89.265.657 0 1.142-.531.484-.547.484-1.469 0-.89-.485-1.406-.468-.516-1.187-.516-.719 0-1.219.516-.484.516-.484 1.344zM419.647 309.981v-1.015h5.563v.828q-.813.875-1.625 2.328-.797 1.437-1.234 2.969-.329 1.078-.407 2.359h-1.093q.015-1.016.39-2.453.39-1.438 1.094-2.766.719-1.328 1.531-2.25h-4.219zM466.6 312.794q-.656-.25-.984-.688-.313-.453-.313-1.062 0-.938.672-1.578.688-.641 1.797-.641 1.125 0 1.812.656.688.656.688 1.594 0 .594-.313 1.031-.312.438-.953.688.797.25 1.203.828.407.578.407 1.375 0 1.094-.782 1.844-.765.75-2.046.75-1.266 0-2.047-.75-.782-.75-.782-1.875 0-.844.422-1.407.438-.562 1.219-.765zm-.219-1.797q0 .61.39 1 .407.39 1.032.39.61 0 1-.375.39-.39.39-.953 0-.578-.405-.968-.407-.407-1-.407-.61 0-1.016.391-.39.39-.39.922zm-.328 3.969q0 .453.203.875.219.421.64.656.423.234.907.234.75 0 1.235-.484.5-.485.5-1.235 0-.765-.5-1.265-.5-.5-1.266-.5-.75 0-1.234.5-.485.484-.485 1.219zM510.521 315.466l1.016-.094q.125.719.484 1.047.375.312.938.312.484 0 .844-.219.375-.234.609-.593.234-.375.39-1 .157-.64.157-1.297v-.219q-.313.5-.86.828-.547.313-1.187.313-1.078 0-1.813-.766-.734-.781-.734-2.047 0-1.312.766-2.11.78-.796 1.937-.796.828 0 1.516.453.703.453 1.062 1.297.36.828.36 2.406 0 1.64-.36 2.625-.343.969-1.062 1.485-.703.5-1.64.5-1.016 0-1.657-.547-.64-.563-.766-1.578zm4.313-3.797q0-.906-.485-1.438-.468-.531-1.156-.531-.703 0-1.234.578-.516.563-.516 1.484 0 .813.5 1.329.5.515 1.219.515.734 0 1.203-.515.469-.516.469-1.422zM556.224 317.45h-1.047v-6.719q-.39.36-1.016.735-.61.359-1.093.53v-1.015q.875-.422 1.53-1 .673-.594.954-1.156h.672v8.625zm3.031-4.234q0-1.532.313-2.454.312-.937.921-1.437.625-.5 1.563-.5.687 0 1.203.281.531.281.875.813.344.515.531 1.265.188.75.188 2.032 0 1.515-.313 2.437-.297.922-.922 1.438-.609.5-1.562.5-1.235 0-1.953-.891-.844-1.063-.844-3.484zm1.078 0q0 2.109.5 2.812.5.703 1.219.703.734 0 1.219-.703.5-.703.5-2.812 0-2.125-.5-2.813-.485-.703-1.235-.703-.718 0-1.156.61-.547.78-.547 2.906z"/><path fill="#4285f4" d="M108.5 19.55l6 6-6 6-6-6z"/><path fill="#1a1a1a" d="M123.047 26.784l1.062-.093q.079.656.36 1.062.281.406.86.672.593.25 1.327.25.64 0 1.14-.188.5-.203.735-.53.25-.345.25-.735 0-.406-.234-.703-.234-.313-.766-.516-.36-.14-1.547-.422-1.171-.281-1.64-.531-.625-.328-.922-.797-.297-.484-.297-1.078 0-.64.36-1.203.374-.578 1.078-.86.718-.296 1.578-.296.953 0 1.687.312.734.297 1.125.906.39.594.422 1.344l-1.094.078q-.094-.812-.61-1.218-.5-.422-1.484-.422-1.03 0-1.5.375-.468.375-.468.906 0 .469.328.765.328.297 1.703.61 1.39.312 1.906.547.75.36 1.11.89.359.516.359 1.22 0 .687-.39 1.296-.391.594-1.126.938-.734.328-1.656.328-1.172 0-1.969-.328-.78-.344-1.234-1.032-.438-.687-.453-1.547zm12.312 2q-.593.5-1.14.704-.531.203-1.156.203-1.032 0-1.579-.5-.547-.5-.547-1.282 0-.453.204-.828.203-.39.547-.61.343-.233.765-.343.297-.094.938-.172 1.265-.14 1.875-.36v-.265q0-.656-.297-.922-.406-.343-1.203-.343-.735 0-1.094.265-.36.25-.531.907l-1.032-.141q.141-.656.47-1.063.327-.406.937-.625.609-.218 1.406-.218.797 0 1.297.187.5.188.734.469.234.281.328.719.047.265.047.968v1.407q0 1.468.063 1.859.078.39.28.75h-1.108q-.157-.328-.204-.766zm-.093-2.359q-.578.234-1.72.406-.655.094-.921.219-.266.11-.422.328-.14.219-.14.5 0 .422.312.703.328.282.938.282.609 0 1.078-.266.484-.266.703-.735.172-.359.172-1.046v-.391zm3 3.125v-8.594h1.062v8.594h-1.062zm7.093-.766q-.593.5-1.14.704-.531.203-1.156.203-1.032 0-1.579-.5-.547-.5-.547-1.282 0-.453.204-.828.203-.39.547-.61.343-.233.765-.343.297-.094.938-.172 1.265-.14 1.875-.36v-.265q0-.656-.297-.922-.406-.343-1.203-.343-.735 0-1.094.265-.36.25-.531.907l-1.032-.141q.141-.656.47-1.063.327-.406.937-.625.609-.218 1.406-.218.797 0 1.297.187.5.188.734.469.234.281.328.719.047.265.047.968v1.407q0 1.468.063 1.859.078.39.28.75h-1.108q-.157-.328-.204-.766zm-.093-2.359q-.578.234-1.72.406-.655.094-.921.219-.266.11-.422.328-.14.219-.14.5 0 .422.312.703.328.282.938.282.609 0 1.078-.266.484-.266.703-.735.172-.359.172-1.046v-.391zm-2.063-3.875l.781-1.64h1.391l-1.297 1.64h-.875zm5.078 7v-6.219h.953v.938q.36-.656.657-.86.312-.218.687-.218.531 0 1.078.328l-.36.984q-.39-.234-.765-.234-.36 0-.64.219-.266.203-.375.578-.188.562-.188 1.218v3.266h-1.047zm4.016-7.375v-1.219h1.062v1.219h-1.062zm0 7.375v-6.219h1.062v6.219h-1.062zm2.61-3.11q0-1.734.952-2.562.797-.687 1.953-.687 1.282 0 2.094.843.828.829.828 2.313 0 1.203-.359 1.89-.36.688-1.063 1.079-.687.375-1.5.375-1.296 0-2.109-.828-.797-.844-.797-2.422zm1.077 0q0 1.188.516 1.782.531.594 1.313.594.796 0 1.312-.594t.516-1.813q0-1.156-.532-1.75-.515-.593-1.297-.593-.78 0-1.312.593-.516.579-.516 1.782zm9.407 3.11v-8.594h1.718l2.032 6.078q.28.86.406 1.282.14-.47.453-1.375l2.063-5.985h1.53v8.594H172.5v-7.188L170 29.55h-1.031l-2.485-7.313v7.313h-1.093zm9.265 0v-6.219h1.063v6.219h-1.063zm-.047-7l.782-1.64h1.39l-1.297 1.64h-.875zm2.688 7v-6.219h.937v.875q.688-1.015 1.985-1.015.562 0 1.031.203.484.203.719.531.234.328.328.766.047.297.047 1.03v3.829h-1.047v-3.781q0-.656-.125-.969-.125-.313-.438-.5-.312-.203-.734-.203-.672 0-1.172.437-.484.422-.484 1.61v3.406h-1.047zm7-7.375v-1.219h1.062v1.219h-1.062zm0 7.375v-6.219h1.062v6.219h-1.062zm3 0v-6.219h.937v.875q.297-.468.782-.734.484-.281 1.109-.281.688 0 1.125.28.453.282.625.798.75-1.078 1.922-1.078.937 0 1.422.515.5.5.5 1.578v4.266h-1.047v-3.922q0-.625-.11-.906-.093-.281-.359-.453t-.64-.172q-.657 0-1.094.437-.422.438-.422 1.407v3.609h-1.063v-4.047q0-.703-.265-1.047-.25-.36-.828-.36-.453 0-.828.235-.375.235-.547.688-.172.453-.172 1.297v3.234h-1.047zm10.61-3.11q0-1.734.952-2.562.797-.687 1.953-.687 1.282 0 2.094.843.828.829.828 2.313 0 1.203-.359 1.89-.36.688-1.063 1.079-.687.375-1.5.375-1.296 0-2.109-.828-.797-.844-.797-2.422zm1.077 0q0 1.188.516 1.782.531.594 1.313.594.796 0 1.312-.594t.516-1.813q0-1.156-.532-1.75-.515-.593-1.297-.593-.78 0-1.312.593-.516.579-.516 1.782z"/><path stroke="#ea4335" stroke-width="4" stroke-linecap="butt" stroke-dasharray="13.0,9.0" d="M220.5 25.55h35"/><path fill="#1a1a1a" d="M264.047 26.784l1.062-.093q.079.656.36 1.062.281.406.86.672.593.25 1.327.25.64 0 1.14-.188.5-.203.735-.53.25-.345.25-.735 0-.406-.234-.703-.235-.313-.766-.516-.36-.14-1.547-.422-1.171-.281-1.64-.531-.625-.328-.922-.797-.297-.484-.297-1.078 0-.64.36-1.203.374-.578 1.077-.86.72-.296 1.579-.296.953 0 1.687.312.735.297 1.125.906.39.594.422 1.344l-1.094.078q-.094-.812-.61-1.218-.5-.422-1.483-.422-1.032 0-1.5.375-.47.375-.47.906 0 .469.329.765.328.297 1.703.61 1.39.312 1.906.547.75.36 1.11.89.359.516.359 1.22 0 .687-.39 1.296-.391.594-1.126.938-.734.328-1.656.328-1.172 0-1.969-.328-.78-.344-1.234-1.032-.438-.687-.453-1.547zm12.312 2q-.593.5-1.14.704-.531.203-1.156.203-1.032 0-1.579-.5-.546-.5-.546-1.282 0-.453.203-.828.203-.39.546-.61.344-.233.766-.343.297-.094.938-.172 1.265-.14 1.875-.36v-.265q0-.656-.297-.922-.406-.343-1.203-.343-.735 0-1.094.265-.36.25-.531.907l-1.032-.141q.141-.656.47-1.063.327-.406.937-.625.609-.218 1.406-.218.797 0 1.297.187.5.188.734.469.235.281.328.719.047.265.047.968v1.407q0 1.468.063 1.859.078.39.28.75h-1.108q-.157-.328-.204-.766zm-.093-2.359q-.579.234-1.72.406-.655.094-.921.219-.266.11-.422.328-.14.219-.14.5 0 .422.312.703.328.282.938.282.609 0 1.078-.266.484-.266.703-.735.172-.359.172-1.046v-.391zm3 3.125v-8.594h1.062v8.594h-1.062zm7.093-.766q-.593.5-1.14.704-.531.203-1.156.203-1.032 0-1.579-.5-.546-.5-.546-1.282 0-.453.203-.828.203-.39.546-.61.344-.233.766-.343.297-.094.938-.172 1.265-.14 1.875-.36v-.265q0-.656-.297-.922-.406-.343-1.203-.343-.735 0-1.094.265-.36.25-.531.907l-1.032-.141q.141-.656.47-1.063.327-.406.937-.625.609-.218 1.406-.218.797 0 1.297.187.5.188.734.469.235.281.328.719.047.265.047.968v1.407q0 1.468.063 1.859.078.39.28.75h-1.108q-.157-.328-.204-.766zm-.093-2.359q-.579.234-1.72.406-.655.094-.921.219-.266.11-.422.328-.14.219-.14.5 0 .422.312.703.328.282.938.282.609 0 1.078-.266.484-.266.703-.735.172-.359.172-1.046v-.391zm-2.063-3.875l.781-1.64h1.391l-1.297 1.64h-.875zm5.078 7v-6.219h.953v.938q.36-.656.657-.86.312-.218.687-.218.531 0 1.078.328l-.36.984q-.39-.234-.765-.234-.36 0-.64.219-.266.203-.375.578-.188.562-.188 1.218v3.266h-1.047zm4.016-7.375v-1.219h1.062v1.219h-1.062zm0 7.375v-6.219h1.062v6.219h-1.062zm2.61-3.11q0-1.734.952-2.562.797-.687 1.954-.687 1.28 0 2.093.843.828.829.828 2.313 0 1.203-.359 1.89-.36.688-1.063 1.079-.687.375-1.5.375-1.296 0-2.109-.828-.797-.844-.797-2.422zm1.077 0q0 1.188.516 1.782.531.594 1.313.594.796 0 1.312-.594t.516-1.813q0-1.156-.532-1.75-.515-.593-1.296-.593-.782 0-1.313.593-.516.579-.516 1.782zm8.5 3.11l3.297-8.594H310l3.516 8.594h-1.282l-1.015-2.61h-3.578l-.954 2.61h-1.203zm2.485-3.531h2.906l-.89-2.375q-.423-1.078-.61-1.781-.172.828-.469 1.64l-.937 2.516zm5.328 3.531v-6.219h.937v.875q.297-.468.782-.734.484-.281 1.109-.281.688 0 1.125.28.453.282.625.798.75-1.078 1.922-1.078.937 0 1.422.515.5.5.5 1.578v4.266h-1.047v-3.922q0-.625-.11-.906-.093-.281-.359-.453-.265-.172-.64-.172-.657 0-1.094.437-.422.438-.422 1.407v3.609h-1.063v-4.047q0-.703-.265-1.047-.25-.36-.828-.36-.454 0-.829.235-.375.235-.546.688-.172.453-.172 1.297v3.234h-1.047zm11.969 0h-.985v-8.594h1.063v3.063q.672-.828 1.703-.828.578 0 1.078.234.516.219.844.64.344.422.531 1.016.188.594.188 1.266 0 1.594-.797 2.469-.797.875-1.891.875-1.11 0-1.734-.922v.781zm-.016-3.156q0 1.11.313 1.61.5.812 1.343.812.688 0 1.188-.594.515-.594.515-1.797 0-1.219-.484-1.797-.484-.578-1.172-.578-.687 0-1.203.61-.5.593-.5 1.734zm6.047-4.219v-1.219h1.062v1.219h-1.062zm0 7.375v-6.219h1.062v6.219h-1.062zm7.062-2.281l1.032.14q-.172 1.063-.875 1.672-.704.61-1.72.61-1.28 0-2.062-.828-.765-.844-.765-2.407 0-1 .328-1.75.344-.765 1.015-1.14.688-.375 1.5-.375 1 0 1.641.515.656.5.844 1.453l-1.031.157q-.141-.625-.516-.938-.375-.328-.906-.328-.797 0-1.297.578-.5.563-.5 1.797 0 1.266.484 1.828.485.563 1.25.563.625 0 1.031-.375.422-.375.547-1.172zm1.938-5.094v-1.219h1.062v1.219h-1.062zm0 7.375v-6.219h1.062v6.219h-1.062zm2.61-3.11q0-1.734.952-2.562.797-.687 1.954-.687 1.28 0 2.093.843.828.829.828 2.313 0 1.203-.359 1.89-.36.688-1.063 1.079-.687.375-1.5.375-1.296 0-2.109-.828-.797-.844-.797-2.422zm1.077 0q0 1.188.516 1.782.531.594 1.313.594.796 0 1.312-.594t.516-1.813q0-1.156-.532-1.75-.515-.593-1.296-.593-.782 0-1.313.593-.516.579-.516 1.782zm6.313 3.11v-6.219h.937v.875q.688-1.015 1.985-1.015.562 0 1.031.203.484.203.719.531.234.328.328.766.047.297.047 1.03v3.829h-1.047v-3.781q0-.656-.125-.969-.125-.313-.438-.5-.312-.203-.734-.203-.672 0-1.172.437-.484.422-.484 1.61v3.406h-1.047zm11.062-.766q-.593.5-1.14.704-.531.203-1.156.203-1.032 0-1.579-.5-.546-.5-.546-1.282 0-.453.203-.828.203-.39.546-.61.344-.233.766-.343.297-.094.938-.172 1.265-.14 1.875-.36v-.265q0-.656-.297-.922-.406-.343-1.203-.343-.735 0-1.094.265-.36.25-.531.907l-1.032-.141q.141-.656.47-1.063.327-.406.937-.625.609-.218 1.406-.218.797 0 1.297.187.5.188.734.469.235.281.328.719.047.265.047.968v1.407q0 1.468.063 1.859.078.39.28.75h-1.108q-.157-.328-.204-.766zm-.093-2.359q-.579.234-1.72.406-.655.094-.921.219-.266.11-.422.328-.14.219-.14.5 0 .422.312.703.328.282.938.282.609 0 1.078-.266.484-.266.703-.735.172-.359.172-1.046v-.391zm7.062 3.125v-.781q-.594.922-1.734.922-.75 0-1.375-.407-.625-.421-.969-1.156-.344-.734-.344-1.687 0-.922.313-1.688.312-.765.937-1.156.625-.406 1.39-.406.563 0 1 .234.438.234.72.61v-3.079h1.046v8.594h-.984zM365 26.44q0 1.204.5 1.797.5.579 1.188.579.687 0 1.171-.563.485-.562.485-1.719 0-1.28-.5-1.875-.485-.593-1.203-.593-.704 0-1.172.578-.469.562-.469 1.797zm5.906 0q0-1.734.953-2.562.797-.687 1.954-.687 1.28 0 2.093.843.828.829.828 2.313 0 1.203-.359 1.89-.36.688-1.063 1.079-.687.375-1.5.375-1.296 0-2.109-.828-.797-.844-.797-2.422zm1.078 0q0 1.188.516 1.782.531.594 1.313.594.796 0 1.312-.594t.516-1.813q0-1.156-.532-1.75-.515-.593-1.296-.593-.782 0-1.313.593-.516.579-.516 1.782z"/><path fill="#fbbc04" d="M405.5 25.55a6 6 0 11-12 0 6 6 0 0112 0z"/><path fill="#1a1a1a" d="M414.453 29.55v-8.594h6.203v1.016h-5.062v2.625h4.75v1.015h-4.75v2.922h5.265v1.016h-6.406zm7.844 0v-6.219h.937v.875q.688-1.015 1.985-1.015.562 0 1.031.203.484.203.719.531.234.328.328.766.047.297.047 1.03v3.829h-1.047v-3.781q0-.656-.125-.969-.125-.313-.438-.5-.312-.203-.734-.203-.672 0-1.172.437-.484.422-.484 1.61v3.406h-1.047zm9.297-.938l.156.922q-.453.094-.797.094-.578 0-.89-.172-.313-.187-.454-.484-.125-.297-.125-1.25v-3.578h-.765v-.813h.765v-1.547l1.047-.625v2.172h1.063v.813h-1.063v3.64q0 .454.047.579.063.125.188.203.125.078.359.078.188 0 .469-.031zm.687.938v-6.219h.953v.938q.36-.656.657-.86.312-.218.687-.218.531 0 1.078.328l-.36.984q-.39-.234-.765-.234-.36 0-.64.219-.266.203-.375.578-.188.562-.188 1.218v3.266h-1.047zm8.078-.766q-.593.5-1.14.704-.531.203-1.156.203-1.032 0-1.579-.5-.546-.5-.546-1.282 0-.453.203-.828.203-.39.546-.61.344-.233.766-.343.297-.094.938-.172 1.265-.14 1.875-.36v-.265q0-.656-.297-.922-.406-.343-1.203-.343-.735 0-1.094.265-.36.25-.531.907l-1.032-.141q.141-.656.47-1.063.327-.406.937-.625.609-.218 1.406-.218.797 0 1.297.187.5.188.734.469.235.281.328.719.047.265.047.968v1.407q0 1.468.063 1.859.078.39.28.75h-1.108q-.157-.328-.204-.766zm-.093-2.359q-.579.234-1.72.406-.655.094-.921.219-.266.11-.422.328-.14.219-.14.5 0 .422.312.703.328.282.938.282.609 0 1.078-.266.484-.266.703-.735.172-.359.172-1.046v-.391zm7.062 3.125v-.781q-.594.922-1.734.922-.75 0-1.375-.407-.625-.421-.969-1.156-.344-.734-.344-1.687 0-.922.313-1.688.312-.765.937-1.156.625-.406 1.39-.406.563 0 1 .234.438.234.72.61v-3.079h1.046v8.594h-.984zM444 26.44q0 1.204.5 1.797.5.579 1.188.579.687 0 1.171-.563.485-.562.485-1.719 0-1.28-.5-1.875-.485-.593-1.203-.593-.704 0-1.172.578-.469.562-.469 1.797zm10.36 2.344q-.594.5-1.141.704-.531.203-1.156.203-1.032 0-1.579-.5-.546-.5-.546-1.282 0-.453.203-.828.203-.39.546-.61.344-.233.766-.343.297-.094.938-.172 1.265-.14 1.875-.36v-.265q0-.656-.297-.922-.406-.343-1.203-.343-.735 0-1.094.265-.36.25-.531.907l-1.032-.141q.141-.656.47-1.063.327-.406.937-.625.609-.218 1.406-.218.797 0 1.297.187.5.188.734.469.235.281.328.719.047.265.047.968v1.407q0 1.468.063 1.859.078.39.28.75h-1.108q-.157-.328-.204-.766zm-.094-2.359q-.579.234-1.72.406-.655.094-.921.219-.266.11-.422.328-.14.219-.14.5 0 .422.312.703.328.282.938.282.609 0 1.078-.266.484-.266.703-.735.172-.359.172-1.046v-.391zm8.343 3.125v-7.578h-2.828v-1.016h6.813v1.016h-2.844v7.578h-1.14zm8.75-.766q-.593.5-1.14.704-.531.203-1.156.203-1.032 0-1.579-.5-.546-.5-.546-1.282 0-.453.203-.828.203-.39.546-.61.344-.233.766-.343.297-.094.938-.172 1.265-.14 1.875-.36v-.265q0-.656-.297-.922-.406-.343-1.203-.343-.735 0-1.094.265-.36.25-.531.907l-1.032-.141q.141-.656.47-1.063.327-.406.937-.625.609-.218 1.406-.218.797 0 1.297.187.5.188.734.469.235.281.328.719.047.265.047.968v1.407q0 1.468.063 1.859.078.39.28.75h-1.108q-.157-.328-.204-.766zm-.093-2.359q-.579.234-1.72.406-.655.094-.921.219-.266.11-.422.328-.14.219-.14.5 0 .422.312.703.328.282.938.282.609 0 1.078-.266.484-.266.703-.735.172-.359.172-1.046v-.391zm3.015 3.125v-6.219h.953v.938q.36-.656.657-.86.312-.218.687-.218.531 0 1.078.328l-.36.984q-.39-.234-.765-.234-.36 0-.64.219-.266.203-.375.578-.188.562-.188 1.218v3.266h-1.047zm8.047 0v-.781q-.594.922-1.734.922-.75 0-1.375-.407-.625-.421-.969-1.156-.344-.734-.344-1.687 0-.922.313-1.688.312-.765.937-1.156.625-.406 1.39-.406.563 0 1 .234.438.234.72.61v-3.079h1.046v8.594h-.984zM479 26.44q0 1.204.5 1.797.5.579 1.188.579.687 0 1.171-.563.485-.562.485-1.719 0-1.28-.5-1.875-.485-.593-1.203-.593-.704 0-1.172.578-.469.562-.469 1.797zm6.297-4.265v-1.219h1.062v1.219h-1.062zm0 7.375v-6.219h1.062v6.219h-1.062zm7.062-.766q-.593.5-1.14.704-.531.203-1.156.203-1.032 0-1.579-.5-.546-.5-.546-1.282 0-.453.203-.828.203-.39.546-.61.344-.233.766-.343.297-.094.938-.172 1.265-.14 1.875-.36v-.265q0-.656-.297-.922-.406-.343-1.203-.343-.735 0-1.094.265-.36.25-.531.907l-1.032-.141q.141-.656.47-1.063.327-.406.937-.625.609-.218 1.406-.218.797 0 1.297.187.5.188.734.469.235.281.328.719.047.265.047.968v1.407q0 1.468.063 1.859.078.39.28.75h-1.108q-.157-.328-.204-.766zm-.093-2.359q-.579.234-1.72.406-.655.094-.921.219-.266.11-.422.328-.14.219-.14.5 0 .422.312.703.328.282.938.282.609 0 1.078-.266.484-.266.703-.735.172-.359.172-1.046v-.391z"/></svg>