<svg viewBox="0 0 600 371" fill="none" stroke-linecap="square" stroke-miterlimit="10" width="600" height="371" xmlns="http://www.w3.org/2000/svg"><path fill="#fff" d="M0 0h600v371H0V0z"/><path stroke="#ccc" stroke-linecap="butt" d="M83.5 272.5h498M83.5 218.5h498M83.5 186.5h498M83.5 163.5h498M83.5 146.5h498M83.5 91.5h498"/><path stroke="#000" stroke-linecap="butt" d="M581.5 278.5h-498M83.5 278.5v-227"/><clipPath id="a"><path d="M83.55 51.917h497.9v226.47H83.55V51.918z"/></clipPath><path stroke="#4285f4" stroke-width="2" stroke-linecap="butt" clip-path="url(#a)" d="M108.445 232.333s33.193-5.342 49.79-8.256c16.597-2.914 33.193-5.947 49.79-9.229 16.597-3.281 33.193-6.705 49.79-10.462 16.597-3.757 33.193-7.684 49.79-12.078 16.597-4.394 33.193-8.991 49.79-14.286s33.193-10.813 49.79-17.484c16.597-6.671 33.193-13.49 49.79-22.541 16.597-9.052 33.193-17.423 49.79-31.77 16.597-14.346 49.79-54.31 49.79-54.31"/><path stroke="#ea4335" stroke-width="2" stroke-linecap="butt" clip-path="url(#a)" d="M108.445 278.388s33.193-2.94 49.79-4.479a8692.998 8692.998 0 0049.79-4.75 7679 7679 0 0049.79-5.057 6728.161 6728.161 0 0049.79-5.406 5843.444 5843.444 0 0049.79-5.806 5020.979 5020.979 0 0049.79-6.272 4261.489 4261.489 0 0049.79-6.818c16.597-2.38 33.193-4.847 49.79-7.467 16.597-2.62 49.79-8.256 49.79-8.256"/><path stroke="#fbbc04" stroke-width="2" stroke-linecap="butt" clip-path="url(#a)" d="M108.445 202.92s33.193-1.131 49.79-1.74 33.193-1.242 49.79-1.912c16.597-.67 33.193-1.37 49.79-2.112a9747.38 9747.38 0 0049.79-2.346 8208.44 8208.44 0 0049.79-2.623c16.597-.93 33.193-1.902 49.79-2.953a5615.741 5615.741 0 0049.79-3.351c16.597-1.2 33.193-2.46 49.79-3.842 16.597-1.382 49.79-4.453 49.79-4.453"/><path fill="#4285f4" clip-path="url(#a)" d="M111.445 232.333a3 3 0 11-6 0 3 3 0 016 0zM161.235 224.077a3 3 0 11-6 0 3 3 0 016 0zM211.025 214.848a3 3 0 11-6 0 3 3 0 016 0zM260.815 204.386a3 3 0 11-6 0 3 3 0 016 0zM310.605 192.308a3 3 0 11-6 0 3 3 0 016 0zM360.395 178.022a3 3 0 11-6 0 3 3 0 016 0zM410.185 160.538a3 3 0 11-6 0 3 3 0 016 0zM459.975 137.997a3 3 0 11-6 0 3 3 0 016 0zM509.765 106.227a3 3 0 11-6 0 3 3 0 016 0zM559.555 51.917a3 3 0 11-6 0 3 3 0 016 0z"/><path fill="#ea4335" clip-path="url(#a)" d="M111.445 278.388a3 3 0 11-6 0 3 3 0 016 0zM161.235 273.91a3 3 0 11-6 0 3 3 0 016 0zM211.025 269.16a3 3 0 11-6 0 3 3 0 016 0zM260.815 264.102a3 3 0 11-6 0 3 3 0 016 0zM310.605 258.696a3 3 0 11-6 0 3 3 0 016 0zM360.395 252.89a3 3 0 11-6 0 3 3 0 016 0zM410.185 246.618a3 3 0 11-6 0 3 3 0 016 0zM459.975 239.8a3 3 0 11-6 0 3 3 0 016 0zM509.765 232.333a3 3 0 11-6 0 3 3 0 016 0zM559.555 224.077a3 3 0 11-6 0 3 3 0 016 0z"/><path fill="#fbbc04" clip-path="url(#a)" d="M111.445 202.92a3 3 0 11-6 0 3 3 0 016 0zM161.235 201.18a3 3 0 11-6 0 3 3 0 016 0zM211.025 199.268a3 3 0 11-6 0 3 3 0 016 0zM260.815 197.156a3 3 0 11-6 0 3 3 0 016 0zM310.605 194.81a3 3 0 11-6 0 3 3 0 016 0zM360.395 192.187a3 3 0 11-6 0 3 3 0 016 0zM410.185 189.234a3 3 0 11-6 0 3 3 0 016 0zM459.975 185.883a3 3 0 11-6 0 3 3 0 016 0zM509.765 182.041a3 3 0 11-6 0 3 3 0 016 0zM559.555 177.588a3 3 0 11-6 0 3 3 0 016 0z"/><path stroke="#000" stroke-linecap="butt" d="M108.5 284.5v-12M158.5 284.5v-12M208.5 284.5v-12M257.5 284.5v-12M307.5 284.5v-12M357.5 284.5v-12M407.5 284.5v-12M456.5 284.5v-12M506.5 284.5v-12M556.5 284.5v-12M77.5 272.5h12M77.5 218.5h12M77.5 186.5h12M77.5 163.5h12M77.5 146.5h12M77.5 91.5h12"/><path fill="#000" d="M279.563 346.434l1.125.297q-.36 1.39-1.282 2.125-.922.735-2.265.735-1.391 0-2.266-.563-.875-.562-1.328-1.625-.453-1.078-.453-2.312 0-1.344.515-2.344.516-1 1.454-1.516.953-.515 2.093-.515 1.281 0 2.156.656.891.656 1.235 1.844l-1.125.265q-.297-.937-.875-1.36-.563-.437-1.422-.437-.984 0-1.656.485-.656.469-.938 1.265-.265.797-.265 1.657 0 1.093.312 1.906.328.812 1 1.219.672.406 1.469.406.953 0 1.61-.547.671-.547.906-1.64zm6.812 3.016v-.922q-.734 1.063-1.984 1.063-.547 0-1.032-.204-.468-.218-.703-.53-.234-.329-.328-.798-.062-.297-.062-.984v-3.844h1.062v3.453q0 .813.063 1.11.093.406.406.656.328.234.812.234.47 0 .875-.234.422-.25.594-.672.188-.422.188-1.219v-3.328h1.046v6.219h-.937zm2.5-1.86l1.031-.156q.094.625.485.953.406.329 1.14.329.719 0 1.063-.282.36-.297.36-.703 0-.36-.313-.562-.22-.14-1.079-.36-1.156-.297-1.609-.5-.437-.218-.672-.593-.234-.375-.234-.844 0-.406.187-.766.188-.36.516-.594.25-.171.672-.296.422-.125.922-.125.719 0 1.265.218.563.203.829.563.265.36.359.953l-1.031.14q-.063-.468-.407-.734-.328-.281-.953-.281-.719 0-1.031.25-.313.234-.313.563 0 .203.125.359.141.172.407.281.156.063.937.266 1.125.312 1.563.5.437.187.687.547.25.359.25.906 0 .531-.312 1-.297.453-.875.719-.578.25-1.313.25-1.219 0-1.86-.5-.624-.516-.796-1.5zm9.719.923l.156.921q-.453.094-.797.094-.578 0-.89-.172-.313-.187-.454-.484-.125-.297-.125-1.25v-3.578h-.765v-.813h.765v-1.547l1.047-.625v2.172h1.063v.813h-1.063v3.64q0 .453.047.578.063.125.188.204.125.078.359.078.188 0 .469-.031zm.312-2.172q0-1.735.953-2.563.797-.687 1.954-.687 1.28 0 2.093.843.828.828.828 2.313 0 1.203-.359 1.89-.36.688-1.063 1.079-.687.375-1.5.375-1.296 0-2.109-.829-.797-.843-.797-2.421zm1.078 0q0 1.187.516 1.78.531.595 1.313.595.796 0 1.312-.594t.516-1.813q0-1.156-.532-1.75-.515-.593-1.296-.593-.782 0-1.313.593-.516.578-.516 1.782zm13.344 3.109v-.781q-.594.922-1.734.922-.75 0-1.375-.407-.625-.422-.969-1.156t-.344-1.687q0-.922.313-1.688.312-.766.937-1.156.625-.406 1.39-.406.563 0 1 .234.438.234.72.61v-3.079h1.046v8.594h-.984zM310 346.34q0 1.204.5 1.798.5.578 1.188.578.687 0 1.171-.563.485-.562.485-1.719 0-1.28-.5-1.875-.485-.593-1.203-.593-.704 0-1.172.578-.469.562-.469 1.797zm10.547 1.11l1.094.125q-.25.953-.954 1.484-.703.532-1.78.532-1.36 0-2.173-.844-.796-.844-.796-2.36 0-1.562.812-2.421.813-.875 2.094-.875 1.25 0 2.031.843.797.844.797 2.391v.281h-4.64q.062 1.031.577 1.578.516.532 1.297.532.578 0 .985-.297.421-.313.656-.969zm-3.453-1.703h3.469q-.063-.797-.391-1.188-.516-.609-1.313-.609-.734 0-1.234.484-.484.485-.531 1.313zm11.781 3.703l-3.328-8.594h1.234l2.235 6.25q.265.75.453 1.406.203-.703.469-1.406l2.312-6.25h1.156l-3.36 8.594h-1.171zm4.422-7.375v-1.219h1.062v1.219h-1.062zm0 7.375v-6.219h1.062v6.219h-1.062zm7.031 0v-.781q-.594.922-1.734.922-.75 0-1.375-.407-.625-.422-.969-1.156t-.344-1.687q0-.922.313-1.688.312-.766.937-1.156.625-.406 1.39-.406.563 0 1 .234.438.234.72.61v-3.079h1.046v8.594h-.984zM337 346.34q0 1.204.5 1.798.5.578 1.188.578.687 0 1.171-.563.485-.562.485-1.719 0-1.28-.5-1.875-.485-.593-1.203-.593-.704 0-1.172.578-.469.562-.469 1.797zm10.36 2.344q-.594.5-1.141.703-.531.204-1.156.204-1.032 0-1.579-.5-.546-.5-.546-1.282 0-.453.203-.828.203-.39.546-.61.344-.233.766-.343.297-.094.938-.172 1.265-.14 1.875-.36v-.265q0-.656-.297-.922-.406-.343-1.203-.343-.735 0-1.094.265-.36.25-.531.906l-1.032-.14q.141-.656.47-1.063.327-.406.937-.625.609-.218 1.406-.218.797 0 1.297.187.5.188.734.469.235.281.328.719.047.265.047.968v1.407q0 1.468.063 1.859.078.39.28.75h-1.108q-.157-.328-.204-.766zm-.094-2.359q-.579.234-1.72.406-.655.094-.921.219-.266.11-.422.328-.14.219-.14.5 0 .422.312.703.328.281.938.281.609 0 1.078-.265.484-.266.703-.735.172-.359.172-1.046v-.391zm6.125 3.125v-8.594h1.718l2.032 6.078q.28.86.406 1.282.14-.47.453-1.375l2.063-5.985h1.53v8.594H360.5v-7.188l-2.5 7.188h-1.031l-2.485-7.313v7.313h-1.093zm13.156-2l1.094.125q-.25.953-.954 1.484-.703.532-1.78.532-1.36 0-2.173-.844-.796-.844-.796-2.36 0-1.562.812-2.421.813-.875 2.094-.875 1.25 0 2.031.843.797.844.797 2.391v.281h-4.64q.062 1.031.577 1.578.516.532 1.297.532.578 0 .985-.297.421-.313.656-.969zm-3.453-1.703h3.469q-.063-.797-.391-1.188-.516-.609-1.313-.609-.734 0-1.234.484-.484.485-.531 1.313zm6.203 3.703v-6.219h.937v.875q.688-1.015 1.985-1.015.562 0 1.031.203.484.203.719.531.234.328.328.766.047.296.047 1.03v3.829h-1.047v-3.781q0-.656-.125-.969-.125-.313-.438-.5-.312-.203-.734-.203-.672 0-1.172.437-.484.422-.484 1.61v3.406h-1.047zm6.578-1.86l1.031-.156q.094.625.485.953.406.329 1.14.329.719 0 1.063-.282.36-.297.36-.703 0-.36-.313-.562-.22-.14-1.079-.36-1.156-.297-1.609-.5-.437-.218-.672-.593-.234-.375-.234-.844 0-.406.187-.766.188-.36.516-.594.25-.171.672-.296.422-.125.922-.125.719 0 1.265.218.563.203.829.563.265.36.359.953l-1.031.14q-.063-.468-.407-.734-.328-.281-.953-.281-.719 0-1.031.25-.313.234-.313.563 0 .203.125.359.141.172.407.281.156.063.937.266 1.125.312 1.563.5.437.187.687.547.25.359.25.906 0 .531-.312 1-.297.453-.875.719-.578.25-1.313.25-1.219 0-1.86-.5-.624-.516-.796-1.5zm11.484 1.094q-.593.5-1.14.703-.531.204-1.156.204-1.032 0-1.579-.5-.546-.5-.546-1.282 0-.453.203-.828.203-.39.546-.61.344-.233.766-.343.297-.094.938-.172 1.265-.14 1.875-.36v-.265q0-.656-.297-.922-.406-.343-1.203-.343-.735 0-1.094.265-.36.25-.531.906l-1.032-.14q.141-.656.47-1.063.327-.406.937-.625.609-.218 1.406-.218.797 0 1.297.187.5.188.734.469.235.281.328.719.047.265.047.968v1.407q0 1.468.063 1.859.078.39.28.75h-1.108q-.157-.328-.204-.766zm-.093-2.359q-.579.234-1.72.406-.655.094-.921.219-.266.11-.422.328-.14.219-.14.5 0 .422.312.703.328.281.938.281.609 0 1.078-.265.484-.266.703-.735.172-.359.172-1.046v-.391zm3 3.125v-8.594h1.062v8.594h-1.062zM29.55 196.699l-8.594-3.297v-1.219l8.594-3.515v1.281l-2.61 1.016v3.578l2.61.953v1.203zm-3.531-2.484v-2.907l-2.375.891q-1.078.422-1.781.61.828.171 1.64.468l2.516.938zm3.531-5.329h-6.219v-.937h.875q-1.015-.688-1.015-1.984 0-.563.203-1.032.203-.484.531-.718.328-.235.766-.329.297-.046 1.03-.046h3.829v1.046h-3.781q-.656 0-.969.125-.312.125-.5.438-.203.312-.203.734 0 .672.437 1.172.422.485 1.61.485h3.406v1.046zm-3.11-6.609q-1.734 0-2.562-.953-.687-.797-.687-1.953 0-1.281.843-2.094.829-.828 2.313-.828 1.203 0 1.89.36.688.359 1.079 1.062.375.687.375 1.5 0 1.297-.828 2.11-.844.796-2.422.796zm0-1.078q1.188 0 1.782-.516.594-.53.594-1.312 0-.797-.594-1.313-.594-.515-1.813-.515-1.156 0-1.75.531-.593.516-.593 1.297 0 .781.593 1.312.579.516 1.782.516zm1.25-5.89l-.156-1.032q.625-.094.954-.484.328-.407.328-1.14 0-.72-.282-1.063-.296-.36-.703-.36-.36 0-.562.313-.14.218-.36 1.078-.296 1.156-.5 1.61-.218.437-.593.671-.375.234-.844.234-.406 0-.766-.187-.36-.188-.593-.516-.172-.25-.297-.672-.125-.421-.125-.921 0-.72.218-1.266.204-.563.563-.828.36-.266.953-.36l.14 1.032q-.468.062-.734.406-.281.328-.281.953 0 .719.25 1.031.234.313.563.313.203 0 .359-.125.172-.14.281-.406.063-.157.266-.938.312-1.125.5-1.562.187-.438.547-.688.359-.25.906-.25.531 0 1 .313.453.296.719.875.25.578.25 1.312 0 1.219-.5 1.86-.516.624-1.5.796zM70.597 275.342v1.016h-5.688q0-.375.125-.735.22-.578.688-1.14.484-.563 1.39-1.297 1.407-1.156 1.891-1.828.5-.672.5-1.266 0-.625-.453-1.047-.453-.437-1.172-.437-.766 0-1.219.453-.453.453-.468 1.265l-1.079-.109q.11-1.219.829-1.844.734-.64 1.968-.64 1.235 0 1.953.687.72.688.72 1.703 0 .516-.22 1.016-.203.484-.703 1.047-.484.547-1.609 1.5-.953.797-1.234 1.094-.266.28-.438.562h4.219zM68.425 222.047v-2.062h-3.719v-.97l3.922-5.562h.86v5.563h1.156v.969h-1.157v2.062h-1.062zm0-3.031v-3.86l-2.688 3.86h2.688zM70.519 183.793l-1.047.078q-.14-.625-.39-.906-.438-.453-1.063-.453-.5 0-.89.281-.485.375-.782 1.078-.281.688-.297 1.969.375-.578.922-.86.562-.28 1.172-.28 1.047 0 1.781.78.75.782.75 2 0 .813-.36 1.516-.343.688-.953 1.063-.609.359-1.374.359-1.329 0-2.157-.969-.828-.969-.828-3.187 0-2.5.922-3.625.797-.985 2.156-.985 1.016 0 1.656.579.657.562.782 1.562zm-4.297 3.703q0 .547.219 1.047.234.484.64.75.422.266.89.266.657 0 1.141-.532.485-.546.485-1.468 0-.891-.484-1.407-.47-.515-1.188-.515-.719 0-1.219.515-.484.516-.484 1.344zM66.675 163.08q-.656-.25-.984-.687-.313-.453-.313-1.063 0-.937.672-1.578.688-.64 1.797-.64 1.125 0 1.812.656.688.656.688 1.593 0 .594-.313 1.032-.312.437-.953.687.797.25 1.203.828.407.578.407 1.375 0 1.094-.782 1.844-.765.75-2.047.75-1.265 0-2.046-.75-.782-.75-.782-1.875 0-.844.422-1.406.438-.563 1.219-.766zm-.219-1.797q0 .61.39 1 .407.39 1.032.39.61 0 1-.374.39-.39.39-.953 0-.578-.406-.969-.406-.406-1-.406-.609 0-1.015.39-.39.391-.39.922zm-.328 3.97q0 .452.203.874.219.422.64.656.423.235.907.235.75 0 1.234-.485.5-.484.5-1.234 0-.766-.5-1.266t-1.265-.5q-.75 0-1.234.5-.485.485-.485 1.22zM62.019 150.252h-1.047v-6.718q-.39.359-1.016.734-.61.36-1.094.531v-1.015q.875-.422 1.532-1 .672-.594.953-1.157h.672v8.625zm3.031-4.234q0-1.531.313-2.453.312-.938.921-1.438.625-.5 1.563-.5.687 0 1.203.282.531.28.875.812.344.516.531 1.266.188.75.188 2.03 0 1.517-.313 2.438-.297.922-.922 1.438-.609.5-1.562.5-1.234 0-1.953-.89-.844-1.063-.844-3.485zm1.078 0q0 2.11.5 2.812.5.704 1.219.704.734 0 1.219-.704.5-.703.5-2.812 0-2.125-.5-2.813-.485-.703-1.235-.703-.719 0-1.156.61-.547.78-.547 2.906zM63.597 94.926v1.016h-5.688q0-.375.125-.735.22-.578.688-1.14.484-.563 1.39-1.297 1.407-1.156 1.891-1.828.5-.672.5-1.266 0-.625-.453-1.047-.453-.437-1.172-.437-.766 0-1.219.453-.453.453-.468 1.265l-1.079-.109q.11-1.219.829-1.844.734-.64 1.968-.64 1.235 0 1.953.687.72.688.72 1.703 0 .516-.22 1.016-.203.484-.703 1.047-.484.547-1.609 1.5-.953.797-1.234 1.094-.266.28-.438.562h4.219zm1.453-3.219q0-1.53.313-2.453.312-.937.921-1.437.625-.5 1.563-.5.687 0 1.203.281.531.281.875.812.344.516.531 1.266.188.75.188 2.031 0 1.516-.313 2.438-.297.922-.922 1.437-.609.5-1.562.5-1.234 0-1.953-.89-.844-1.063-.844-3.485zm1.078 0q0 2.11.5 2.813.5.703 1.219.703.734 0 1.219-.703.5-.703.5-2.813 0-2.125-.5-2.812-.485-.703-1.235-.703-.719 0-1.156.61-.547.78-.547 2.905zM78.808 321.68l-.907.523-3.359-5.818q-.159.506-.512 1.143-.348.616-.682 1.007l-.508-.88q.547-.802.826-1.63.285-.851.248-1.479l.582-.336 4.312 7.47zm.508-5.183q-.766-1.326-.956-2.28-.198-.969.08-1.707.29-.745 1.103-1.214.595-.344 1.182-.358.601-.022 1.164.266.556.275 1.093.83.538.557 1.178 1.666.758 1.313.948 2.267.204.947-.08 1.706-.277.738-1.102 1.214-1.07.618-2.137.206-1.262-.499-2.473-2.596zm.934-.539q1.054 1.827 1.839 2.186.784.359 1.407 0 .636-.368.704-1.22.081-.858-.973-2.685-1.063-1.84-1.84-2.185-.77-.367-1.42.008-.623.36-.697 1.106-.083.95.98 2.79zm5.128-2.961q-.765-1.326-.956-2.28-.198-.969.08-1.707.291-.745 1.103-1.214.595-.344 1.183-.358.6-.022 1.164.266.555.275 1.092.83.538.557 1.178 1.666.758 1.313.949 2.267.203.947-.08 1.706-.278.738-1.103 1.214-1.07.618-2.137.206-1.262-.499-2.473-2.596zm.934-.539q1.055 1.827 1.84 2.186.784.359 1.406 0 .636-.368.704-1.22.081-.858-.973-2.685-1.063-1.84-1.84-2.185-.77-.367-1.42.008-.622.36-.697 1.106-.083.95.98 2.79zm7.733.425l-.602-1.042 1.042-.602.602 1.042q.328.569.328 1.038.008.482-.316.922l-.483-.244q.213-.286.2-.621-.005-.322-.244-.798l-.527.305zm-.007-4.886q-.765-1.326-.956-2.28-.198-.969.08-1.707.291-.745 1.103-1.214.596-.344 1.183-.358.6-.022 1.164.266.555.275 1.093.83.537.557 1.178 1.666.758 1.313.948 2.267.204.947-.08 1.706-.278.738-1.103 1.214-1.069.618-2.137.206-1.262-.499-2.473-2.596zm.934-.539q1.055 1.827 1.84 2.186.784.359 1.406 0 .636-.368.704-1.22.082-.858-.973-2.685-1.062-1.84-1.84-2.185-.77-.367-1.42.008-.622.36-.696 1.106-.083.95.98 2.79zm5.129-2.961q-.766-1.326-.956-2.28-.198-.969.08-1.707.29-.745 1.102-1.214.596-.344 1.183-.358.6-.022 1.164.266.556.275 1.093.83.537.557 1.178 1.666.758 1.313.948 2.267.204.947-.08 1.706-.277.738-1.103 1.214-1.069.618-2.137.206-1.261-.499-2.472-2.596zm.933-.539q1.055 1.827 1.84 2.186.784.359 1.407 0 .636-.368.703-1.22.082-.858-.973-2.685-1.062-1.84-1.839-2.185-.771-.367-1.42.008-.623.36-.697 1.106-.083.95.98 2.79zm9.534-9.582q-.853.493-1.187 1.227-.211.446-.237 1.057-.011.638.183 1.067l3.45-1.992.263.768-3.396 1.961q.041.103.104.21.218.38.279.453l3.26-1.883.256.755-3.017 1.742q.874 1.047 1.968 1.065.785.016 1.475-.382.947-.547 1.186-1.353l.609 1.056q-.472.651-1.23 1.089-2.3 1.328-4.2-.12-.381-.284-.823-.769l-.785.453-.242-.762.528-.305q-.139-.209-.28-.452-.062-.109-.103-.211l-.677.39-.25-.776.596-.343q-.642-1.83.27-3.314.554-.915 1.542-1.485.947-.547 1.818-.508l.344 1.064q-.92-.155-1.704.298zM128.598 321.68l-.907.523-3.359-5.818q-.159.506-.512 1.143-.348.616-.682 1.007l-.508-.88q.547-.802.826-1.63.285-.851.248-1.479l.582-.336 4.312 7.47zm1.5-3.464l.914-.636q.515.64 1.097.774.595.125 1.15-.195.65-.375.82-1.141.171-.767-.297-1.579-.453-.785-1.158-.973-.698-.21-1.416.204-.433.25-.68.664-.235.406-.259.834l-.915.384-1.486-4.23 3.708-2.14.5.866-2.977 1.718.764 2.23q.39-.857 1.12-1.279.974-.562 2.028-.268 1.067.285 1.685 1.354.578 1.002.425 2.082-.201 1.307-1.432 2.018-1.015.586-1.993.393-.964-.201-1.598-1.08zm5.07-5.219q-.765-1.326-.956-2.28-.198-.969.08-1.707.291-.745 1.103-1.214.595-.344 1.183-.358.6-.022 1.164.266.555.275 1.092.83.538.557 1.178 1.666.758 1.313.949 2.267.203.947-.08 1.706-.278.738-1.103 1.214-1.07.618-2.137.206-1.262-.499-2.473-2.596zm.934-.539q1.055 1.827 1.84 2.186.784.359 1.406 0 .636-.368.704-1.22.081-.858-.973-2.685-1.063-1.84-1.84-2.185-.77-.367-1.42.008-.623.36-.697 1.106-.083.95.98 2.79zm7.733.425l-.602-1.042 1.042-.602.602 1.042q.328.569.328 1.038.008.482-.316.922l-.483-.244q.213-.286.2-.621-.005-.322-.244-.798l-.527.305zm-.007-4.886q-.765-1.326-.956-2.28-.198-.969.08-1.707.291-.745 1.103-1.214.596-.344 1.183-.358.6-.022 1.164.266.555.275 1.093.83.537.557 1.178 1.666.758 1.313.948 2.267.204.947-.08 1.706-.278.738-1.103 1.214-1.069.618-2.137.206-1.262-.499-2.473-2.596zm.934-.539q1.055 1.827 1.84 2.186.784.359 1.406 0 .636-.368.704-1.22.082-.858-.973-2.685-1.062-1.84-1.84-2.185-.77-.367-1.42.008-.622.36-.696 1.106-.083.95.98 2.79zm5.129-2.961q-.766-1.326-.956-2.28-.198-.969.08-1.707.29-.745 1.102-1.214.596-.344 1.183-.358.6-.022 1.164.266.556.275 1.093.83.537.557 1.178 1.666.758 1.313.948 2.267.204.947-.08 1.706-.277.738-1.103 1.214-1.069.618-2.137.206-1.262-.499-2.472-2.596zm.933-.539q1.055 1.827 1.84 2.186.784.359 1.407 0 .636-.368.703-1.22.082-.858-.973-2.685-1.062-1.84-1.839-2.185-.771-.367-1.42.008-.623.36-.697 1.106-.083.95.98 2.79zm9.534-9.582q-.853.493-1.187 1.227-.211.446-.237 1.057-.011.638.183 1.067l3.45-1.992.263.768-3.396 1.961q.041.103.103.21.22.38.28.453l3.26-1.883.256.755-3.017 1.742q.874 1.047 1.968 1.065.785.016 1.475-.382.947-.547 1.186-1.353l.609 1.056q-.472.651-1.23 1.089-2.3 1.328-4.2-.12-.381-.284-.823-.769l-.785.453-.242-.762.528-.305q-.139-.209-.28-.452-.062-.109-.103-.211l-.677.39-.25-.776.596-.343q-.642-1.83.27-3.314.554-.915 1.542-1.485.947-.547 1.818-.508l.344 1.064q-.92-.155-1.704.298zM179.247 320.011l.508.88-4.926 2.843q-.187-.324-.259-.698-.1-.61.025-1.332.139-.729.556-1.818.64-1.705.723-2.529.098-.831-.2-1.346-.312-.54-.915-.68-.611-.152-1.234.207-.663.383-.829 1.002-.166.62.227 1.33l-.988.445q-.515-1.11-.205-2.01.316-.923 1.385-1.54t2.035-.381q.966.236 1.474 1.115.258.447.318.99.067.52-.085 1.257-.146.716-.644 2.104-.427 1.167-.522 1.565-.09.376-.098.705l3.654-2.109zm-.351-3.514q-.766-1.326-.956-2.28-.198-.969.08-1.707.29-.745 1.103-1.214.595-.344 1.182-.358.601-.022 1.164.266.556.275 1.093.83.538.557 1.178 1.666.758 1.313.948 2.267.204.947-.08 1.706-.277.738-1.102 1.214-1.07.618-2.137.206-1.262-.499-2.473-2.596zm.934-.539q1.054 1.827 1.839 2.186.784.359 1.407 0 .636-.368.704-1.22.081-.858-.973-2.685-1.063-1.84-1.84-2.185-.77-.367-1.42.008-.623.36-.697 1.106-.083.95.98 2.79zm5.128-2.961q-.765-1.326-.956-2.28-.198-.969.08-1.707.291-.745 1.103-1.214.595-.344 1.183-.358.6-.022 1.164.266.555.275 1.092.83.538.557 1.178 1.666.758 1.313.949 2.267.203.947-.08 1.706-.278.738-1.103 1.214-1.07.618-2.137.206-1.262-.499-2.473-2.596zm.934-.539q1.055 1.827 1.84 2.186.784.359 1.406 0 .636-.368.704-1.22.081-.858-.973-2.685-1.063-1.84-1.84-2.185-.77-.367-1.42.008-.622.36-.697 1.106-.083.95.98 2.79zm7.733.425l-.602-1.042 1.042-.602.602 1.042q.328.569.328 1.038.008.482-.316.922l-.483-.244q.213-.286.2-.621-.005-.322-.244-.798l-.527.305zm-.007-4.886q-.765-1.326-.956-2.28-.198-.969.08-1.707.291-.745 1.103-1.214.596-.344 1.183-.358.6-.022 1.164.266.555.275 1.093.83.537.557 1.178 1.666.758 1.313.948 2.267.204.947-.08 1.706-.277.738-1.103 1.214-1.069.618-2.137.206-1.262-.499-2.473-2.596zm.934-.539q1.055 1.827 1.84 2.186.784.359 1.406 0 .636-.368.704-1.22.082-.858-.973-2.685-1.062-1.84-1.84-2.185-.77-.367-1.42.008-.622.36-.696 1.106-.083.95.98 2.79zm5.129-2.961q-.766-1.326-.956-2.28-.198-.969.08-1.707.29-.745 1.102-1.214.596-.344 1.183-.358.6-.022 1.164.266.556.275 1.093.83.537.557 1.178 1.666.758 1.313.948 2.267.204.947-.08 1.706-.277.738-1.103 1.214-1.069.618-2.137.206-1.261-.499-2.472-2.596zm.933-.539q1.055 1.827 1.84 2.186.784.359 1.407 0 .636-.368.703-1.22.082-.858-.973-2.685-1.062-1.84-1.839-2.185-.771-.367-1.42.008-.623.36-.697 1.106-.083.95.98 2.79zm9.534-9.582q-.853.493-1.187 1.227-.211.446-.237 1.057-.011.638.183 1.067l3.45-1.992.263.768-3.396 1.961q.041.103.104.21.218.38.279.453l3.26-1.883.256.755-3.017 1.742q.874 1.047 1.968 1.065.785.016 1.475-.382.947-.547 1.186-1.353l.609 1.056q-.472.651-1.23 1.089-2.3 1.328-4.2-.12-.381-.284-.823-.769l-.785.453-.242-.762.528-.305q-.139-.209-.28-.452-.062-.109-.103-.211l-.677.39-.25-.776.596-.343q-.642-1.83.27-3.314.554-.915 1.542-1.485.947-.547 1.818-.508l.344 1.064q-.92-.155-1.704.298zM229.037 320.011l.508.88-4.926 2.843q-.187-.324-.259-.698-.1-.61.025-1.332.139-.729.556-1.818.64-1.705.723-2.529.098-.831-.2-1.346-.312-.54-.915-.68-.611-.152-1.234.207-.663.383-.829 1.002-.166.62.227 1.33l-.988.445q-.515-1.11-.205-2.01.316-.923 1.385-1.54t2.035-.381q.966.236 1.474 1.115.258.447.318.99.067.52-.085 1.257-.146.716-.644 2.104-.427 1.167-.522 1.565-.09.376-.098.705l3.654-2.109zm.641-1.795l.914-.636q.515.64 1.097.774.595.125 1.15-.195.65-.375.82-1.141.171-.767-.297-1.579-.453-.785-1.158-.973-.698-.21-1.416.204-.433.25-.68.664-.235.406-.259.834l-.915.384-1.486-4.23 3.708-2.14.5.866-2.977 1.718.764 2.23q.39-.857 1.12-1.279.974-.562 2.028-.268 1.067.285 1.685 1.354.578 1.002.425 2.082-.201 1.307-1.432 2.018-1.015.586-1.993.393-.964-.201-1.598-1.08zm5.07-5.219q-.765-1.326-.956-2.28-.198-.969.08-1.707.291-.745 1.103-1.214.595-.344 1.183-.358.6-.022 1.164.266.555.275 1.092.83.538.557 1.178 1.666.758 1.313.949 2.267.203.947-.08 1.706-.278.738-1.103 1.214-1.07.618-2.137.206-1.262-.499-2.473-2.596zm.934-.539q1.055 1.827 1.84 2.186.784.359 1.406 0 .636-.368.704-1.22.081-.858-.973-2.685-1.063-1.84-1.84-2.185-.77-.367-1.42.008-.623.36-.697 1.106-.083.95.98 2.79zm7.733.425l-.602-1.042 1.042-.602.602 1.042q.328.569.328 1.038.008.482-.316.922l-.483-.244q.213-.286.2-.621-.005-.322-.244-.798l-.527.305zm-.007-4.886q-.765-1.326-.956-2.28-.198-.969.08-1.707.291-.745 1.103-1.214.596-.344 1.183-.358.6-.022 1.164.266.555.275 1.093.83.537.557 1.178 1.666.758 1.313.948 2.267.204.947-.08 1.706-.278.738-1.103 1.214-1.069.618-2.137.206-1.262-.499-2.473-2.596zm.934-.539q1.055 1.827 1.84 2.186.784.359 1.406 0 .636-.368.704-1.22.082-.858-.973-2.685-1.062-1.84-1.84-2.185-.77-.367-1.42.008-.622.36-.696 1.106-.083.95.98 2.79zm5.129-2.961q-.766-1.326-.956-2.28-.198-.969.08-1.707.29-.745 1.102-1.214.596-.344 1.183-.358.6-.022 1.164.266.556.275 1.093.83.537.557 1.178 1.666.758 1.313.948 2.267.204.947-.08 1.706-.277.738-1.103 1.214-1.069.618-2.137.206-1.262-.499-2.472-2.596zm.933-.539q1.055 1.827 1.84 2.186.784.359 1.407 0 .636-.368.703-1.22.082-.858-.973-2.685-1.062-1.84-1.839-2.185-.771-.367-1.42.008-.623.36-.697 1.106-.083.95.98 2.79zm9.534-9.582q-.853.493-1.187 1.227-.211.446-.237 1.057-.011.638.183 1.067l3.45-1.992.263.768-3.396 1.961q.041.103.104.21.218.38.279.453l3.26-1.883.256.755-3.017 1.742q.874 1.047 1.968 1.065.785.016 1.475-.382.947-.547 1.186-1.353l.609 1.056q-.472.651-1.23 1.089-2.3 1.328-4.2-.12-.381-.284-.823-.769l-.785.453-.242-.762.528-.305q-.139-.209-.28-.452-.062-.109-.103-.211l-.677.39-.25-.776.596-.343q-.642-1.83.27-3.314.554-.915 1.542-1.485.947-.547 1.818-.508l.344 1.064q-.92-.155-1.704.298zM273.398 321.702l.85-.653q.594.685 1.176.818.574.12 1.116-.193.65-.375.838-1.079.189-.704-.194-1.367-.36-.623-1.013-.787-.649-.185-1.285.183-.257.148-.587.483l-.36-.875q.102-.04.157-.072.581-.336.87-.9.294-.584-.074-1.22-.289-.5-.814-.63-.534-.143-1.075.17-.528.304-.698.853-.157.542.131 1.26l-1.013.368q-.361-1-.055-1.844.298-.858 1.178-1.366.609-.352 1.28-.378.662-.04 1.19.25.529.29.826.805.273.474.25 1.028-.03.541-.398 1.06.735-.226 1.382.05.639.263 1.06.993.563.975.237 2.065-.313 1.083-1.396 1.708-.974.563-1.96.356-.993-.22-1.619-1.086zm5.078-5.205q-.766-1.326-.956-2.28-.198-.969.08-1.707.29-.745 1.103-1.214.595-.344 1.182-.358.601-.022 1.164.266.556.275 1.093.83.538.557 1.178 1.666.758 1.313.948 2.267.204.947-.08 1.706-.277.738-1.102 1.214-1.07.618-2.137.206-1.262-.499-2.473-2.596zm.934-.539q1.054 1.827 1.839 2.186.784.359 1.407 0 .636-.368.704-1.22.081-.858-.973-2.685-1.063-1.84-1.84-2.185-.77-.367-1.42.008-.623.36-.697 1.106-.083.95.98 2.79zm5.128-2.961q-.765-1.326-.956-2.28-.198-.969.08-1.707.291-.745 1.103-1.214.595-.344 1.183-.358.6-.022 1.164.266.555.275 1.092.83.538.557 1.178 1.666.758 1.313.949 2.267.203.947-.08 1.706-.278.738-1.103 1.214-1.07.618-2.137.206-1.262-.499-2.473-2.596zm.934-.539q1.055 1.827 1.84 2.186.784.359 1.406 0 .636-.368.704-1.22.081-.858-.973-2.685-1.063-1.84-1.84-2.185-.77-.367-1.42.008-.623.36-.697 1.106-.083.95.98 2.79zm7.733.425l-.602-1.042 1.042-.602.602 1.042q.328.569.328 1.038.008.482-.316.922l-.483-.244q.213-.286.2-.621-.005-.322-.244-.798l-.527.305zm-.007-4.886q-.765-1.326-.956-2.28-.198-.969.08-1.707.291-.745 1.103-1.214.596-.344 1.183-.358.6-.022 1.164.266.555.275 1.093.83.537.557 1.178 1.666.758 1.313.948 2.267.204.947-.08 1.706-.278.738-1.103 1.214-1.069.618-2.137.206-1.262-.499-2.473-2.596zm.934-.539q1.055 1.827 1.84 2.186.784.359 1.406 0 .636-.368.704-1.22.082-.858-.973-2.685-1.062-1.84-1.84-2.185-.77-.367-1.42.008-.622.36-.696 1.106-.083.95.98 2.79zm5.129-2.961q-.766-1.326-.956-2.28-.198-.969.08-1.707.29-.745 1.102-1.214.596-.344 1.183-.358.6-.022 1.164.266.556.275 1.093.83.537.557 1.178 1.666.758 1.313.948 2.267.204.947-.08 1.706-.277.738-1.103 1.214-1.069.618-2.137.206-1.261-.499-2.472-2.596zm.933-.539q1.055 1.827 1.84 2.186.784.359 1.407 0 .636-.368.703-1.22.082-.858-.973-2.685-1.062-1.84-1.839-2.185-.771-.367-1.42.008-.623.36-.697 1.106-.083.95.98 2.79zm9.534-9.582q-.853.493-1.187 1.227-.211.446-.237 1.057-.011.638.183 1.067l3.45-1.992.263.768-3.396 1.961q.041.103.104.21.218.38.279.453l3.26-1.883.256.755-3.017 1.742q.874 1.047 1.968 1.065.785.016 1.475-.382.947-.547 1.186-1.353l.609 1.056q-.472.651-1.23 1.089-2.3 1.328-4.2-.12-.381-.284-.823-.769l-.785.453-.242-.762.528-.305q-.139-.209-.28-.452-.062-.109-.103-.211l-.677.39-.25-.776.596-.343q-.642-1.83.27-3.314.554-.915 1.542-1.485.947-.547 1.818-.508l.344 1.064q-.92-.155-1.704.298zM323.188 321.702l.85-.653q.594.685 1.176.818.574.12 1.116-.193.65-.375.838-1.079.189-.704-.194-1.367-.36-.623-1.013-.787-.649-.185-1.285.183-.257.148-.587.483l-.36-.875q.102-.04.157-.072.581-.336.87-.9.294-.584-.074-1.22-.289-.5-.814-.63-.534-.143-1.075.17-.528.304-.698.853-.157.542.131 1.26l-1.013.368q-.361-1-.055-1.844.298-.858 1.178-1.366.609-.352 1.28-.378.662-.04 1.19.25.529.29.826.805.273.474.25 1.028-.03.541-.398 1.06.735-.226 1.382.05.639.263 1.06.993.563.975.237 2.065-.313 1.083-1.396 1.708-.974.563-1.96.356-.993-.22-1.619-1.086zm6.07-3.486l.914-.636q.515.64 1.097.774.595.125 1.15-.195.65-.375.82-1.141.171-.767-.297-1.579-.453-.785-1.158-.973-.698-.21-1.416.204-.433.25-.68.664-.235.406-.259.834l-.915.384-1.486-4.23 3.708-2.14.5.866-2.977 1.718.764 2.23q.39-.857 1.12-1.279.975-.562 2.028-.268 1.067.285 1.685 1.354.578 1.002.426 2.082-.202 1.307-1.433 2.018-1.015.586-1.993.393-.964-.201-1.598-1.08zm5.07-5.219q-.765-1.326-.956-2.28-.198-.969.08-1.707.291-.745 1.103-1.214.595-.344 1.183-.358.6-.022 1.164.266.555.275 1.092.83.538.557 1.178 1.666.758 1.313.949 2.267.203.947-.08 1.706-.278.738-1.103 1.214-1.07.618-2.137.206-1.262-.499-2.473-2.596zm.934-.54q1.055 1.828 1.84 2.187.784.359 1.406 0 .636-.368.704-1.22.082-.858-.973-2.685-1.063-1.84-1.84-2.185-.77-.367-1.42.008-.623.36-.697 1.106-.083.95.98 2.79zm7.733.426l-.602-1.042 1.042-.602.602 1.042q.328.569.328 1.038.008.482-.316.922l-.483-.244q.213-.286.2-.621-.005-.322-.244-.798l-.527.305zm-.007-4.886q-.765-1.326-.956-2.28-.198-.969.08-1.707.291-.745 1.103-1.214.596-.344 1.183-.358.6-.022 1.164.266.555.275 1.093.83.537.557 1.178 1.666.758 1.313.948 2.267.204.947-.08 1.706-.278.738-1.103 1.214-1.069.618-2.137.206-1.262-.499-2.473-2.596zm.934-.54q1.055 1.828 1.84 2.187.784.359 1.406 0 .636-.368.704-1.22.082-.858-.973-2.685-1.062-1.84-1.84-2.185-.77-.367-1.42.008-.622.36-.696 1.106-.083.95.98 2.79zm5.129-2.96q-.766-1.326-.956-2.28-.198-.969.08-1.707.29-.745 1.102-1.214.596-.344 1.183-.358.6-.022 1.164.266.556.275 1.093.83.537.557 1.178 1.666.758 1.313.948 2.267.204.947-.08 1.706-.277.738-1.103 1.214-1.069.618-2.137.206-1.261-.499-2.472-2.596zm.933-.54q1.055 1.828 1.84 2.187.784.359 1.407 0 .636-.368.703-1.22.082-.858-.973-2.685-1.062-1.84-1.839-2.185-.771-.367-1.42.008-.623.36-.697 1.106-.083.95.98 2.79zm9.534-9.58q-.853.492-1.187 1.226-.211.446-.237 1.057-.011.638.183 1.067l3.45-1.992.263.768-3.396 1.961q.041.103.104.21.218.38.279.453l3.26-1.883.256.755-3.017 1.742q.874 1.047 1.968 1.065.785.016 1.475-.382.947-.547 1.186-1.353l.609 1.056q-.472.651-1.23 1.089-2.3 1.328-4.2-.12-.381-.284-.823-.769l-.785.453-.242-.762.528-.305q-.139-.209-.28-.452-.062-.109-.103-.211l-.677.39-.25-.776.596-.343q-.642-1.83.27-3.314.554-.915 1.542-1.485.947-.547 1.818-.508l.344 1.064q-.92-.155-1.704.298zM377.034 321.977l-1.031-1.787-3.221 1.86-.484-.84.615-6.777.744-.43 2.781 4.817 1.002-.578.484.839-1.001.578 1.031 1.786-.92.532zm-1.516-2.626l-1.93-3.342-.397 4.686 2.327-1.344zm2.538-2.854q-.766-1.326-.956-2.28-.198-.969.08-1.707.29-.745 1.103-1.214.595-.344 1.182-.358.601-.022 1.164.266.556.275 1.093.83.538.557 1.178 1.666.758 1.313.948 2.267.204.947-.08 1.706-.277.738-1.102 1.214-1.07.618-2.137.206-1.262-.499-2.473-2.596zm.934-.539q1.054 1.827 1.839 2.186.784.359 1.407 0 .636-.368.704-1.22.081-.858-.973-2.685-1.063-1.84-1.84-2.185-.77-.367-1.42.008-.623.36-.697 1.106-.083.95.98 2.79zm5.128-2.961q-.765-1.326-.956-2.28-.198-.969.08-1.707.291-.745 1.103-1.214.595-.344 1.183-.358.6-.022 1.164.266.555.275 1.092.83.538.557 1.178 1.666.758 1.313.949 2.267.203.947-.08 1.706-.278.738-1.103 1.214-1.07.618-2.137.206-1.262-.499-2.473-2.596zm.934-.539q1.054 1.827 1.84 2.186.784.359 1.406 0 .636-.368.704-1.22.081-.858-.973-2.685-1.063-1.84-1.84-2.185-.77-.367-1.42.008-.623.36-.697 1.106-.083.95.98 2.79zm7.733.425l-.602-1.042 1.042-.602.602 1.042q.328.569.328 1.038.008.482-.316.922l-.483-.244q.213-.286.2-.621-.005-.322-.244-.798l-.527.305zm-.007-4.886q-.765-1.326-.956-2.28-.198-.969.08-1.707.291-.745 1.103-1.214.596-.344 1.183-.358.6-.022 1.164.266.555.275 1.093.83.537.557 1.178 1.666.758 1.313.948 2.267.204.947-.08 1.706-.278.738-1.103 1.214-1.069.618-2.137.206-1.262-.499-2.473-2.596zm.934-.539q1.055 1.827 1.84 2.186.784.359 1.406 0 .636-.368.704-1.22.082-.858-.973-2.685-1.062-1.84-1.84-2.185-.77-.367-1.42.008-.622.36-.696 1.106-.083.95.98 2.79zm5.129-2.961q-.766-1.326-.956-2.28-.198-.969.08-1.707.29-.745 1.102-1.214.596-.344 1.183-.358.6-.022 1.164.266.555.275 1.093.83.537.557 1.178 1.666.758 1.313.948 2.267.204.947-.08 1.706-.277.738-1.103 1.214-1.069.618-2.137.206-1.262-.499-2.472-2.596zm.933-.539q1.055 1.827 1.84 2.186.784.359 1.407 0 .636-.368.703-1.22.082-.858-.973-2.685-1.062-1.84-1.839-2.185-.771-.367-1.42.008-.623.36-.697 1.106-.083.95.98 2.79zm9.534-9.582q-.853.493-1.187 1.227-.211.446-.237 1.057-.011.638.183 1.067l3.45-1.992.263.768-3.396 1.961q.041.103.104.21.218.38.279.453l3.26-1.883.256.755-3.017 1.742q.874 1.047 1.968 1.065.785.016 1.475-.382.947-.547 1.186-1.353l.609 1.056q-.472.651-1.23 1.089-2.3 1.328-4.2-.12-.381-.284-.823-.769l-.785.453-.242-.762.528-.305q-.139-.209-.28-.452-.062-.109-.103-.211l-.677.39-.25-.776.596-.343q-.642-1.83.27-3.314.554-.915 1.542-1.485.947-.547 1.818-.508l.344 1.064q-.92-.155-1.704.298zM426.824 321.977l-1.031-1.787-3.221 1.86-.484-.84.615-6.777.744-.43 2.781 4.817 1.002-.578.484.839-1.001.578 1.031 1.786-.92.532zm-1.516-2.626l-1.93-3.342-.397 4.686 2.327-1.344zm3.53-1.135l.914-.636q.515.64 1.097.774.595.125 1.15-.195.65-.375.82-1.141.171-.767-.297-1.579-.453-.785-1.158-.973-.698-.21-1.416.204-.433.25-.68.664-.235.406-.259.834l-.915.384-1.486-4.23 3.708-2.14.5.866-2.977 1.718.764 2.23q.39-.857 1.12-1.279.974-.562 2.028-.268 1.067.285 1.685 1.354.578 1.002.425 2.082-.201 1.307-1.432 2.018-1.015.586-1.993.393-.964-.201-1.598-1.08zm5.07-5.219q-.765-1.326-.956-2.28-.198-.969.08-1.707.291-.745 1.103-1.214.595-.344 1.183-.358.6-.022 1.164.266.555.275 1.092.83.538.557 1.178 1.666.758 1.313.949 2.267.203.947-.08 1.706-.278.738-1.103 1.214-1.07.618-2.137.206-1.262-.499-2.473-2.596zm.934-.539q1.055 1.827 1.84 2.186.784.359 1.406 0 .636-.368.704-1.22.081-.858-.973-2.685-1.063-1.84-1.84-2.185-.77-.367-1.42.008-.623.36-.697 1.106-.083.95.98 2.79zm7.733.425l-.602-1.042 1.042-.602.602 1.042q.328.569.328 1.038.008.482-.316.922l-.483-.244q.213-.286.2-.621-.005-.322-.244-.798l-.527.305zm-.007-4.886q-.765-1.326-.956-2.28-.198-.969.08-1.707.291-.745 1.103-1.214.596-.344 1.183-.358.6-.022 1.164.266.555.275 1.093.83.537.557 1.178 1.666.758 1.313.948 2.267.204.947-.08 1.706-.278.738-1.103 1.214-1.069.618-2.137.206-1.262-.499-2.473-2.596zm.934-.539q1.055 1.827 1.84 2.186.784.359 1.406 0 .636-.368.704-1.22.082-.858-.973-2.685-1.062-1.84-1.84-2.185-.77-.367-1.42.008-.622.36-.696 1.106-.083.95.98 2.79zm5.129-2.961q-.766-1.326-.956-2.28-.198-.969.08-1.707.29-.745 1.102-1.214.596-.344 1.183-.358.6-.022 1.164.266.556.275 1.093.83.537.557 1.178 1.666.758 1.313.948 2.267.204.947-.08 1.706-.277.738-1.103 1.214-1.069.618-2.137.206-1.261-.499-2.472-2.596zm.933-.539q1.055 1.827 1.84 2.186.784.359 1.407 0 .636-.368.703-1.22.082-.858-.973-2.685-1.062-1.84-1.839-2.185-.771-.367-1.42.008-.623.36-.697 1.106-.083.95.98 2.79zm9.534-9.582q-.853.493-1.187 1.227-.211.446-.237 1.057-.011.638.183 1.067l3.45-1.992.263.768-3.396 1.961q.041.103.104.21.218.38.279.453l3.26-1.883.256.755-3.017 1.742q.874 1.047 1.968 1.065.785.016 1.475-.382.947-.547 1.186-1.353l.609 1.056q-.472.651-1.23 1.089-2.3 1.328-4.2-.12-.381-.284-.823-.769l-.785.453-.242-.762.528-.305q-.139-.209-.28-.452-.062-.109-.103-.211l-.677.39-.25-.776.596-.343q-.642-1.83.27-3.314.554-.915 1.542-1.485.947-.547 1.818-.508l.344 1.064q-.92-.155-1.704.298zM472.566 321.716l.914-.636q.514.64 1.096.774.596.125 1.15-.195.65-.375.821-1.141.171-.767-.298-1.579-.453-.785-1.157-.973-.699-.21-1.416.204-.433.25-.681.664-.235.406-.258.834l-.915.384-1.486-4.23 3.708-2.14.5.866-2.977 1.718.764 2.23q.39-.857 1.12-1.279.974-.562 2.028-.268 1.067.285 1.684 1.354.579 1.002.426 2.082-.201 1.307-1.433 2.018-1.014.586-1.992.393-.964-.201-1.598-1.08zm5.07-5.219q-.766-1.326-.956-2.28-.198-.969.08-1.707.29-.745 1.103-1.214.595-.344 1.182-.358.601-.022 1.164.266.556.275 1.093.83.538.557 1.178 1.666.758 1.313.948 2.267.204.947-.08 1.706-.277.738-1.102 1.214-1.07.618-2.137.206-1.262-.499-2.473-2.596zm.934-.539q1.054 1.827 1.839 2.186.784.359 1.407 0 .636-.368.704-1.22.081-.858-.973-2.685-1.063-1.84-1.84-2.185-.77-.367-1.42.008-.623.36-.697 1.106-.083.95.98 2.79zm5.128-2.961q-.765-1.326-.956-2.28-.198-.969.08-1.707.291-.745 1.103-1.214.595-.344 1.183-.358.6-.022 1.164.266.555.275 1.092.83.538.557 1.178 1.666.758 1.313.949 2.267.203.947-.08 1.706-.278.738-1.103 1.214-1.07.618-2.137.206-1.262-.499-2.473-2.596zm.934-.539q1.055 1.827 1.84 2.186.784.359 1.406 0 .636-.368.704-1.22.081-.858-.973-2.685-1.063-1.84-1.84-2.185-.77-.367-1.42.008-.623.36-.697 1.106-.083.95.98 2.79zm7.733.425l-.602-1.042 1.042-.602.602 1.042q.328.569.328 1.038.008.482-.316.922l-.483-.244q.213-.286.2-.621-.005-.322-.244-.798l-.527.305zm-.007-4.886q-.765-1.326-.956-2.28-.198-.969.08-1.707.291-.745 1.103-1.214.596-.344 1.183-.358.6-.022 1.164.266.555.275 1.093.83.537.557 1.178 1.666.758 1.313.948 2.267.204.947-.08 1.706-.278.738-1.103 1.214-1.069.618-2.137.206-1.262-.499-2.473-2.596zm.934-.539q1.055 1.827 1.84 2.186.784.359 1.406 0 .636-.368.704-1.22.082-.858-.973-2.685-1.062-1.84-1.84-2.185-.77-.367-1.42.008-.622.36-.696 1.106-.083.95.98 2.79zm5.129-2.961q-.766-1.326-.956-2.28-.198-.969.08-1.707.29-.745 1.102-1.214.596-.344 1.183-.358.6-.022 1.164.266.555.275 1.093.83.537.557 1.178 1.666.758 1.313.948 2.267.204.947-.08 1.706-.277.738-1.103 1.214-1.069.618-2.136.206-1.262-.499-2.473-2.596zm.933-.539q1.055 1.827 1.84 2.186.784.359 1.407 0 .635-.368.703-1.22.082-.858-.973-2.685-1.062-1.84-1.84-2.185-.77-.367-1.42.008-.622.36-.696 1.106-.083.95.98 2.79zm9.534-9.582q-.853.493-1.187 1.227-.211.446-.237 1.057-.011.638.183 1.067l3.45-1.992.263.768-3.396 1.961q.041.103.103.21.22.38.28.453l3.26-1.883.256.755-3.017 1.742q.874 1.047 1.968 1.065.784.016 1.475-.382.947-.547 1.186-1.353l.609 1.056q-.472.651-1.23 1.089-2.3 1.328-4.2-.12-.381-.284-.823-.769l-.785.453-.242-.762.528-.305q-.139-.209-.28-.452-.062-.109-.103-.211l-.677.39-.25-.775.596-.344q-.642-1.83.27-3.314.554-.915 1.542-1.485.947-.547 1.818-.508l.344 1.064q-.92-.155-1.704.298zM522.356 321.716l.914-.636q.514.64 1.096.774.596.125 1.15-.195.65-.375.821-1.141.171-.767-.298-1.579-.453-.785-1.157-.973-.699-.21-1.416.204-.433.25-.681.664-.235.406-.258.834l-.915.384-1.486-4.23 3.708-2.14.5.866-2.977 1.718.764 2.23q.39-.857 1.12-1.279.974-.562 2.028-.268 1.067.285 1.684 1.354.579 1.002.426 2.082-.201 1.307-1.433 2.018-1.014.586-1.992.393-.964-.201-1.598-1.08zm6.062-3.5l.914-.636q.515.64 1.096.774.596.125 1.15-.195.65-.375.821-1.141.171-.767-.297-1.579-.453-.785-1.158-.973-.698-.21-1.416.204-.433.25-.68.664-.235.406-.259.834l-.915.384-1.486-4.23 3.708-2.14.5.866-2.977 1.718.764 2.23q.39-.857 1.12-1.279.974-.562 2.028-.268 1.067.285 1.685 1.354.578 1.002.426 2.082-.202 1.307-1.433 2.018-1.015.586-1.993.393-.964-.201-1.598-1.08zm5.07-5.219q-.765-1.326-.956-2.28-.198-.969.08-1.707.291-.745 1.103-1.214.595-.344 1.183-.358.6-.022 1.164.266.555.275 1.092.83.538.557 1.178 1.666.758 1.313.949 2.267.203.947-.08 1.706-.278.738-1.103 1.214-1.07.618-2.137.206-1.262-.499-2.473-2.596zm.934-.54q1.054 1.828 1.84 2.187.784.359 1.406 0 .636-.368.704-1.22.082-.858-.973-2.685-1.063-1.84-1.84-2.185-.77-.367-1.42.008-.622.36-.697 1.106-.083.95.98 2.79zm7.733.426l-.602-1.042 1.042-.602.602 1.042q.328.569.328 1.038.008.482-.316.922l-.483-.244q.213-.286.2-.621-.005-.322-.244-.798l-.527.305zm-.007-4.886q-.765-1.326-.956-2.28-.198-.969.08-1.707.291-.745 1.103-1.214.596-.344 1.183-.358.6-.022 1.164.266.555.275 1.093.83.537.557 1.178 1.666.758 1.313.948 2.267.204.947-.08 1.706-.278.738-1.103 1.214-1.069.618-2.137.206-1.262-.499-2.473-2.596zm.934-.54q1.055 1.828 1.84 2.187.784.359 1.406 0 .636-.368.704-1.22.082-.858-.973-2.685-1.062-1.84-1.84-2.185-.77-.367-1.42.008-.622.36-.696 1.106-.083.95.98 2.79zm5.129-2.96q-.766-1.326-.956-2.28-.198-.969.08-1.707.29-.745 1.102-1.214.596-.344 1.183-.358.6-.022 1.164.266.556.275 1.093.83.537.557 1.178 1.666.758 1.313.948 2.267.204.947-.08 1.706-.277.738-1.103 1.214-1.069.618-2.137.206-1.261-.499-2.472-2.596zm.933-.54q1.055 1.828 1.84 2.187.784.359 1.407 0 .636-.368.704-1.22.08-.858-.974-2.685-1.062-1.84-1.839-2.185-.771-.367-1.42.008-.623.36-.697 1.106-.083.95.98 2.79zm9.534-9.58q-.853.492-1.187 1.226-.211.446-.237 1.057-.011.638.183 1.067l3.45-1.992.263.768-3.396 1.961q.041.103.104.21.218.38.279.453l3.26-1.883.256.755-3.017 1.742q.874 1.047 1.968 1.065.785.016 1.475-.382.947-.547 1.186-1.353l.609 1.056q-.472.651-1.23 1.089-2.3 1.328-4.2-.12-.381-.284-.823-.769l-.785.453-.242-.762.528-.305q-.139-.209-.28-.452-.062-.109-.103-.211l-.677.39-.25-.776.596-.343q-.642-1.83.27-3.314.554-.915 1.542-1.485.947-.547 1.818-.508l.344 1.064q-.92-.155-1.704.298z"/><path fill="#4285f4" d="M127.5 25.55a6 6 0 11-12 0 6 6 0 0112 0z"/><path fill="#1a1a1a" d="M136.047 26.784l1.062-.093q.078.656.36 1.062.281.406.86.672.593.25 1.327.25.64 0 1.14-.188.5-.203.735-.53.25-.345.25-.735 0-.406-.234-.703-.234-.313-.766-.516-.36-.14-1.547-.422-1.172-.281-1.64-.531-.625-.328-.922-.797-.297-.484-.297-1.078 0-.64.36-1.203.374-.578 1.077-.86.72-.296 1.579-.296.953 0 1.687.312.734.297 1.125.906.39.594.422 1.344l-1.094.078q-.094-.812-.61-1.218-.5-.422-1.483-.422-1.032 0-1.5.375-.47.375-.47.906 0 .469.329.765.328.297 1.703.61 1.39.312 1.906.547.75.36 1.11.89.359.516.359 1.22 0 .687-.39 1.296-.391.594-1.126.938-.734.328-1.656.328-1.172 0-1.969-.328-.78-.344-1.234-1.032-.438-.687-.453-1.547zm12.312 2q-.593.5-1.14.704-.531.203-1.156.203-1.032 0-1.579-.5-.547-.5-.547-1.282 0-.453.204-.828.203-.39.547-.61.343-.233.765-.343.297-.094.938-.172 1.265-.14 1.875-.36v-.265q0-.656-.297-.922-.406-.343-1.203-.343-.735 0-1.094.265-.36.25-.531.907l-1.032-.141q.141-.656.47-1.063.327-.406.937-.625.609-.218 1.406-.218.797 0 1.297.187.5.188.734.469.234.281.328.719.047.265.047.968v1.407q0 1.468.063 1.859.078.39.28.75h-1.108q-.157-.328-.204-.766zm-.093-2.359q-.578.234-1.72.406-.655.094-.921.219-.266.11-.422.328-.14.219-.14.5 0 .422.312.703.328.282.938.282.609 0 1.078-.266.484-.266.703-.735.172-.359.172-1.046v-.391zm3 3.125v-8.594h1.062v8.594h-1.062zm7.093-.766q-.593.5-1.14.704-.531.203-1.156.203-1.032 0-1.579-.5-.547-.5-.547-1.282 0-.453.204-.828.203-.39.547-.61.343-.233.765-.343.297-.094.938-.172 1.265-.14 1.875-.36v-.265q0-.656-.297-.922-.406-.343-1.203-.343-.735 0-1.094.265-.36.25-.531.907l-1.032-.141q.141-.656.47-1.063.327-.406.937-.625.609-.218 1.406-.218.797 0 1.297.187.5.188.734.469.234.281.328.719.047.265.047.968v1.407q0 1.468.063 1.859.078.39.28.75h-1.108q-.157-.328-.204-.766zm-.093-2.359q-.578.234-1.72.406-.655.094-.921.219-.266.11-.422.328-.14.219-.14.5 0 .422.312.703.328.282.938.282.609 0 1.078-.266.484-.266.703-.735.172-.359.172-1.046v-.391zm-2.063-3.875l.781-1.64h1.391l-1.297 1.64h-.875zm5.078 7v-6.219h.953v.938q.36-.656.657-.86.312-.218.687-.218.531 0 1.078.328l-.36.984q-.39-.234-.765-.234-.36 0-.64.219-.266.203-.375.578-.188.562-.188 1.218v3.266h-1.047zm4.016-7.375v-1.219h1.062v1.219h-1.062zm0 7.375v-6.219h1.062v6.219h-1.062zm2.61-3.11q0-1.734.952-2.562.797-.687 1.953-.687 1.282 0 2.094.843.828.829.828 2.313 0 1.203-.359 1.89-.36.688-1.063 1.079-.687.375-1.5.375-1.296 0-2.109-.828-.797-.844-.797-2.422zm1.077 0q0 1.188.516 1.782.531.594 1.313.594.796 0 1.312-.594t.516-1.813q0-1.156-.532-1.75-.515-.593-1.297-.593-.78 0-1.312.593-.516.579-.516 1.782zm9.407 3.11v-8.594h1.718l2.032 6.078q.28.86.406 1.282.14-.47.453-1.375l2.063-5.985h1.53v8.594H185.5v-7.188L183 29.55h-1.031l-2.485-7.313v7.313h-1.093zm9.265 0v-6.219h1.063v6.219h-1.063zm-.047-7l.782-1.64h1.39l-1.297 1.64h-.875zm2.688 7v-6.219h.937v.875q.688-1.015 1.985-1.015.562 0 1.031.203.484.203.719.531.234.328.328.766.047.297.047 1.03v3.829h-1.047v-3.781q0-.656-.125-.969-.125-.313-.438-.5-.312-.203-.734-.203-.672 0-1.172.437-.484.422-.484 1.61v3.406h-1.047zm7-7.375v-1.219h1.062v1.219h-1.062zm0 7.375v-6.219h1.062v6.219h-1.062zm3 0v-6.219h.937v.875q.297-.468.782-.734.484-.281 1.109-.281.688 0 1.125.28.453.282.625.798.75-1.078 1.922-1.078.937 0 1.422.515.5.5.5 1.578v4.266h-1.047v-3.922q0-.625-.11-.906-.093-.281-.359-.453t-.64-.172q-.657 0-1.094.437-.422.438-.422 1.407v3.609h-1.063v-4.047q0-.703-.265-1.047-.25-.36-.828-.36-.453 0-.828.235-.375.235-.547.688-.172.453-.172 1.297v3.234h-1.047zm10.61-3.11q0-1.734.952-2.562.797-.687 1.953-.687 1.282 0 2.094.843.828.829.828 2.313 0 1.203-.359 1.89-.36.688-1.063 1.079-.687.375-1.5.375-1.296 0-2.109-.828-.797-.844-.797-2.422zm1.077 0q0 1.188.516 1.782.531.594 1.313.594.796 0 1.312-.594t.516-1.813q0-1.156-.532-1.75-.515-.593-1.297-.593-.78 0-1.312.593-.516.579-.516 1.782z"/><path fill="#ea4335" d="M245.5 25.55a6 6 0 11-12 0 6 6 0 0112 0z"/><path fill="#1a1a1a" d="M254.047 26.784l1.062-.093q.078.656.36 1.062.281.406.86.672.593.25 1.327.25.64 0 1.14-.188.5-.203.735-.53.25-.345.25-.735 0-.406-.234-.703-.235-.313-.766-.516-.36-.14-1.547-.422-1.171-.281-1.64-.531-.625-.328-.922-.797-.297-.484-.297-1.078 0-.64.36-1.203.374-.578 1.077-.86.72-.296 1.579-.296.953 0 1.687.312.735.297 1.125.906.39.594.422 1.344l-1.094.078q-.094-.812-.61-1.218-.5-.422-1.483-.422-1.032 0-1.5.375-.47.375-.47.906 0 .469.329.765.328.297 1.703.61 1.39.312 1.906.547.75.36 1.11.89.359.516.359 1.22 0 .687-.39 1.296-.391.594-1.126.938-.734.328-1.656.328-1.172 0-1.969-.328-.78-.344-1.234-1.032-.438-.687-.453-1.547zm12.312 2q-.593.5-1.14.704-.531.203-1.156.203-1.032 0-1.579-.5-.546-.5-.546-1.282 0-.453.203-.828.203-.39.546-.61.344-.233.766-.343.297-.094.938-.172 1.265-.14 1.875-.36v-.265q0-.656-.297-.922-.406-.343-1.203-.343-.735 0-1.094.265-.36.25-.531.907l-1.032-.141q.141-.656.47-1.063.327-.406.937-.625.609-.218 1.406-.218.797 0 1.297.187.5.188.734.469.235.281.328.719.047.265.047.968v1.407q0 1.468.063 1.859.078.39.28.75h-1.108q-.157-.328-.204-.766zm-.093-2.359q-.579.234-1.72.406-.655.094-.921.219-.266.11-.422.328-.14.219-.14.5 0 .422.312.703.328.282.938.282.609 0 1.078-.266.484-.266.703-.735.172-.359.172-1.046v-.391zm3 3.125v-8.594h1.062v8.594h-1.062zm7.093-.766q-.593.5-1.14.704-.531.203-1.156.203-1.032 0-1.579-.5-.546-.5-.546-1.282 0-.453.203-.828.203-.39.546-.61.344-.233.766-.343.297-.094.938-.172 1.265-.14 1.875-.36v-.265q0-.656-.297-.922-.406-.343-1.203-.343-.735 0-1.094.265-.36.25-.531.907l-1.032-.141q.141-.656.47-1.063.327-.406.937-.625.609-.218 1.406-.218.797 0 1.297.187.5.188.734.469.235.281.328.719.047.265.047.968v1.407q0 1.468.063 1.859.078.39.28.75h-1.108q-.157-.328-.204-.766zm-.093-2.359q-.579.234-1.72.406-.655.094-.921.219-.266.11-.422.328-.14.219-.14.5 0 .422.312.703.328.282.938.282.609 0 1.078-.266.484-.266.703-.735.172-.359.172-1.046v-.391zm-2.063-3.875l.781-1.64h1.391l-1.297 1.64h-.875zm5.078 7v-6.219h.953v.938q.36-.656.657-.86.312-.218.687-.218.531 0 1.078.328l-.36.984q-.39-.234-.765-.234-.36 0-.64.219-.266.203-.375.578-.188.562-.188 1.218v3.266h-1.047zm4.016-7.375v-1.219h1.062v1.219h-1.062zm0 7.375v-6.219h1.062v6.219h-1.062zm2.61-3.11q0-1.734.952-2.562.797-.687 1.954-.687 1.28 0 2.093.843.828.829.828 2.313 0 1.203-.359 1.89-.36.688-1.063 1.079-.687.375-1.5.375-1.296 0-2.109-.828-.797-.844-.797-2.422zm1.077 0q0 1.188.516 1.782.531.594 1.313.594.796 0 1.312-.594t.516-1.813q0-1.156-.532-1.75-.515-.593-1.296-.593-.782 0-1.313.593-.516.579-.516 1.782zm8.5 3.11l3.297-8.594H300l3.516 8.594h-1.282l-1.015-2.61h-3.578l-.954 2.61h-1.203zm2.485-3.531h2.906l-.89-2.375q-.423-1.078-.61-1.781-.172.828-.469 1.64l-.937 2.516zm5.328 3.531v-6.219h.937v.875q.297-.468.782-.734.484-.281 1.109-.281.688 0 1.125.28.453.282.625.798.75-1.078 1.922-1.078.937 0 1.422.515.5.5.5 1.578v4.266h-1.047v-3.922q0-.625-.11-.906-.093-.281-.359-.453-.265-.172-.64-.172-.657 0-1.094.437-.422.438-.422 1.407v3.609h-1.063v-4.047q0-.703-.265-1.047-.25-.36-.828-.36-.454 0-.829.235-.375.235-.546.688-.172.453-.172 1.297v3.234h-1.047zm11.969 0h-.985v-8.594h1.063v3.063q.672-.828 1.703-.828.578 0 1.078.234.516.219.844.64.344.422.531 1.016.188.594.188 1.266 0 1.594-.797 2.469-.797.875-1.891.875-1.11 0-1.734-.922v.781zm-.016-3.156q0 1.11.313 1.61.5.812 1.343.812.688 0 1.188-.594.515-.594.515-1.797 0-1.219-.484-1.797-.484-.578-1.172-.578-.687 0-1.203.61-.5.593-.5 1.734zm6.047-4.219v-1.219h1.062v1.219h-1.062zm0 7.375v-6.219h1.062v6.219h-1.062zm7.062-2.281l1.032.14q-.172 1.063-.875 1.672-.704.61-1.72.61-1.28 0-2.062-.828-.765-.844-.765-2.407 0-1 .328-1.75.344-.765 1.015-1.14.688-.375 1.5-.375 1 0 1.641.515.656.5.844 1.453l-1.031.157q-.141-.625-.516-.938-.375-.328-.906-.328-.797 0-1.297.578-.5.563-.5 1.797 0 1.266.484 1.828.485.563 1.25.563.625 0 1.031-.375.422-.375.547-1.172zm1.938-5.094v-1.219h1.062v1.219h-1.062zm0 7.375v-6.219h1.062v6.219h-1.062zm2.61-3.11q0-1.734.952-2.562.797-.687 1.954-.687 1.28 0 2.093.843.828.829.828 2.313 0 1.203-.359 1.89-.36.688-1.063 1.079-.687.375-1.5.375-1.296 0-2.109-.828-.797-.844-.797-2.422zm1.077 0q0 1.188.516 1.782.531.594 1.313.594.796 0 1.312-.594t.516-1.813q0-1.156-.532-1.75-.515-.593-1.296-.593-.782 0-1.313.593-.516.579-.516 1.782zm6.313 3.11v-6.219h.937v.875q.688-1.015 1.985-1.015.562 0 1.031.203.484.203.719.531.234.328.328.766.047.297.047 1.03v3.829h-1.047v-3.781q0-.656-.125-.969-.125-.313-.438-.5-.312-.203-.734-.203-.672 0-1.172.437-.484.422-.484 1.61v3.406h-1.047zm11.062-.766q-.593.5-1.14.704-.531.203-1.156.203-1.032 0-1.579-.5-.546-.5-.546-1.282 0-.453.203-.828.203-.39.546-.61.344-.233.766-.343.297-.094.938-.172 1.265-.14 1.875-.36v-.265q0-.656-.297-.922-.406-.343-1.203-.343-.735 0-1.094.265-.36.25-.531.907l-1.032-.141q.141-.656.47-1.063.327-.406.937-.625.609-.218 1.406-.218.797 0 1.297.187.5.188.734.469.235.281.328.719.047.265.047.968v1.407q0 1.468.063 1.859.078.39.28.75h-1.108q-.157-.328-.204-.766zm-.093-2.359q-.579.234-1.72.406-.655.094-.921.219-.266.11-.422.328-.14.219-.14.5 0 .422.312.703.328.282.938.282.609 0 1.078-.266.484-.266.703-.735.172-.359.172-1.046v-.391zm7.062 3.125v-.781q-.594.922-1.734.922-.75 0-1.375-.407-.625-.421-.969-1.156-.344-.734-.344-1.687 0-.922.313-1.688.312-.765.937-1.156.625-.406 1.39-.406.563 0 1 .234.438.234.72.61v-3.079h1.046v8.594h-.984zM355 26.44q0 1.204.5 1.797.5.579 1.188.579.687 0 1.171-.563.485-.562.485-1.719 0-1.28-.5-1.875-.485-.593-1.203-.593-.704 0-1.172.578-.469.562-.469 1.797zm5.906 0q0-1.734.953-2.562.797-.687 1.954-.687 1.28 0 2.093.843.828.829.828 2.313 0 1.203-.359 1.89-.36.688-1.063 1.079-.687.375-1.5.375-1.296 0-2.109-.828-.797-.844-.797-2.422zm1.078 0q0 1.188.516 1.782.531.594 1.313.594.796 0 1.312-.594t.516-1.813q0-1.156-.532-1.75-.515-.593-1.296-.593-.782 0-1.313.593-.516.579-.516 1.782z"/><path fill="#fbbc04" d="M395.5 25.55a6 6 0 11-12 0 6 6 0 0112 0z"/><path fill="#1a1a1a" d="M404.453 29.55v-8.594h6.203v1.016h-5.062v2.625h4.75v1.015h-4.75v2.922h5.265v1.016h-6.406zm7.844 0v-6.219h.937v.875q.688-1.015 1.985-1.015.562 0 1.031.203.484.203.719.531.234.328.328.766.047.297.047 1.03v3.829h-1.047v-3.781q0-.656-.125-.969-.125-.313-.438-.5-.312-.203-.734-.203-.672 0-1.172.437-.484.422-.484 1.61v3.406h-1.047zm9.297-.938l.156.922q-.453.094-.797.094-.578 0-.89-.172-.313-.187-.454-.484-.125-.297-.125-1.25v-3.578h-.765v-.813h.765v-1.547l1.047-.625v2.172h1.063v.813h-1.063v3.64q0 .454.047.579.063.125.188.203.125.078.359.078.188 0 .469-.031zm.687.938v-6.219h.953v.938q.36-.656.657-.86.312-.218.687-.218.531 0 1.078.328l-.36.984q-.39-.234-.765-.234-.36 0-.64.219-.266.203-.375.578-.188.562-.188 1.218v3.266h-1.047zm8.078-.766q-.593.5-1.14.704-.531.203-1.156.203-1.032 0-1.579-.5-.546-.5-.546-1.282 0-.453.203-.828.203-.39.546-.61.344-.233.766-.343.297-.094.938-.172 1.265-.14 1.875-.36v-.265q0-.656-.297-.922-.406-.343-1.203-.343-.735 0-1.094.265-.36.25-.531.907l-1.032-.141q.141-.656.47-1.063.327-.406.937-.625.609-.218 1.406-.218.797 0 1.297.187.5.188.734.469.235.281.328.719.047.265.047.968v1.407q0 1.468.063 1.859.078.39.28.75h-1.108q-.157-.328-.204-.766zm-.093-2.359q-.579.234-1.72.406-.655.094-.921.219-.266.11-.422.328-.14.219-.14.5 0 .422.312.703.328.282.938.282.609 0 1.078-.266.484-.266.703-.735.172-.359.172-1.046v-.391zm7.062 3.125v-.781q-.594.922-1.734.922-.75 0-1.375-.407-.625-.421-.969-1.156-.344-.734-.344-1.687 0-.922.313-1.688.312-.765.937-1.156.625-.406 1.39-.406.563 0 1 .234.438.234.72.61v-3.079h1.046v8.594h-.984zM434 26.44q0 1.204.5 1.797.5.579 1.188.579.687 0 1.171-.563.485-.562.485-1.719 0-1.28-.5-1.875-.485-.593-1.203-.593-.704 0-1.172.578-.469.562-.469 1.797zm10.36 2.344q-.594.5-1.141.704-.531.203-1.156.203-1.032 0-1.579-.5-.546-.5-.546-1.282 0-.453.203-.828.203-.39.546-.61.344-.233.766-.343.297-.094.938-.172 1.265-.14 1.875-.36v-.265q0-.656-.297-.922-.406-.343-1.203-.343-.735 0-1.094.265-.36.25-.531.907l-1.032-.141q.141-.656.47-1.063.327-.406.937-.625.609-.218 1.406-.218.797 0 1.297.187.5.188.734.469.235.281.328.719.047.265.047.968v1.407q0 1.468.063 1.859.078.39.28.75h-1.108q-.157-.328-.204-.766zm-.094-2.359q-.579.234-1.72.406-.655.094-.921.219-.266.11-.422.328-.14.219-.14.5 0 .422.312.703.328.282.938.282.609 0 1.078-.266.484-.266.703-.735.172-.359.172-1.046v-.391zm8.343 3.125v-7.578h-2.828v-1.016h6.813v1.016h-2.844v7.578h-1.14zm8.75-.766q-.593.5-1.14.704-.531.203-1.156.203-1.032 0-1.579-.5-.546-.5-.546-1.282 0-.453.203-.828.203-.39.546-.61.344-.233.766-.343.297-.094.938-.172 1.265-.14 1.875-.36v-.265q0-.656-.297-.922-.406-.343-1.203-.343-.735 0-1.094.265-.36.25-.531.907l-1.032-.141q.141-.656.47-1.063.327-.406.937-.625.609-.218 1.406-.218.797 0 1.297.187.5.188.734.469.235.281.328.719.047.265.047.968v1.407q0 1.468.063 1.859.078.39.28.75h-1.108q-.157-.328-.204-.766zm-.093-2.359q-.579.234-1.72.406-.655.094-.921.219-.266.11-.422.328-.14.219-.14.5 0 .422.312.703.328.282.938.282.609 0 1.078-.266.484-.266.703-.735.172-.359.172-1.046v-.391zm3.015 3.125v-6.219h.953v.938q.36-.656.657-.86.312-.218.687-.218.531 0 1.078.328l-.36.984q-.39-.234-.765-.234-.36 0-.64.219-.266.203-.375.578-.188.562-.188 1.218v3.266h-1.047zm8.047 0v-.781q-.594.922-1.734.922-.75 0-1.375-.407-.625-.421-.969-1.156-.344-.734-.344-1.687 0-.922.313-1.688.312-.765.937-1.156.625-.406 1.39-.406.563 0 1 .234.438.234.72.61v-3.079h1.046v8.594h-.984zM469 26.44q0 1.204.5 1.797.5.579 1.188.579.687 0 1.171-.563.485-.562.485-1.719 0-1.28-.5-1.875-.485-.593-1.203-.593-.704 0-1.172.578-.469.562-.469 1.797zm6.297-4.265v-1.219h1.062v1.219h-1.062zm0 7.375v-6.219h1.062v6.219h-1.062zm7.062-.766q-.593.5-1.14.704-.531.203-1.156.203-1.032 0-1.579-.5-.546-.5-.546-1.282 0-.453.203-.828.203-.39.546-.61.344-.233.766-.343.297-.094.938-.172 1.265-.14 1.875-.36v-.265q0-.656-.297-.922-.406-.343-1.203-.343-.735 0-1.094.265-.36.25-.531.907l-1.032-.141q.141-.656.47-1.063.327-.406.937-.625.609-.218 1.406-.218.797 0 1.297.187.5.188.734.469.235.281.328.719.047.265.047.968v1.407q0 1.468.063 1.859.078.39.28.75h-1.108q-.157-.328-.204-.766zm-.093-2.359q-.579.234-1.72.406-.655.094-.921.219-.266.11-.422.328-.14.219-.14.5 0 .422.312.703.328.282.938.282.609 0 1.078-.266.484-.266.703-.735.172-.359.172-1.046v-.391z"/></svg>