<svg xmlns="http://www.w3.org/2000/svg" class="chart-svg" viewBox="0 0 1356 601.531"><g class="x-axis axis"><g class="axis-label"><text class="axis-label-label" dominant-baseline="hanging" text-anchor="middle" font-family="&quot;Basis Grotesque&quot;,sans-serif" font-size="14" fill="#999" color="#333" transform="translate(681.195 574.516)">Time</text></g><path class="chart-axis-axis-line" font-family="&quot;Basis Grotesque&quot;,sans-serif" font-size="16" stroke="#ddd" color="#333" d="M89.953 540h1182.484"/><g class="axis-tick-labels"><text class="axis-tick-label" text-anchor="middle" dominant-baseline="hanging" x="61.517" y="10" font-family="&quot;Basis Grotesque&quot;,sans-serif" font-size="12" fill="#999" color="#333" transform="translate(89.953 540)">2006</text><text class="axis-tick-label" text-anchor="middle" dominant-baseline="hanging" x="207.775" y="10" font-family="&quot;Basis Grotesque&quot;,sans-serif" font-size="12" fill="#999" color="#333" transform="translate(89.953 540)">2008</text><text class="axis-tick-label" text-anchor="middle" dominant-baseline="hanging" x="354.233" y="10" font-family="&quot;Basis Grotesque&quot;,sans-serif" font-size="12" fill="#999" color="#333" transform="translate(89.953 540)">2010</text><text class="axis-tick-label" text-anchor="middle" dominant-baseline="hanging" x="500.491" y="10" font-family="&quot;Basis Grotesque&quot;,sans-serif" font-size="12" fill="#999" color="#333" transform="translate(89.953 540)">2012</text><text class="axis-tick-label" text-anchor="middle" dominant-baseline="hanging" x="646.949" y="10" font-family="&quot;Basis Grotesque&quot;,sans-serif" font-size="12" fill="#999" color="#333" transform="translate(89.953 540)">2014</text><text class="axis-tick-label" text-anchor="middle" dominant-baseline="hanging" x="793.207" y="10" font-family="&quot;Basis Grotesque&quot;,sans-serif" font-size="12" fill="#999" color="#333" transform="translate(89.953 540)">2016</text><text class="axis-tick-label" text-anchor="middle" dominant-baseline="hanging" x="939.665" y="10" font-family="&quot;Basis Grotesque&quot;,sans-serif" font-size="12" fill="#999" color="#333" transform="translate(89.953 540)">2018</text><text class="axis-tick-label" text-anchor="middle" dominant-baseline="hanging" x="1085.922" y="10" font-family="&quot;Basis Grotesque&quot;,sans-serif" font-size="12" fill="#999" color="#333" transform="translate(89.953 540)">2020</text></g></g><g class="chart-line-curves"><path d="M89.953 40c2.004 9.219 4.007 18.438 6.01 18.438 2.004 0 4.008-18.438 6.011-18.438h12.221c2.071 0 4.141 17.652 6.212 17.652 2.07 0 4.14-17.652 6.21-17.652 2.004 0 4.008 15.117 6.011 15.117 2.073 0 4.147-15.117 6.22-15.117 2.003 0 4.007 1.569 6.01 2.025 2.07.47 4.14.71 6.211.71 1.937 0 3.874-2.735 5.81-2.735 1.868 0 3.735 2.475 5.602 6.706 2.07 4.691 4.14 8.773 6.21 21.433 2.004 12.251 4.008 52.249 6.012 52.249 2.07 0 4.14-11.24 6.21-12.472 2.004-1.191 4.008-.595 6.011-1.787 2.07-1.23 4.14-6.779 6.211-15.97 2.07-9.19 4.14-31.608 6.211-39.175 2.003-7.323 4.007-10.984 6.01-10.984 2.074 0 4.147 19.888 6.22 19.888 2.003 0 4.007-13.511 6.01-16.012 2.07-2.584 4.141-3.876 6.211-3.876 2.07 0 4.141 38.634 6.211 38.634 1.868 0 3.735-.981 5.602-2.944 2.07-2.177 4.14-15.465 6.21-21.473C243.825 48.402 245.829 40 247.832 40c2.07 0 4.141 9.29 6.211 20.399 2.004 10.75 4.007 44.362 6.011 44.362 2.07 0 4.14-12.434 6.21-14.156 2.071-1.722 4.142-2.583 6.212-2.583 2.003 0 4.007.933 6.01 2.798 2.074 1.93 4.147 56.428 6.22 59.03 2.003 2.516 4.007 1.258 6.01 3.773 2.07 2.6 4.141 44.192 6.211 61.515 2.07 17.323 4.14 29.115 6.211 42.422 1.937 12.449 3.874 35.159 5.81 35.159 2.068 0 4.136-41.858 6.203-50.11 2.004-7.998 4.007-11.997 6.01-11.997 2.071 0 4.141 80.271 6.212 80.271 2.003 0 4.007-.318 6.01-.955 2.07-.658 4.14-54.592 6.211-54.592 2.07 0 4.14 31.769 6.211 48.33 2.006 16.05 4.013 33.457 6.02 49.42 2.07 16.472 4.14 31.473 6.21 47.784 2.004 15.785 4.007 46.288 6.01 48.43 2.07 2.214 4.141 1.107 6.212 3.32 2.07 2.215 4.14 55.404 6.21 55.404 1.87 0 3.74-6.881 5.61-17.732 2.068-11.997 4.135-54.11 6.203-54.11 2.004 0 4.007 3.23 6.01 3.449 2.07.227 4.141.34 6.212.34 2.003 0 4.007-34.843 6.01-45.2 2.07-10.701 4.14-12.963 6.211-17.018 2.07-4.054 4.14-7.308 6.211-7.308 2.006 0 4.013 19.408 6.019 19.408 2.07 0 4.14-16.568 6.21-28.767 2.004-11.806 4.008-42.753 6.012-42.753 2.07 0 4.14 4.042 6.21 4.042 2.07 0 4.141-26.92 6.211-43.82 1.87-15.263 3.74-39.11 5.61-51.401 2.068-13.589 4.135-23.002 6.203-23.002 2.003 0 4.007 1.25 6.01 3.75 2.07 2.583 4.141 41.246 6.211 41.246 2.004 0 4.007-6.235 6.011-6.235 2.07 0 4.14 15.092 6.211 15.092 2.07 0 4.14-4.734 6.21-9.373 2.004-4.49 4.008-6.236 6.012-17.723 2.073-11.886 4.146-39.087 6.219-53.58 2.003-14.006 4.007-32.583 6.01-32.583 2.07 0 4.141.87 6.211.87 2.07 0 4.141-21.145 6.211-21.145 1.867 0 3.735 17.545 5.602 23.683 2.07 6.805 4.14 13.94 6.21 13.94 2.004 0 4.008-18.724 6.011-18.724 2.07 0 4.141 14.878 6.211 19.095 2.004 4.08 4.007 2.069 6.01 6.207 2.071 4.276 4.142 55.407 6.212 58.169 2.07 2.761 4.14 4.142 6.21 4.142 2.004 0 4.008-41.283 6.011-56.499 2.074-15.743 4.147-22.25 6.22-35.61 2.003-12.914 4.007-31.752 6.01-42.92 2.07-11.539 4.14-16.834 6.211-24.564 2.07-7.73 4.14-16.535 6.211-21.814 1.934-4.93 3.868-9.576 5.802-9.576H626.098c2.07 0 4.14 3.99 6.211 3.99 2.07 0 4.14-.531 6.211-.531 2.004 0 4.007 23.144 6.01 23.144 2.074 0 4.147-6.173 6.22-6.173 2.004 0 4.007 6.655 6.01 6.655 2.07 0 4.141-21.122 6.212-23.507 2.07-2.385 4.14-3.578 6.21-3.578h5.61c2.068 0 4.135 1.552 6.203 1.552 2.003 0 4.007-1.552 6.01-1.552 2.07 0 4.141 19.01 6.212 19.01 2.003 0 4.007-19.01 6.01-19.01 2.07 0 4.14 26.027 6.211 26.027 2.07 0 4.14-6.025 6.211-10.46C713.655 51.27 715.662 40 717.668 40h12.221c2.07 0 4.141 14.933 6.211 14.933 2.07 0 4.141-14.933 6.211-14.933h78.739c2.068 0 4.135 31.455 6.203 31.455 2.003 0 4.007-31.455 6.01-31.455 2.07 0 4.141 38.553 6.211 38.553 2.004 0 4.007-38.553 6.01-38.553 2.071 0 4.142 66.596 6.212 81.113 2.07 14.518 4.14 21.777 6.21 21.777 2.007 0 4.013-85.127 6.02-92.099 2.07-7.194 4.14-10.791 6.21-10.791 2.004 0 4.008 28.263 6.011 43.616 2.07 15.866 4.14 50.206 6.211 50.206 2.07 0 4.14-.48 6.211-1.437 1.934-.895 3.868-17.938 5.802-19.262 2.07-1.417 4.14-.708 6.211-2.125 2.004-1.372 4.007-33.248 6.01-37.794 2.07-4.697 4.141-2.349 6.212-7.046C914.807 61.612 916.81 40 918.814 40c2.07 0 4.14.101 6.211.304 2.07.203 4.14 2.412 6.211 2.412 2.004 0 4.007-.6 6.01-1.04 2.074-.458 4.147-1.676 6.22-1.676h6.01c2.07 0 4.141 1.309 6.211 1.309 2.07 0 4.141-1.309 6.211-1.309 1.868 0 3.735 4.627 5.602 7.638 2.07 3.338 4.14 7.708 6.21 11.73 2.004 3.892 4.008 8.33 6.012 11.99 2.07 3.781 4.14 7.434 6.21 10.266 2.004 2.741 4.008 4.66 6.011 6.566 2.07 1.968 4.14 4.998 6.211 4.998 2.07 0 4.14-12.01 6.211-21.086 2.003-8.783 4.007-32.102 6.01-32.102h6.22c2.003 0 4.007 1.022 6.01 1.022 2.07 0 4.141-1.022 6.211-1.022 2.07 0 4.141 8.43 6.211 17.694 1.868 8.355 3.735 33.278 5.602 33.278 2.07 0 4.14-14.058 6.21-22.728 2.004-8.39 4.008-28.244 6.011-28.244H1077.494c2.003 0 4.007 47.113 6.01 47.113 2.074 0 4.147-15.909 6.22-15.909 2.003 0 4.007 94.477 6.01 94.477 2.07 0 4.141-49.725 6.211-66.94 2.07-17.215 4.14-26.257 6.211-36.35 1.87-9.115 3.74-22.391 5.61-22.391h6.203c2.003 0 4.007 57.921 6.01 57.921 2.07 0 4.141-37.958 6.211-46.1 2.004-7.88 4.007-11.821 6.01-11.821 2.071 0 4.142 5.586 6.212 5.586 2.07 0 4.14-5.586 6.21-5.586 2.007 0 4.013 2.614 6.02 2.614 2.07 0 4.14-2.614 6.21-2.614H1175.075c2.07 0 4.14 43.073 6.211 76.049 1.937 30.848 3.874 112.568 5.81 112.568 2.068 0 4.135-96.05 6.203-110.748 2.004-14.242 4.007-15.613 6.01-21.364 2.07-5.942 4.141-13.436 6.212-13.436 2.003 0 4.007 1.502 6.01 1.502 2.07 0 4.14-44.571 6.211-44.571 2.07 0 4.14 11.414 6.211 18.935 2.006 7.288 4.013 25.272 6.019 25.272 2.07 0 4.14-44.207 6.21-44.207h30.246c2.003 0 4.007 1.419 6.01 2.837" stroke="#4285f4" class="chart-line-curves-curve" font-family="&quot;Basis Grotesque&quot;,sans-serif" font-size="16" fill="none" stroke-width="2" color="#333"/><path d="M89.953 40c2.004 7.34 4.007 14.68 6.01 14.68 2.004 0 4.008-14.68 6.011-14.68h12.221c2.071 0 4.141 4.988 6.212 4.988 2.07 0 4.14-4.988 6.21-4.988 2.004 0 4.008 19.353 6.011 19.353 2.073 0 4.147-19.353 6.22-19.353h23.633c2.07 0 4.14 2.429 6.21 7.287 2.004 4.7 4.008 56.155 6.012 56.155 2.07 0 4.14-2.633 6.21-5.178 2.004-2.463 4.008-4.508 6.011-9.69 2.07-5.354 4.14-14.828 6.211-22.315 2.07-7.488 4.14-20.095 6.211-22.61 2.003-2.432 4.007-3.649 6.01-3.649 2.074 0 4.147 9.251 6.22 9.251 2.003 0 4.007-9.251 6.01-9.251h6.211c2.07 0 4.141 21.596 6.211 21.596 1.868 0 3.735-8.948 5.602-12.433 2.07-3.865 4.14-9.163 6.21-9.163h6.011c2.07 0 4.141 1.919 6.211 5.756 2.004 3.714 4.007 27.507 6.011 27.507 2.07 0 4.14-.594 6.21-1.782 2.071-1.188 4.142-4.486 6.212-9.887 2.003-5.226 4.007-21.594 6.01-21.594 2.074 0 4.147 50.44 6.22 55.332 2.003 4.726 4.007 2.363 6.01 7.09 2.07 4.883 4.141 74.53 6.211 87.029 2.07 12.498 4.14 7.23 6.211 18.747 1.937 10.775 3.874 46.158 5.81 46.158 2.068 0 4.136-48.608 6.203-59.136 2.004-10.202 4.007-15.303 6.01-15.303 2.071 0 4.141 75.885 6.212 83.142 2.003 7.023 4.007 10.535 6.01 10.535 2.07 0 4.14-28.254 6.211-28.254 2.07 0 4.14 38.983 6.211 63.849 2.006 24.096 4.013 61.725 6.02 82.384 2.07 21.319 4.14 29.734 6.21 42.228 2.004 12.09 4.007 28.308 6.01 31.826 2.07 3.636 4.141 1.818 6.212 5.453 2.07 3.636 4.14 50.274 6.21 50.274 1.87 0 3.74-6.762 5.61-19.737 2.068-14.346 4.135-53.263 6.203-66.497 2.004-12.826 4.007-17.567 6.01-19.238 2.07-1.727 4.141-.863 6.212-2.59 2.003-1.67 4.007-37.771 6.01-48.605 2.07-11.194 4.14-10.864 6.211-16.791 2.07-5.928 4.14-18.774 6.211-18.774 2.006 0 4.013 17.473 6.019 17.473 2.07 0 4.14-5.384 6.21-16.153 2.004-10.421 4.008-48.222 6.012-48.222 2.07 0 4.14 9.058 6.21 9.058 2.07 0 4.141-8.222 6.211-23.058 1.87-13.4 3.74-47.804 5.61-57.698 2.068-10.94 4.135-16.41 6.203-16.41 2.003 0 4.007 9.929 6.01 16.275 2.07 6.558 4.141 22.626 6.211 22.626 2.004 0 4.007-13.807 6.011-13.807 2.07 0 4.14 8.654 6.211 8.654 2.07 0 4.14-12.042 6.21-17.396 2.004-5.18 4.008-6.168 6.012-14.291 2.073-8.406 4.146-23.545 6.219-36.007 2.003-12.044 4.007-37.422 6.01-37.422 2.07 0 4.141 5.886 6.211 5.886 2.07 0 4.141-19.12 6.211-19.12 1.867 0 3.735 22.56 5.602 24.59 2.07 2.25 4.14 3.375 6.21 3.375 2.004 0 4.008-9.318 6.011-9.318 2.07 0 4.141 16.505 6.211 21.183 2.004 4.526 4.007 2.294 6.01 6.881 2.071 4.741 4.142 51.183 6.212 66.133 2.07 14.95 4.14 23.567 6.21 23.567 2.004 0 4.008-49.57 6.011-51.992 2.074-2.506 4.147-1.253 6.22-3.76 2.003-2.42 4.007-17.173 6.01-29.297 2.07-12.528 4.14-33.246 6.211-45.139 2.07-11.892 4.14-20.11 6.211-26.217 1.934-5.705 3.868-10.227 5.802-10.227 2.07 0 4.14 1.544 6.211 4.63 2.004 2.989 4.007 23.606 6.01 23.606 2.071 0 4.141-10.38 6.212-21.433 2.003-10.697 4.007-43.074 6.01-43.074 2.07 0 4.14 1.438 6.211 1.438 2.07 0 4.14-4.456 6.211-4.456 2.004 0 4.007 12.775 6.01 12.775 2.074 0 4.147-7.307 6.22-9.439 2.004-2.06 4.007-3.336 6.01-3.336H687.006c2.07 0 4.141 31.575 6.212 31.575 2.003 0 4.007-24.987 6.01-24.987 2.07 0 4.14 13.456 6.211 13.456 2.07 0 4.14-20.044 6.211-20.044h18.24c2.07 0 4.141 18.782 6.211 18.782 2.07 0 4.141-18.782 6.211-18.782h42.466c2.007 0 4.014 2.892 6.02 2.892 2.07 0 4.14-2.892 6.21-2.892h24.043c2.068 0 4.135 13.03 6.203 13.03 2.003 0 4.007-13.03 6.01-13.03 2.07 0 4.141 38.707 6.211 38.707 2.004 0 4.007-16.538 6.01-16.538 2.071 0 4.142 57.27 6.212 78.813 2.07 21.544 4.14 50.448 6.21 50.448 2.007 0 4.013-77.045 6.02-99.61 2.07-23.285 4.14-35.872 6.21-35.872 2.004 0 4.008 23.541 6.011 43.64 2.07 20.77 4.14 80.096 6.211 80.096 2.07 0 4.14-10.386 6.211-17.305 1.934-6.464 3.868-17.156 5.802-22.405 2.07-5.62 4.14-3.077 6.211-9.231 2.004-5.956 4.007-28.295 6.01-28.295 2.07 0 4.141 3.417 6.212 3.417 2.003 0 4.007-29.534 6.01-34.277 2.07-4.901 4.14-7.352 6.211-7.352 2.07 0 4.14 3.466 6.211 3.466 2.004 0 4.007-7.593 6.01-12.114C939.32 50.909 941.394 40 943.467 40h6.01c2.07 0 4.141 3.194 6.211 3.194 2.07 0 4.141-3.194 6.211-3.194h5.602c2.07 0 4.14.853 6.21 2.56 2.004 1.652 4.008 6.454 6.012 9.59 2.07 3.24 4.14 6.957 6.21 9.529 2.004 2.488 4.008 4.183 6.011 5.766 2.07 1.637 4.14 3.826 6.211 3.826 2.07 0 4.14-20.164 6.211-24.694 2.003-4.385 4.007-6.577 6.01-6.577 2.074 0 4.147 3.411 6.22 3.411 2.003 0 4.007-3.411 6.01-3.411h6.211c2.07 0 4.141 11.925 6.211 20.767 1.868 7.974 3.735 28.606 5.602 28.606 2.07 0 4.14-18.543 6.21-26.887 2.004-8.075 4.008-22.486 6.011-22.486 2.07 0 4.141 5.862 6.211 5.862 2.004 0 4.007-5.862 6.011-5.862h12.422c2.003 0 4.007 49.216 6.01 49.216 2.074 0 4.147-15.016 6.22-15.016 2.003 0 4.007 75.885 6.01 75.885 2.07 0 4.141-49.446 6.211-65.933 2.07-16.486 4.14-25.6 6.211-32.984 1.87-6.669 3.74-11.168 5.61-11.168h6.203c2.003 0 4.007 52.8 6.01 52.8 2.07 0 4.141-31.234 6.211-40.03 2.004-8.513 4.007-12.77 6.01-12.77 2.071 0 4.142 12.3 6.212 12.3 2.07 0 4.14-12.3 6.21-12.3H1175.075c2.07 0 4.14 37.921 6.211 72.416 1.937 32.269 3.874 123.995 5.81 123.995 2.068 0 4.135-69.783 6.203-87.417 2.004-17.087 4.007-18.09 6.01-25.63 2.07-7.792 4.141-20.16 6.212-20.16 2.003 0 4.007.803 6.01.803 2.07 0 4.14-47.19 6.211-47.19 2.07 0 4.14 7.249 6.211 12.339 2.006 4.932 4.013 17.55 6.019 17.55 2.07 0 4.14-46.706 6.21-46.706h36.256" stroke="#db4437" class="chart-line-curves-curve" font-family="&quot;Basis Grotesque&quot;,sans-serif" font-size="16" fill="none" stroke-width="2" color="#333"/><path d="M89.953 40c2.004 10.28 4.007 20.562 6.01 20.562 2.004 0 4.008-20.562 6.011-20.562h12.221c2.071 0 4.141.675 6.212.675 2.07 0 4.14-.675 6.21-.675 2.004 0 4.008 22.52 6.011 22.52 2.073 0 4.147-22.52 6.22-22.52h23.633c2.07 0 4.14 1.57 6.21 4.71 2.004 3.04 4.008 57.857 6.012 57.857 2.07 0 4.14-10.104 6.21-11.543 2.004-1.392 4.008-.696 6.011-2.088 2.07-1.44 4.14-11.218 6.211-18.793 2.07-7.574 4.14-24.251 6.211-26.655 2.003-2.325 4.007-3.488 6.01-3.488 2.074 0 4.147 14.13 6.22 14.13 2.003 0 4.007-14.13 6.01-14.13h6.211c2.07 0 4.141 24.152 6.211 24.152 1.868 0 3.735-6.512 5.602-10.291C237.68 49.67 239.75 40 241.82 40h6.011c2.07 0 4.141 3.728 6.211 11.185 2.004 7.215 4.007 35.84 6.011 35.949 2.07.113 4.14.17 6.21.17 2.071 0 4.142-8.26 6.212-12.257 2.003-3.867 4.007-11.353 6.01-11.353 2.074 0 4.147 53.114 6.22 59.394 2.003 6.07 4.007 3.035 6.01 9.104 2.07 6.272 4.141 63.858 6.211 77.575 2.07 13.717 4.14 9.88 6.211 20.575 1.937 10.005 3.874 40.09 5.81 40.09 2.068 0 4.136-44.706 6.203-55.255 2.004-10.223 4.007-15.335 6.01-15.335 2.071 0 4.141 71.608 6.212 79.27 2.003 7.414 4.007 11.121 6.01 11.121 2.07 0 4.14-33.777 6.211-33.777 2.07 0 4.14 48.862 6.211 71.997 2.006 22.418 4.013 47.49 6.02 64.82 2.07 17.884 4.14 27.518 6.21 39.99 2.004 12.068 4.007 30.5 6.01 33.792 2.07 3.402 4.141 1.7 6.212 5.103 2.07 3.401 4.14 50.801 6.21 50.801 1.87 0 3.74-3.846 5.61-11.538 2.068-8.505 4.135-49.879 6.203-61.293 2.004-11.06 4.007-16.59 6.01-16.59 2.07 0 4.141 4.018 6.212 4.018 2.003 0 4.007-39.07 6.01-51.022 2.07-12.35 4.14-15.825 6.211-20.857 2.07-5.033 4.14-9.34 6.211-9.34 2.006 0 4.013 19.143 6.019 19.143 2.07 0 4.14-7.01 6.21-17.219 2.004-9.88 4.008-42.194 6.012-42.194 2.07 0 4.14 7.913 6.21 7.913 2.07 0 4.141-16.483 6.211-31.576 1.87-13.633 3.74-45.798 5.61-52.078 2.068-6.944 4.135-10.415 6.203-10.415 2.003 0 4.007 10.017 6.01 16.769 2.07 6.977 4.141 24.656 6.211 24.656 2.004 0 4.007-14.224 6.011-14.224 2.07 0 4.14 8.217 6.211 8.217 2.07 0 4.14-7.393 6.21-12.444 2.004-4.887 4.008-8.734 6.012-17.198 2.073-8.758 4.146-22.738 6.219-35.046 2.003-11.894 4.007-37.437 6.01-37.437 2.07 0 4.141 1.601 6.211 1.601 2.07 0 4.141-21.728 6.211-21.728 1.867 0 3.735 30.345 5.602 31.76 2.07 1.57 4.14 2.355 6.21 2.355 2.004 0 4.008-10.902 6.011-10.902 2.07 0 4.141 14.834 6.211 17.532 2.004 2.611 4.007 1.306 6.01 3.917 2.071 2.698 4.142 58.708 6.212 70.112 2.07 11.404 4.14 17.105 6.21 17.105 2.004 0 4.008-39.571 6.011-49.315 2.074-10.083 4.147-7.287 6.22-15.124 2.003-7.574 4.007-21.07 6.01-30.554 2.07-9.801 4.14-18.412 6.211-27.162 2.07-8.75 4.14-17.889 6.211-25.336 1.934-6.957 3.868-18.258 5.802-18.258 2.07 0 4.14.009 6.211.026 2.004.016 4.007 23.793 6.01 23.793 2.071 0 4.141-20.864 6.212-32.503 2.003-11.263 4.007-36.048 6.01-36.048 2.07 0 4.14.724 6.211.724 2.07 0 4.14-2.495 6.211-2.495 2.004 0 4.007 11.034 6.01 11.034 2.074 0 4.147-11.21 6.22-13.422 2.004-2.14 4.007-1.07 6.01-3.209 2.07-2.21 4.141-17.107 6.212-17.107h24.033c2.07 0 4.141 29.762 6.212 29.762 2.003 0 4.007-29.762 6.01-29.762 2.07 0 4.14 17.9 6.211 17.9 2.07 0 4.14-17.9 6.211-17.9h18.24c2.07 0 4.141 17.216 6.211 17.216 2.07 0 4.141-17.216 6.211-17.216h78.739c2.068 0 4.135 17.666 6.203 17.666 2.003 0 4.007-17.666 6.01-17.666 2.07 0 4.141 41.971 6.211 41.971 2.004 0 4.007-37.263 6.01-37.263 2.071 0 4.142 66.315 6.212 86.016 2.07 19.7 4.14 32.189 6.21 32.189 2.007 0 4.013-65.608 6.02-85.745 2.07-20.779 4.14-35.361 6.21-35.361 2.004 0 4.008 27.852 6.011 44.897 2.07 17.613 4.14 57.165 6.211 59.497 2.07 2.333 4.14 3.499 6.211 3.499 1.934 0 3.868-14.138 5.802-19.537 2.07-5.78 4.14-6.611 6.211-13.515 2.004-6.68 4.007-26.78 6.01-26.78 2.07 0 4.141 5.787 6.212 5.787 2.003 0 4.007-39.176 6.01-39.176 2.07 0 4.14.366 6.211.366 2.07 0 4.14-2.98 6.211-3.097 2.004-.113 4.007-.056 6.01-.169 2.074-.117 4.147-13.579 6.22-13.579H967.5c2.07 0 4.14 5.007 6.21 6.9 2.004 1.833 4.008 1.644 6.012 4.354 2.07 2.801 4.14 10.238 6.21 12.438 2.004 2.13 4.008 1.666 6.011 3.194 2.07 1.578 4.14 6.218 6.211 6.218 2.07 0 4.14-18.141 6.211-23.673 2.003-5.353 4.007-9.431 6.01-9.431H1028.817c2.07 0 4.141 12.825 6.211 21.927 1.868 8.208 3.735 29 5.602 29 2.07 0 4.14-22.164 6.21-30.737 2.004-8.297 4.008-20.19 6.011-20.19H1077.494c2.003 0 4.007 52.064 6.01 52.064 2.074 0 4.147-7.802 6.22-7.802 2.003 0 4.007 79.332 6.01 79.332 2.07 0 4.141-48.649 6.211-65.361 2.07-16.713 4.14-24.87 6.211-34.914 1.87-9.073 3.74-23.319 5.61-23.319h6.203c2.003 0 4.007 51.133 6.01 51.133 2.07 0 4.141-36.661 6.211-42.564 2.004-5.713 4.007-8.569 6.01-8.569 2.071 0 4.142 9.763 6.212 9.763 2.07 0 4.14-9.763 6.21-9.763H1175.075c2.07 0 4.14 43.223 6.211 77.838 1.937 32.38 3.874 119.901 5.81 119.901 2.068 0 4.135-79.528 6.203-94.631 2.004-14.636 4.007-15.146 6.01-21.953 2.07-7.035 4.141-19.47 6.212-19.47 2.003 0 4.007 8.754 6.01 8.754 2.07 0 4.14-54.833 6.211-54.833 2.07 0 4.14 7.307 6.211 14.737 2.006 7.2 4.013 28.692 6.019 28.692 2.07 0 4.14-59.035 6.21-59.035h36.256" stroke="#f4b400" class="chart-line-curves-curve" font-family="&quot;Basis Grotesque&quot;,sans-serif" font-size="16" fill="none" stroke-width="2" color="#333"/><path d="M89.953 40c2.004 10.43 4.007 20.86 6.01 20.86 2.004 0 4.008-20.86 6.011-20.86h12.221c2.071 0 4.141.618 6.212.618 2.07 0 4.14-.618 6.21-.618 2.004 0 4.008 25.21 6.011 25.21 2.073 0 4.147-25.21 6.22-25.21h23.633c2.07 0 4.14.638 6.21 1.914 2.004 1.234 4.008 63.188 6.012 63.188 2.07 0 4.14-9.541 6.21-11.375 2.004-1.774 4.008-.887 6.011-2.662 2.07-1.833 4.14-11.21 6.211-18.714 2.07-7.504 4.14-22.155 6.211-26.314 2.003-4.025 4.007-6.037 6.01-6.037 2.074 0 4.147 10.517 6.22 10.517 2.003 0 4.007-10.517 6.01-10.517h6.211c2.07 0 4.141 24.233 6.211 24.233 1.868 0 3.735-8.134 5.602-11.98C237.68 47.986 239.75 40 241.82 40h6.011c2.07 0 4.141 2.14 6.211 6.422 2.004 4.143 4.007 27.998 6.011 29.365 2.07 1.412 4.14 2.119 6.21 2.119 2.071 0 4.142-11.673 6.212-18.052 2.003-6.174 4.007-19.541 6.01-19.541 2.074 0 4.147 58.886 6.22 64.125 2.003 5.063 4.007 2.532 6.01 7.595 2.07 5.232 4.141 75.134 6.211 84.33 2.07 9.195 4.14 4.597 6.211 13.793 1.937 8.602 3.874 45.174 5.81 45.174 2.068 0 4.136-47.912 6.203-58.859 2.004-10.607 4.007-15.911 6.01-15.911 2.071 0 4.141 74.488 6.212 83.101 2.003 8.335 4.007 12.503 6.01 12.503 2.07 0 4.14-28.322 6.211-28.322 2.07 0 4.14 52.423 6.211 77.744 2.006 24.538 4.013 53.343 6.02 71.942 2.07 19.193 4.14 28.294 6.21 40.385 2.004 11.702 4.007 28.848 6.01 31.255 2.07 2.488 4.141 1.244 6.212 3.731 2.07 2.488 4.14 48.212 6.21 48.212 1.87 0 3.74-4.997 5.61-14.99 2.068-11.049 4.135-50.508 6.203-64.996 2.004-14.039 4.007-21.896 6.01-21.896 2.07 0 4.141 4.803 6.212 4.803 2.003 0 4.007-42.81 6.01-54.248 2.07-11.82 4.14-12.517 6.211-17.73 2.07-5.213 4.14-13.547 6.211-13.547 2.006 0 4.013 18.027 6.019 18.027 2.07 0 4.14-6.976 6.21-17.848 2.004-10.522 4.008-45.397 6.012-45.397 2.07 0 4.14 9.612 6.21 9.612 2.07 0 4.141-15.747 6.211-31.455 1.87-14.188 3.74-48.12 5.61-55.347 2.068-7.99 4.135-11.986 6.203-11.986 2.003 0 4.007 10.098 6.01 16.48 2.07 6.593 4.141 22.624 6.211 22.624 2.004 0 4.007-15.006 6.011-15.006 2.07 0 4.14 6.546 6.211 6.546 2.07 0 4.14-9.336 6.21-14.722 2.004-5.213 4.008-8.434 6.012-16.985 2.073-8.848 4.146-23.179 6.219-35.827 2.003-12.223 4.007-38.647 6.01-38.647 2.07 0 4.141 7.806 6.211 7.806 2.07 0 4.141-17.134 6.211-17.134 1.867 0 3.735 22.392 5.602 24.697 2.07 2.555 4.14 3.833 6.21 3.833 2.004 0 4.008-10.511 6.011-10.511 2.07 0 4.141 16.446 6.211 18.055 2.004 1.558 4.007.78 6.01 2.337 2.071 1.609 4.142 58.425 6.212 74.85 2.07 16.426 4.14 24.638 6.21 24.638 2.004 0 4.008-46.39 6.011-53.25 2.074-7.097 4.147-3.662 6.22-10.646 2.003-6.75 4.007-19.336 6.01-29.875 2.07-10.89 4.14-24.225 6.211-34.527 2.07-10.302 4.14-20.522 6.211-27.286 1.934-6.317 3.868-12.848 5.802-12.848 2.07 0 4.14.05 6.211.15 2.004.098 4.007 27.754 6.01 27.754 2.071 0 4.141-19.907 6.212-31.664 2.003-11.378 4.007-37.513 6.01-37.513 2.07 0 4.14 4.23 6.211 4.23 2.07 0 4.14-6.382 6.211-6.382 2.004 0 4.007 11.167 6.01 11.167 2.074 0 4.147-11.612 6.22-13.59 2.004-1.911 4.007-2.867 6.01-2.867H687.006c2.07 0 4.141 34.316 6.212 34.316 2.003 0 4.007-31.67 6.01-31.67 2.07 0 4.14 17.407 6.211 17.407 2.07 0 4.14-20.053 6.211-20.053h18.24c2.07 0 4.141 20.24 6.211 20.24 2.07 0 4.141-20.24 6.211-20.24h78.739c2.068 0 4.135 12.354 6.203 12.354 2.003 0 4.007-12.354 6.01-12.354 2.07 0 4.141 42.22 6.211 42.22 2.004 0 4.007-28.23 6.01-28.23 2.071 0 4.142 67.721 6.212 87.51 2.07 19.79 4.14 31.226 6.21 31.226 2.007 0 4.013-64.826 6.02-84.093 2.07-19.882 4.14-31.649 6.21-31.649 2.004 0 4.008 27.708 6.011 44.635 2.07 17.492 4.14 57.044 6.211 59.039 2.07 1.994 4.14 2.992 6.211 2.992 1.934 0 3.868-18.359 5.802-24.432 2.07-6.501 4.14-6.441 6.211-12.385 2.004-5.751 4.007-22.353 6.01-22.353 2.07 0 4.141.813 6.212.813 2.003 0 4.007-38.255 6.01-39.598 2.07-1.388 4.14-1.093 6.211-2.082 2.07-.99 4.14-2.78 6.211-3.854 2.004-1.04 4.007-.843 6.01-2.529 2.074-1.744 4.147-17.23 6.22-17.23H967.5c2.07 0 4.14 4.54 6.21 6.17 2.004 1.58 4.008 1.18 6.012 3.54 2.07 2.44 4.14 11.744 6.21 11.744 2.004 0 4.008-.675 6.011-.675 2.07 0 4.14 3.92 6.211 3.92 2.07 0 4.14-18.126 6.211-20.807 2.003-2.595 4.007-3.892 6.01-3.892H1028.817c2.07 0 4.141 13.412 6.211 22.543 1.868 8.235 3.735 28.65 5.602 28.65 2.07 0 4.14-20.156 6.21-28.797 2.004-8.363 4.008-22.396 6.011-22.396 2.07 0 4.141 1.518 6.211 1.518 2.004 0 4.007-1.518 6.011-1.518h12.422c2.003 0 4.007 53.627 6.01 53.627 2.074 0 4.147-10.822 6.22-10.822 2.003 0 4.007 74.106 6.01 74.106 2.07 0 4.141-50.374 6.211-66.847 2.07-16.473 4.14-23.428 6.211-31.993 1.87-7.737 3.74-18.071 5.61-18.071h6.203c2.003 0 4.007 52.83 6.01 52.83 2.07 0 4.141-34.787 6.211-42.147 2.004-7.122 4.007-10.683 6.01-10.683 2.071 0 4.142 13.087 6.212 13.087 2.07 0 4.14-13.087 6.21-13.087H1175.075c2.07 0 4.14 39.535 6.211 74.1 1.937 32.334 3.874 122.902 5.81 122.902 2.068 0 4.135-80.815 6.203-92.97 2.004-11.778 4.007-10.809 6.01-17.667 2.07-7.088 4.141-24.369 6.212-24.369 2.003 0 4.007 4.219 6.01 4.219 2.07 0 4.14-49.867 6.211-49.867 2.07 0 4.14 6.493 6.211 12.482 2.006 5.803 4.013 22.56 6.019 22.56 2.07 0 4.14-51.39 6.21-51.39h36.256" stroke="#0f9d58" class="chart-line-curves-curve" font-family="&quot;Basis Grotesque&quot;,sans-serif" font-size="16" fill="none" stroke-width="2" color="#333"/><path d="M89.953 40c2.004 7.127 4.007 14.254 6.01 14.254 2.004 0 4.008-14.254 6.011-14.254h12.221c2.071 0 4.141 4.851 6.212 4.851 2.07 0 4.14-4.851 6.21-4.851 2.004 0 4.008 16.484 6.011 16.484 2.073 0 4.147-16.484 6.22-16.484h23.633c2.07 0 4.14 3.436 6.21 10.307 2.004 6.649 4.008 50.375 6.012 50.375 2.07 0 4.14-2.916 6.21-5.434 2.004-2.437 4.008-4.235 6.011-9.298 2.07-5.231 4.14-14.456 6.211-21.984 2.07-7.528 4.14-22.646 6.211-23.185a23.802 23.802 0 016.01-.781c2.074 0 4.147 13.074 6.22 13.074 2.003 0 4.007-13.074 6.01-13.074h6.211c2.07 0 4.141 21.784 6.211 21.784 1.868 0 3.735-7.125 5.602-10.576C237.68 47.381 239.75 40 241.82 40h6.011c2.07 0 4.141 3.34 6.211 10.018 2.004 6.462 4.007 34.357 6.011 34.357 2.07 0 4.14-2.814 6.21-4.262 2.071-1.448 4.142-1.475 6.212-4.424 2.003-2.855 4.007-14.382 6.01-14.382 2.074 0 4.147 44.741 6.22 50.987 2.003 6.036 4.007 3.018 6.01 9.055 2.07 6.237 4.141 64.167 6.211 81.016 2.07 16.849 4.14 13.56 6.211 25.273 1.937 10.958 3.874 41.51 5.81 41.51 2.068 0 4.136-46.025 6.203-55.845 2.004-9.517 4.007-14.275 6.01-14.275 2.071 0 4.141 73.018 6.212 79.35 2.003 6.126 4.007 9.19 6.01 9.19 2.07 0 4.14-33.658 6.211-33.658 2.07 0 4.14 35.557 6.211 58.14 2.006 21.887 4.013 55.397 6.02 74.684 2.07 19.902 4.14 28.949 6.21 41.793 2.004 12.43 4.007 29.73 6.01 34.236 2.07 4.655 4.141 2.327 6.212 6.983 2.07 4.655 4.14 52.67 6.21 52.67 1.87 0 3.74-5.34 5.61-16.02 2.068-11.81 4.135-52.65 6.203-62.183 2.004-9.238 4.007-11.642 6.01-13.857 2.07-2.29 4.141-1.145 6.212-3.434 2.003-2.215 4.007-34.952 6.01-45.807 2.07-11.218 4.14-13.888 6.211-19.516 2.07-5.628 4.14-14.252 6.211-14.252 2.006 0 4.013 19.143 6.019 19.143 2.07 0 4.14-5.065 6.21-15.195 2.004-9.803 4.008-45.898 6.012-45.898 2.07 0 4.14 7.511 6.21 7.511 2.07 0 4.141-8.887 6.211-23.143 1.87-12.877 3.74-45.546 5.61-54.641 2.068-10.055 4.135-15.083 6.203-15.083 2.003 0 4.007 10.635 6.01 17.462 2.07 7.055 4.141 24.388 6.211 24.388 2.004 0 4.007-13.181 6.011-13.181 2.07 0 4.14 10.378 6.211 10.378 2.07 0 4.14-10.366 6.21-15.395 2.004-4.867 4.008-6.313 6.012-14.312 2.073-8.277 4.146-23.07 6.219-35.2 2.003-11.723 4.007-35.597 6.01-36.282 2.07-.708 4.141-.354 6.211-1.062 2.07-.708 4.141-21.694 6.211-21.694 1.867 0 3.735 29.017 5.602 29.625 2.07.675 4.14 1.013 6.21 1.013 2.004 0 4.008-9.675 6.011-9.675 2.07 0 4.141 15.99 6.211 20.788 2.004 4.643 4.007 2.647 6.01 7.94 2.071 5.471 4.142 52.076 6.212 63.385 2.07 11.308 4.14 16.962 6.21 16.962 2.004 0 4.008-44.232 6.011-49.192 2.074-5.133 4.147-2.567 6.22-7.699 2.003-4.96 4.007-18.425 6.01-29.463 2.07-11.405 4.14-27.698 6.211-38.115 2.07-10.417 4.14-17.568 6.211-24.387 1.934-6.37 3.868-15.678 5.802-15.678 2.07 0 4.14 1.266 6.211 3.799 2.004 2.45 4.007 20.318 6.01 20.318 2.071 0 4.141-11.16 6.212-22.102 2.003-10.59 4.007-40.887 6.01-41.815 2.07-.96 4.14-.48 6.211-1.44 2.07-.96 4.14-8.154 6.211-8.154 2.004 0 4.007 12.947 6.01 12.947 2.074 0 4.147-7.067 6.22-9.874 2.004-2.713 4.007-4.436 6.01-6.781 2.07-2.424 4.141-7.545 6.212-7.545h24.033c2.07 0 4.141 27.934 6.212 27.934 2.003 0 4.007-27.934 6.01-27.934 2.07 0 4.14 12.775 6.211 12.775 2.07 0 4.14-12.775 6.211-12.775h18.24c2.07 0 4.141 16.082 6.211 16.082 2.07 0 4.141-16.082 6.211-16.082h78.739c2.068 0 4.135 17.784 6.203 17.784 2.003 0 4.007-17.784 6.01-17.784 2.07 0 4.141 53.666 6.211 53.666 2.004 0 4.007-23.815 6.01-23.815 2.071 0 4.142 55.861 6.212 75.804 2.07 19.944 4.14 43.856 6.21 43.856 2.007 0 4.013-72.024 6.02-94.043 2.07-22.721 4.14-38.362 6.21-38.362 2.004 0 4.008 23.416 6.011 43.237 2.07 20.481 4.14 78.768 6.211 78.768 2.07 0 4.14-9.987 6.211-15.866 1.934-5.492 3.868-13.457 5.802-18.02 2.07-4.885 4.14-3.23 6.211-9.692 2.004-6.253 4.007-31.54 6.01-31.54 2.07 0 4.141 7.927 6.212 7.927 2.003 0 4.007-29.622 6.01-33.435 2.07-3.94 4.14-5.91 6.211-5.91 2.07 0 4.14 2.885 6.211 2.885 2.004 0 4.007-1.78 6.01-5.341C939.32 66.434 941.394 40 943.467 40h6.01c2.07 0 4.141 5.627 6.211 5.627 2.07 0 4.141-5.627 6.211-5.627h5.602c2.07 0 4.14.796 6.21 2.387 2.004 1.54 4.008 5.868 6.012 8.908 2.07 3.143 4.14 7.055 6.21 9.656 2.004 2.516 4.008 3.351 6.011 5.815 2.07 2.545 4.14 9.317 6.211 9.317 2.07 0 4.14-20.587 6.211-26.607 2.003-5.827 4.007-9.476 6.01-9.476 2.074 0 4.147 1.54 6.22 1.54 2.003 0 4.007-1.54 6.01-1.54h6.211c2.07 0 4.141 15.283 6.211 24.568 1.868 8.375 3.735 27.8 5.602 27.8 2.07 0 4.14-20.1 6.21-28.945 2.004-8.56 4.008-23.423 6.011-23.423 2.07 0 4.141 1.444 6.211 1.444 2.004 0 4.007-1.444 6.011-1.444h12.422c2.003 0 4.007 49.233 6.01 49.233 2.074 0 4.147-12.396 6.22-12.396 2.003 0 4.007 80.137 6.01 80.137 2.07 0 4.141-48.3 6.211-64.973 2.07-16.674 4.14-26.236 6.211-35.066 1.87-7.977 3.74-16.935 5.61-16.935h6.203c2.003 0 4.007 52.358 6.01 52.358 2.07 0 4.141-33.232 6.211-41.033 2.004-7.55 4.007-11.325 6.01-11.325 2.071 0 4.142 9.85 6.212 9.85 2.07 0 4.14-9.85 6.21-9.85H1175.075c2.07 0 4.14 41.614 6.211 75.973 1.937 32.143 3.874 120.15 5.81 120.15 2.068 0 4.135-69.104 6.203-88.786 2.004-19.074 4.007-21.795 6.01-29.294 2.07-7.748 4.141-15.985 6.212-15.985 2.003 0 4.007 5 6.01 5 2.07 0 4.14-51.73 6.211-51.73 2.07 0 4.14 7.438 6.211 13.82 2.006 6.186 4.013 23.56 6.019 23.56 2.07 0 4.14-52.708 6.21-52.708h6.012c2.07 0 4.14 2.079 6.21 2.079 2.07 0 4.141-2.079 6.211-2.079h11.813c2.003 0 4.007.167 6.01.333" stroke="#f44285" class="chart-line-curves-curve" font-family="&quot;Basis Grotesque&quot;,sans-serif" font-size="16" fill="none" stroke-width="2" color="#333"/></g><g class="chart-line-legends" dominant-baseline="middle" font-family="&quot;Basis Grotesque&quot;,sans-serif" font-size="16" color="#333"><text x=".5em" y="2.837" fill="#4285f4" transform="translate(1272.438 40)">S&amp;P500</text><text x=".5em" y="-37.163" fill="#db4437" transform="translate(1272.438 40)">VWCE</text><text x=".5em" y="-57.163" fill="#f4b400" transform="translate(1272.438 40)">IWDA</text><text x=".5em" y="-77.163" fill="#0f9d58" transform="translate(1272.438 40)">ACWI</text><text x=".5em" y="-17.163" fill="#f44285" transform="translate(1272.438 40)">VGVF</text></g><g class="y-axis axis"><g class="axis-label"><text class="axis-label-label" dominant-baseline="hanging" text-anchor="middle" font-family="&quot;Basis Grotesque&quot;,sans-serif" font-size="14" fill="#999" color="#333" transform="rotate(-90 145 145)">Drawdown</text></g><g class="axis-tick-labels"><path fill="none" font-family="&quot;Basis Grotesque&quot;,sans-serif" font-size="16" color="#333" d="M89.953 40h1v10h-1z"/><text class="axis-tick-label" text-anchor="end" x="-10" y="500" alignment-baseline="middle" font-family="&quot;Basis Grotesque&quot;,sans-serif" font-size="12" fill="#999" color="#333" transform="translate(89.953 40)">-50.0%</text><text class="axis-tick-label" text-anchor="end" x="-10" y="450" alignment-baseline="middle" font-family="&quot;Basis Grotesque&quot;,sans-serif" font-size="12" fill="#999" color="#333" transform="translate(89.953 40)">-45.0%</text><text class="axis-tick-label" text-anchor="end" x="-10" y="400" alignment-baseline="middle" font-family="&quot;Basis Grotesque&quot;,sans-serif" font-size="12" fill="#999" color="#333" transform="translate(89.953 40)">-40.0%</text><text class="axis-tick-label" text-anchor="end" x="-10" y="350" alignment-baseline="middle" font-family="&quot;Basis Grotesque&quot;,sans-serif" font-size="12" fill="#999" color="#333" transform="translate(89.953 40)">-35.0%</text><text class="axis-tick-label" text-anchor="end" x="-10" y="300" alignment-baseline="middle" font-family="&quot;Basis Grotesque&quot;,sans-serif" font-size="12" fill="#999" color="#333" transform="translate(89.953 40)">-30.0%</text><text class="axis-tick-label" text-anchor="end" x="-10" y="250" alignment-baseline="middle" font-family="&quot;Basis Grotesque&quot;,sans-serif" font-size="12" fill="#999" color="#333" transform="translate(89.953 40)">-25.0%</text><text class="axis-tick-label" text-anchor="end" x="-10" y="200" alignment-baseline="middle" font-family="&quot;Basis Grotesque&quot;,sans-serif" font-size="12" fill="#999" color="#333" transform="translate(89.953 40)">-20.0%</text><text class="axis-tick-label" text-anchor="end" x="-10" y="150" alignment-baseline="middle" font-family="&quot;Basis Grotesque&quot;,sans-serif" font-size="12" fill="#999" color="#333" transform="translate(89.953 40)">-15.0%</text><text class="axis-tick-label" text-anchor="end" x="-10" y="100" alignment-baseline="middle" font-family="&quot;Basis Grotesque&quot;,sans-serif" font-size="12" fill="#999" color="#333" transform="translate(89.953 40)">-10.0%</text><text class="axis-tick-label" text-anchor="end" x="-10" y="50" alignment-baseline="middle" font-family="&quot;Basis Grotesque&quot;,sans-serif" font-size="12" fill="#999" color="#333" transform="translate(89.953 40)">-5.0%</text><text class="axis-tick-label" text-anchor="end" x="-10" alignment-baseline="middle" font-family="&quot;Basis Grotesque&quot;,sans-serif" font-size="12" fill="#999" color="#333" transform="translate(89.953 40)">0.0%</text></g><g class="axis-minor-tick-lines"><path class="axis-minor-tick-line" font-family="&quot;Basis Grotesque&quot;,sans-serif" font-size="16" stroke="#ddd" color="#333" d="M83.953 540h6M83.953 490h6M83.953 440h6M83.953 390h6M83.953 340h6M83.953 290h6M83.953 240h6M83.953 190h6M83.953 140h6M83.953 90h6"/></g></g></svg>